/* XPM */
static char * ion16_unittest_xpm[] = {
"16 16 204 2",
"  	c None",
". 	c #000000",
"+ 	c #ACACB8",
"@ 	c #545460",
"# 	c #444454",
"$ 	c #FFFFFF",
"% 	c #BCBCD2",
"& 	c #A4A4B4",
"* 	c #929296",
"= 	c #DADAEA",
"- 	c #A2A2B4",
"; 	c #8C8CA6",
"> 	c #1C1C24",
", 	c #2E2E3E",
"' 	c #00000E",
") 	c #00000C",
"! 	c #000010",
"~ 	c #D8D8EE",
"{ 	c #48506C",
"] 	c #02021B",
"^ 	c #5A5E7A",
"/ 	c #26263E",
"( 	c #404058",
"_ 	c #000018",
": 	c #303048",
"< 	c #646478",
"[ 	c #9696B0",
"} 	c #A8A8B8",
"| 	c #404050",
"1 	c #A4A4B8",
"2 	c #787894",
"3 	c #000012",
"4 	c #6A6A8C",
"5 	c #58607A",
"6 	c #989CAE",
"7 	c #8894B4",
"8 	c #F3F3F3",
"9 	c #BCBCCC",
"0 	c #00000A",
"a 	c #32364E",
"b 	c #5C5C64",
"c 	c #76768A",
"d 	c #5E6280",
"e 	c #000019",
"f 	c #8692B0",
"g 	c #00002A",
"h 	c #EEF4FF",
"i 	c #8C90B2",
"j 	c #6A6A7A",
"k 	c #9A9AAC",
"l 	c #AEAEC6",
"m 	c #3C4462",
"n 	c #B0C2E0",
"o 	c #000046",
"p 	c #E2EAFF",
"q 	c #969AC4",
"r 	c #CECED4",
"s 	c #E6E8E6",
"t 	c #68688A",
"u 	c #3C4056",
"v 	c #2E3246",
"w 	c #CCCCD4",
"x 	c #74748C",
"y 	c #2E3652",
"z 	c #15204B",
"A 	c #8686B0",
"B 	c #BCCCF8",
"C 	c #7C7CAA",
"D 	c #8898C6",
"E 	c #4C5C8A",
"F 	c #98A8D2",
"G 	c #687698",
"H 	c #EDEDED",
"I 	c #7E7E9C",
"J 	c #0A0A1E",
"K 	c #02071B",
"L 	c #52525A",
"M 	c #323654",
"N 	c #00001F",
"O 	c #DAE4FA",
"P 	c #DAE8FF",
"Q 	c #9AAAD6",
"R 	c #667AA8",
"S 	c #3E8EC6",
"T 	c #000A3E",
"U 	c #445884",
"V 	c #222650",
"W 	c #7C849C",
"X 	c #0E0E27",
"Y 	c #3A3A54",
"Z 	c #0A0A1F",
"` 	c #848EA6",
" .	c #7482AE",
"..	c #687AAA",
"+.	c #54BAFF",
"@.	c #0574B7",
"#.	c #60D2FF",
"$.	c #020C3F",
"%.	c #C2CEF6",
"&.	c #8C94B8",
"*.	c #F8F8F2",
"=.	c #9EA2C0",
"-.	c #44445E",
";.	c #000006",
">.	c #FAF6F0",
",.	c #7882A2",
"'.	c #607298",
").	c #506090",
"!.	c #92FEFF",
"~.	c #74E0FF",
"{.	c #2682BA",
"].	c #00002E",
"^.	c #C2C2F0",
"/.	c #7078A0",
"(.	c #5A6280",
"_.	c #1E2238",
":.	c #ECECEC",
"<.	c #B6B6D8",
"[.	c #2E3A60",
"}.	c #36466E",
"|.	c #6276A0",
"1.	c #8494C6",
"2.	c #92E4FF",
"3.	c #BCC8E4",
"4.	c #EAF6FF",
"5.	c #787E92",
"6.	c #44506E",
"7.	c #10102C",
"8.	c #14142C",
"9.	c #9A9AA2",
"0.	c #808094",
"a.	c #7E8292",
"b.	c #A6B4D8",
"c.	c #5A5A7C",
"d.	c #8492B8",
"e.	c #7686AE",
"f.	c #7280A4",
"g.	c #485480",
"h.	c #18284C",
"i.	c #7C809E",
"j.	c #3C3C58",
"k.	c #767A8E",
"l.	c #565668",
"m.	c #363E52",
"n.	c #3E4662",
"o.	c #3A425E",
"p.	c #7C869C",
"q.	c #B2B4C2",
"r.	c #8A94AE",
"s.	c #54627E",
"t.	c #2A3452",
"u.	c #D6DCEA",
"v.	c #BFC4C9",
"w.	c #C6C6C6",
"x.	c #707080",
"y.	c #4C546E",
"z.	c #30304C",
"A.	c #222232",
"B.	c #282C46",
"C.	c #000024",
"D.	c #626A84",
"E.	c #EBEBEB",
"F.	c #6C7896",
"G.	c #383C4A",
"H.	c #808AA0",
"I.	c #8088A0",
"J.	c #161A32",
"K.	c #000016",
"L.	c #2E3248",
"M.	c #090912",
"N.	c #000007",
"O.	c #323242",
"P.	c #000008",
"Q.	c #5E667A",
"R.	c #586080",
"S.	c #363658",
"T.	c #6E7286",
"U.	c #BCC2CE",
"V.	c #7684A4",
"W.	c #FFFFF8",
"X.	c #00001B",
"Y.	c #E2E2F2",
"Z.	c #9E9EB4",
"`.	c #A0A0B0",
" +	c #000020",
".+	c #2E3250",
"++	c #0E122A",
"@+	c #2A2A46",
"#+	c #3E4660",
"$+	c #94949C",
"%+	c #707088",
"&+	c #9E9EAA",
"*+	c #60647A",
"=+	c #28304A",
"-+	c #000017",
";+	c #464A5E",
">+	c #2A2E48",
",+	c #00001D",
"'+	c #00000D",
")+	c #1A1A2E",
"!+	c #40445C",
"~+	c #080C20",
"{+	c #1A1E32",
"]+	c #14182C",
"  . + @ #   . $ % & * = - ; .   ",
"  > , ' ) ! ~ { ] ^ / ( _ : < [ ",
"  } | 1 2 3 4 5 6 7 8 $ 3 9 0 a ",
"  b c d e $ $ f g h $ $ i j k   ",
". $ l m $ n o   p q r s $ t u v ",
"w x y $ z A B C D E F G H I J K ",
"L M N $ O P Q R S T U V N $ W X ",
"Y Z $ $ `  ...+.@.#.$.%.&.*.=.-.",
";.! $ >.,.'.).!.~.{.].^./.$ (._.",
":.$ <.$ [.}.|.1.2.3.4.5.6.$ 7.8.",
"9.0.a.$ b.  c.d.e.f.g.h.$ i.j.k.",
"l.m.n.o.$ p.q.r.s.t.u.v.w.x.y.z.",
"A.e B.C.D.E.$ F.G.H.$ 8 I.J.K.L.",
"M.N.O.P.Q.R.S.T.U.V.W.$ X.. Y.e ",
". Z.;.`. +  .+++@+#+0 $+%+&+*+=+",
"  -+;+>+,+'+  )+!+~+] {+_.  ]+  "};
