/* XPM */
static char * ion16_regtest_xpm[] = {
"16 16 191 2",
"  	c None",
". 	c #144A62",
"+ 	c #092339",
"@ 	c #12445B",
"# 	c #152D39",
"$ 	c #0A263E",
"% 	c #152834",
"& 	c #071722",
"* 	c #184152",
"= 	c #1C4950",
"- 	c #081B32",
"; 	c #0B2F40",
"> 	c #1E4356",
", 	c #081E31",
"' 	c #030C19",
") 	c #071828",
"! 	c #051426",
"~ 	c #081E3B",
"{ 	c #040E21",
"] 	c #082038",
"^ 	c #06121F",
"/ 	c #12293C",
"( 	c #071E2A",
"_ 	c #07162A",
": 	c #010611",
"< 	c #05101C",
"[ 	c #000204",
"} 	c #02050A",
"| 	c #030B1C",
"1 	c #020B18",
"2 	c #051026",
"3 	c #030D14",
"4 	c #15242B",
"5 	c #8BD7FF",
"6 	c #0F2C3B",
"7 	c #FFFFFF",
"8 	c #041019",
"9 	c #01050A",
"0 	c #02040B",
"a 	c #030507",
"b 	c #12212B",
"c 	c #162531",
"d 	c #03090C",
"e 	c #02081B",
"f 	c #2E3B49",
"g 	c #050E28",
"h 	c #E0FFFF",
"i 	c #849EA1",
"j 	c #041023",
"k 	c #02060E",
"l 	c #020407",
"m 	c #0A141E",
"n 	c #1B2F3D",
"o 	c #04151C",
"p 	c #02090F",
"q 	c #040C20",
"r 	c #182140",
"s 	c #0F2534",
"t 	c #0E212F",
"u 	c #08121C",
"v 	c #C5DCFF",
"w 	c #719A9D",
"x 	c #6F8081",
"y 	c #040F1F",
"z 	c #040F1B",
"A 	c #111A27",
"B 	c #020511",
"C 	c #0C182D",
"D 	c #122D3C",
"E 	c #0E3079",
"F 	c #04122E",
"G 	c #152140",
"H 	c #182847",
"I 	c #030A17",
"J 	c #020B1A",
"K 	c #0E181E",
"L 	c #08263B",
"M 	c #040F26",
"N 	c #020A1A",
"O 	c #114492",
"P 	c #09266B",
"Q 	c #0561FF",
"R 	c #0C212F",
"S 	c #04112D",
"T 	c #071A40",
"U 	c #85A3A9",
"V 	c #01040B",
"W 	c #010614",
"X 	c #0A2A5D",
"Y 	c #04121F",
"Z 	c #0BC7FF",
"` 	c #017CFF",
" .	c #1E657C",
"..	c #030B23",
"+.	c #0E1825",
"@.	c #0F1E2D",
"#.	c #A7B6B7",
"$.	c #14315E",
"%.	c #061D51",
"&.	c #122E42",
"*.	c #0AD9FF",
"=.	c #054082",
"-.	c #08CCFF",
";.	c #0F2F43",
">.	c #104383",
",.	c #041020",
"'.	c #051229",
").	c #02040E",
"!.	c #030D15",
"~.	c #0C1926",
"{.	c #12374B",
"].	c #94BCBE",
"^.	c #061A3B",
"/.	c #020715",
"(.	c #041122",
"_.	c #08235E",
":.	c #0752C3",
"<.	c #041343",
"[.	c #05153B",
"}.	c #040F24",
"|.	c #030B1A",
"1.	c #060D12",
"2.	c #051223",
"3.	c #070C1B",
"4.	c #051A3E",
"5.	c #030F31",
"6.	c #071A44",
"7.	c #030E23",
"8.	c #122B3D",
"9.	c #08111A",
"0.	c #16212F",
"a.	c #020616",
"b.	c #08233D",
"c.	c #041015",
"d.	c #041026",
"e.	c #8AA6AB",
"f.	c #22394A",
"g.	c #06193D",
"h.	c #05122E",
"i.	c #040C24",
"j.	c #040B2D",
"k.	c #9DBCE6",
"l.	c #040B18",
"m.	c #0D293B",
"n.	c #02070F",
"o.	c #030E1B",
"p.	c #0F1E27",
"q.	c #051123",
"r.	c #051318",
"s.	c #06151F",
"t.	c #9FB2B5",
"u.	c #0B182D",
"v.	c #A5D7DC",
"w.	c #162333",
"x.	c #020A18",
"y.	c #082125",
"z.	c #091622",
"A.	c #050F21",
"B.	c #030C14",
"C.	c #020611",
"D.	c #0F1E31",
"E.	c #040E15",
"F.	c #06101B",
"G.	c #091839",
"H.	c #9FB1B6",
"I.	c #65717A",
"J.	c #010206",
"K.	c #061326",
"L.	c #0D151D",
"M.	c #020713",
"N.	c #020910",
"O.	c #02050E",
"P.	c #08141F",
"Q.	c #050F20",
"R.	c #0B2F33",
"S.	c #020510",
"T.	c #0B292C",
"U.	c #122337",
"V.	c #081721",
"W.	c #030C1A",
"X.	c #040A11",
"Y.	c #010308",
"Z.	c #010208",
"`.	c #121525",
" +	c #010209",
".+	c #01030A",
"++	c #010309",
"@+	c #0A0F1B",
"#+	c #01040D",
"$+	c #070E18",
"%+	c #010105",
"  . +   @ #   $ % & * = -   ;   ",
"> , ' & ) ! ~ {     ] ^ / ( _ : ",
"< [ } | 1 2 3 4 5 6 7 7 8 9 0 a ",
"b   c d e 7 7 f g h 7 i j k   l ",
"m n o p   q r s t u v w x y z A ",
"    B 7 C D   E F G H I   J I K ",
"L M     N   O P Q   R S T U p V ",
"W   7 7   X Y Z `  .    ..7 I +.",
"@.  #.  $.%.&.*.=.-.;.>.,.  '.).",
"!.~.{.].^./.(._.:.<.S [.}.7 |.1.",
"  2.  7 3.  4.5.6.7.8.9.7 0.a.  ",
"b.c.d.  e.f.g.h.i.j.k.    l.m.n.",
"o.p.q.r.s.7 t.u.W   7 v.y w.x.y.",
"z.A.B.C.D.E.F.  7 G.H.I.J.  K.L.",
"M.I N.O.C.C.P.Q.R.} S.T.U.V.W.J.",
"  X.Y.Z.`.   +.+++    @+#+$+%+  "};
