/* XPM */
static char * ion16_xpm[] = {
"16 16 74 1",
" 	c None",
".	c #0D1229",
"+	c #0D132A",
"@	c #0E142C",
"#	c #0D132B",
"$	c #0E142D",
"%	c #0F1630",
"&	c #0F1832",
"*	c #101834",
"=	c #0F152F",
"-	c #111B38",
";	c #111C3A",
">	c #545C72",
",	c #8E93A2",
"'	c #1D2744",
")	c #FFFFFF",
"!	c #BEC0C8",
"~	c #101935",
"{	c #4C5771",
"]	c #142244",
"^	c #9298A8",
"/	c #101833",
"(	c #192749",
"_	c #15254A",
":	c #16264C",
"<	c #C9CCD4",
"[	c #DCDEE3",
"}	c #D5D7DC",
"|	c #111A37",
"1	c #D5D7DD",
"2	c #414D69",
"3	c #172951",
"4	c #182B54",
"5	c #142346",
"6	c #0F1732",
"7	c #152549",
"8	c #192D57",
"9	c #1A305B",
"0	c #206EA0",
"a	c #132142",
"b	c #FDFDFD",
"c	c #0E132B",
"d	c #FEFEFE",
"e	c #16264B",
"f	c #182B53",
"g	c #1A2F5B",
"h	c #238CC0",
"i	c #238CC1",
"j	c #238BBF",
"k	c #2F3D5F",
"l	c #238BC0",
"m	c #238ABF",
"n	c #142243",
"o	c #172950",
"p	c #1A305C",
"q	c #2176A9",
"r	c #DEDFE4",
"s	c #374361",
"t	c #142345",
"u	c #152346",
"v	c #B4B8C3",
"w	c #D0D2D9",
"x	c #E0E1E5",
"y	c #0E152E",
"z	c #101934",
"A	c #384360",
"B	c #122042",
"C	c #7D8597",
"D	c #0E152F",
"E	c #686F82",
"F	c #A2A6B2",
"G	c #2D3651",
"H	c #D0D1D6",
"I	c #0F162F",
" .....+@@#..... ",
"....$%&**&%$....",
"...=*-;>,')!=...",
"..=~;)){]^))~=..",
".@/;)(_::_<[}*$.",
".%|12:3443:5)-%.",
"+6;)7389083_ab&+",
"c/d)efghij4:])*c",
"c/))kfglhmf:n)*c",
"+6;)7o8pq837ad6+",
".%|rseoffoet)|%.",
".@/;)u7ee7vwx/@.",
"..yz;))ABC))~D..",
"...y/|;EFG)Hy...",
"....@I6//6%@....",
" .....+cc+..... "};
