/* XPM */
static char * ion16_testnet_xpm[] = {
"16 16 81 1",
" 	c None",
".	c #26367B",
"+	c #26387E",
"@	c #2A3884",
"#	c #273678",
"$	c #27367B",
"%	c #2A3C84",
"&	c #2D428D",
"*	c #2D4596",
"=	c #304899",
"-	c #2D4290",
";	c #28367B",
">	c #2A3F8A",
",	c #334EA5",
"'	c #3354AE",
")	c #3C5DB7",
"!	c #D2EDCC",
"~	c #3351AE",
"{	c #F9F9F9",
"]	c #7E7248",
"^	c #2A3F8D",
"/	c #304B9C",
"(	c #E4E4EA",
"_	c #FFFFFF",
":	c #3F2D03",
"<	c #E7F9AB",
"[	c #878D9F",
"}	c #304B9F",
"|	c #B7D8CF",
"1	c #3F6FDB",
"2	c #4272E1",
"3	c #F0F0F3",
"4	c #E4E4E7",
"5	c #151E3C",
"6	c #120621",
"7	c #90783C",
"8	c #457BF0",
"9	c #4881F9",
"0	c #3C69CF",
"a	c #27397E",
"b	c #4B87FC",
"c	c #4E8DED",
"d	c #57F978",
"e	c #4B87F9",
"f	c #457BF3",
"g	c #3963C6",
"h	c #F3F3F6",
"i	c #2D4896",
"j	c #28397E",
"k	c #2A3981",
"l	c #BABDC6",
"m	c #695D42",
"n	c #695A42",
"o	c #695D3F",
"p	c #4272E4",
"q	c #3C66CC",
"r	c #30489C",
"s	c #E1F9A2",
"t	c #695A45",
"u	c #4881FC",
"v	c #51B1C6",
"w	c #3F6FDE",
"x	c #C6C9D2",
"y	c #6F96F6",
"z	c #3C69D2",
"A	c #FCFCFC",
"B	c #304EA5",
"C	c #C6A866",
"D	c #635121",
"E	c #2A3C87",
"F	c #F3F6F6",
"G	c #3660C6",
"H	c #96BAED",
"I	c #2D3F8D",
"J	c #091533",
"K	c #C6C6CF",
"L	c #998754",
"M	c #EDEDED",
"N	c #27367E",
"O	c #273981",
"P	c #2B3C84",
" .....+@@+..... ",
"#$$$%&*==*-%$$$;",
"#$$>=,')!~{]^$$;",
"#$>/'(_:<[__}^$;",
"#%='_|1221345=%;",
"#&,672899820_,-;",
"a*'_18bcdef1ghij",
"k=l_29cmno9pq_rk",
"k=__s9cntoupq_rk",
"a*'_1fevmefwg_ij",
"#-,xypfuufpzAB-;",
"#%='_01ppwCDhrE;",
"#$^}'_FGqH__}I$;",
"#$$^r,'JKL_MIN$;",
"#$$$E-irri-E$$$;",
" $$$$$OPPO$$$$$ "};
