/* XPM */
static char * ion20_xpm[] = {
"20 20 71 1",
" 	c None",
".	c #0D1229",
"+	c #0D132A",
"@	c #0E132B",
"#	c #0E142C",
"$	c #0E152E",
"%	c #0F1630",
"&	c #0F1732",
"*	c #0F1832",
"=	c #0E152D",
"-	c #0F1731",
";	c #101834",
">	c #101A36",
",	c #111B38",
"'	c #111B39",
")	c #111934",
"!	c #111C3A",
"~	c #2C3651",
"{	c #FFFFFF",
"]	c #111A37",
"^	c #121D3B",
"/	c #545F77",
"(	c #142345",
"_	c #142244",
":	c #C4C7D0",
"<	c #152448",
"[	c #15254A",
"}	c #16264B",
"|	c #18264A",
"1	c #FAFAFB",
"2	c #F6F7F8",
"3	c #E7E8EC",
"4	c #152549",
"5	c #16274D",
"6	c #172950",
"7	c #172A52",
"8	c #9498A6",
"9	c #121D3C",
"0	c #182C55",
"a	c #192E58",
"b	c #182C56",
"c	c #132142",
"d	c #767C8F",
"e	c #FBFBFC",
"f	c #1A2F5B",
"g	c #238BBF",
"h	c #227DB0",
"i	c #101A37",
"j	c #333C55",
"k	c #1F6091",
"l	c #238CC1",
"m	c #19305A",
"n	c #16264C",
"o	c #FAFBFB",
"p	c #696F82",
"q	c #DBDCE1",
"r	c #4E5A77",
"s	c #206A9B",
"t	c #1A3661",
"u	c #F6F6F8",
"v	c #707587",
"w	c #238ABF",
"x	c #151E3B",
"y	c #B2B6C2",
"z	c #FCFCFC",
"A	c #CDCFD5",
"B	c #677086",
"C	c #C2C6CF",
"D	c #CCCFD6",
"E	c #8C91A0",
"F	c #6C7181",
" ......+@##@+...... ",
".....@$%&**&%$@.....",
"....=-;>,'',>)-=....",
"...$*>!~{{{{{{{*$...",
"..=*]^{{/((_{{{]*=..",
".@->^{:<[}}[|{1{>-@.",
".$;!2345677654_{8;$.",
"+%>9{<570aab75<c{>%+",
"@&,de[60fgghb6[_{i&@",
"#*j{{}7akllgm7n(op*#",
"#*q{{r7asllgt7n(uv*#",
"@&,{{[6bfggwb6[_{x&@",
"+%>9{<57baab75<c{>%+",
".$;!{y45677654_zA;$.",
".@->^{B<[nn[<CD{>-@.",
"..=*]^{{_((_{{{]*=..",
"...$*>!E{{{{{{{*$...",
"....=-;>,'',>F-=....",
".....@$%&**&%$@.....",
" ......+@##@+...... "};
