/* XPM */
static char * ion20_regtest_xpm[] = {
"20 20 311 2",
"  	c None",
". 	c #124359",
"+ 	c #166379",
"@ 	c #1A3843",
"# 	c #0E3144",
"$ 	c #124B71",
"% 	c #092337",
"& 	c #092F46",
"* 	c #1E3D4B",
"= 	c #175885",
"- 	c #104556",
"; 	c #10455D",
"> 	c #134564",
", 	c #12416F",
"' 	c #0B2E3F",
") 	c #0C2431",
"! 	c #07202A",
"~ 	c #07131C",
"{ 	c #050F18",
"] 	c #05161C",
"^ 	c #01050A",
"/ 	c #020812",
"( 	c #03080E",
"_ 	c #051020",
": 	c #0F1F2D",
"< 	c #071B33",
"[ 	c #040A14",
"} 	c #040D1E",
"| 	c #020A1A",
"1 	c #040A18",
"2 	c #030814",
"3 	c #040D1A",
"4 	c #04121C",
"5 	c #030811",
"6 	c #0F2E33",
"7 	c #010609",
"8 	c #051224",
"9 	c #03070D",
"0 	c #12393D",
"a 	c #102432",
"b 	c #030919",
"c 	c #122134",
"d 	c #071A26",
"e 	c #092747",
"f 	c #04121B",
"g 	c #020813",
"h 	c #040D22",
"i 	c #030A19",
"j 	c #02060D",
"k 	c #030914",
"l 	c #121E29",
"m 	c #030C14",
"n 	c #01020B",
"o 	c #11242B",
"p 	c #06172B",
"q 	c #07182D",
"r 	c #05142F",
"s 	c #030E1D",
"t 	c #0A1821",
"u 	c #040F1F",
"v 	c #B4E6EB",
"w 	c #FFFFFF",
"x 	c #8B9D9E",
"y 	c #09151E",
"z 	c #020714",
"A 	c #040C1B",
"B 	c #02090C",
"C 	c #010209",
"D 	c #061328",
"E 	c #040B11",
"F 	c #030913",
"G 	c #0A1520",
"H 	c #01040D",
"I 	c #355062",
"J 	c #03091A",
"K 	c #02071B",
"L 	c #0D1E31",
"M 	c #789598",
"N 	c #8DA1A3",
"O 	c #0C2D2D",
"P 	c #1B2F3D",
"Q 	c #020A0E",
"R 	c #0C2634",
"S 	c #081D32",
"T 	c #040D25",
"U 	c #030B19",
"V 	c #051325",
"W 	c #0B1823",
"X 	c #030B1D",
"Y 	c #0C182A",
"Z 	c #1C2D3F",
"` 	c #113157",
" .	c #9EB6B7",
"..	c #68A5B9",
"+.	c #071F2D",
"@.	c #05111E",
"#.	c #010409",
"$.	c #02070E",
"%.	c #061325",
"&.	c #010510",
"*.	c #000104",
"=.	c #F5FFFF",
"-.	c #051A38",
";.	c #122738",
">.	c #071A4C",
",.	c #06153A",
"'.	c #010311",
").	c #071F3D",
"!.	c #061638",
"~.	c #06162A",
"{.	c #0B162F",
"].	c #020510",
"^.	c #122030",
"/.	c #020716",
"(.	c #12203D",
"_.	c #051430",
":.	c #020A19",
"<.	c #04123D",
"[.	c #020613",
"}.	c #01061C",
"|.	c #040717",
"1.	c #0B3071",
"2.	c #051742",
"3.	c #040D28",
"4.	c #0D1722",
"5.	c #D1F1F5",
"6.	c #0C1C2A",
"7.	c #050D1C",
"8.	c #02040E",
"9.	c #030B12",
"0.	c #040D14",
"a.	c #22384C",
"b.	c #0A2F57",
"c.	c #061C37",
"d.	c #051440",
"e.	c #05143C",
"f.	c #15FFFF",
"g.	c #062045",
"h.	c #050D19",
"i.	c #030B2A",
"j.	c #1B2C3B",
"k.	c #020814",
"l.	c #020710",
"m.	c #010205",
"n.	c #0F2433",
"o.	c #030C18",
"p.	c #0A183A",
"q.	c #040C1F",
"r.	c #061227",
"s.	c #0A375F",
"t.	c #117BC3",
"u.	c #14FFFF",
"v.	c #0EFFFF",
"w.	c #040C1E",
"x.	c #030715",
"y.	c #102135",
"z.	c #071A3D",
"A.	c #1A2337",
"B.	c #010309",
"C.	c #142731",
"D.	c #07151E",
"E.	c #A3AEAF",
"F.	c #7F97BC",
"G.	c #010726",
"H.	c #01041A",
"I.	c #0638A3",
"J.	c #017EFF",
"K.	c #053C7C",
"L.	c #073559",
"M.	c #040E37",
"N.	c #0D1E35",
"O.	c #153043",
"P.	c #05172A",
"Q.	c #142433",
"R.	c #000204",
"S.	c #010108",
"T.	c #133B3E",
"U.	c #182C3B",
"V.	c #86A5A8",
"W.	c #9AB1B6",
"X.	c #05133F",
"Y.	c #041139",
"Z.	c #027BFF",
"`.	c #0797FF",
" +	c #0689FF",
".+	c #041532",
"++	c #020C1B",
"@+	c #041128",
"#+	c #9EB5B9",
"$+	c #1D2B3B",
"%+	c #131F2D",
"&+	c #142B33",
"*+	c #05131C",
"=+	c #213D4D",
"-+	c #0F395C",
";+	c #CAF5FB",
">+	c #05152C",
",+	c #020C20",
"'+	c #081B43",
")+	c #041122",
"!+	c #010817",
"~+	c #041039",
"{+	c #1E4453",
"]+	c #082344",
"^+	c #0C1C29",
"/+	c #06122C",
"(+	c #08141F",
"_+	c #081E3E",
":+	c #03070F",
"<+	c #152731",
"[+	c #040C21",
"}+	c #030B1C",
"|+	c #394C5F",
"1+	c #86ABAD",
"2+	c #05172C",
"3+	c #1E3045",
"4+	c #040E21",
"5+	c #102134",
"6+	c #03103D",
"7+	c #051338",
"8+	c #061828",
"9+	c #020A1B",
"0+	c #0A1824",
"a+	c #112027",
"b+	c #020611",
"c+	c #081F31",
"d+	c #162934",
"e+	c #051528",
"f+	c #7A9DA1",
"g+	c #092456",
"h+	c #040F23",
"i+	c #01050E",
"j+	c #203349",
"k+	c #040F2E",
"l+	c #091236",
"m+	c #041121",
"n+	c #040C1A",
"o+	c #0F1E26",
"p+	c #0D1221",
"q+	c #030E1B",
"r+	c #051120",
"s+	c #071625",
"t+	c #020912",
"u+	c #01060F",
"v+	c #030A11",
"w+	c #6F8F94",
"x+	c #809EF9",
"y+	c #0E222F",
"z+	c #04142C",
"A+	c #020919",
"B+	c #98C5CC",
"C+	c #06182C",
"D+	c #030912",
"E+	c #040C1D",
"F+	c #05111D",
"G+	c #02030C",
"H+	c #0D292D",
"I+	c #040A11",
"J+	c #010508",
"K+	c #030B13",
"L+	c #030910",
"M+	c #040B22",
"N+	c #AEBABA",
"O+	c #E0FFFF",
"P+	c #01050F",
"Q+	c #010507",
"R+	c #020810",
"S+	c #01030B",
"T+	c #01040E",
"U+	c #02030D",
"V+	c #152734",
"W+	c #07172A",
"X+	c #020916",
"Y+	c #020509",
"Z+	c #02080E",
"`+	c #081C26",
" @	c #154050",
".@	c #05162A",
"+@	c #081B26",
"@@	c #030A1D",
"#@	c #0C1B2D",
"$@	c #0D1C27",
"%@	c #040D18",
"&@	c #000406",
"*@	c #040A17",
"=@	c #040A1A",
"-@	c #020915",
";@	c #030916",
">@	c #02050F",
",@	c #051620",
"'@	c #04111A",
")@	c #040E1F",
"!@	c #020B16",
"~@	c #081119",
"{@	c #051522",
"]@	c #02060E",
"^@	c #020306",
"/@	c #000108",
"(@	c #000107",
"_@	c #070D17",
":@	c #010104",
"<@	c #000106",
"[@	c #010208",
"}@	c #010306",
"|@	c #000206",
"1@	c #01010A",
"2@	c #040913",
"3@	c #010207",
"4@	c #010109",
"5@	c #010107",
"6@	c #010106",
"  .   + @ # $ %   & * = - ; > , ' ) *   ",
"! ~ { ] ^   / ( _ :   < [ } | 1 2 3 4 5 ",
"6 7   8 9 0 a b c d e f g h i j k l m n ",
"o p q r h s t u v w w w w w x y z A B C ",
"  D E F G H   w I J K L M N w O P m Q C ",
"R S 1 T U   w V W X Y Z ` w  ...+.@.#.$.",
"%.J &.*.=.w -.;.>.,.'.  ).!.~.w {.]./   ",
"4 ^./.(.  _.:.<.[.}.|.  1.2.3.4.5.6.7.8.",
"9.0.a.b.w c.d.e.      f.g.h.i.j.w k.l.m.",
"n.o.9.w w p.q.r.s.t.u.v.w.x.y.z.w A.0.B.",
"C.D.  E.  F.G.H.I.J.K.L.M.N.O.P.w Q.R.S.",
"T.A U.V.W.  X.Y.  Z.`. +  .+++@+#+$+  %+",
"&+*+=+-+;+  >+,+'+)+!+~+{+]+^+/+w (+_+:+",
"<+2 [+}+|+1+2+3+4+5+6+7+8+9+0+w a+b+^.n ",
"c+  } d+e+w f+g+h+i+j+k+l+w   w m+n+o+p+",
"q+r+s+t+u+v+w+w x+y+z+A+  B+w C+D+E+F+G+",
"H+I+J+].  K+L+M+N+  w w   O+w P+Q+P+R+S+",
"* C+T+U+V+W+X+Y+Z+`+ @.@+@C+@@Y+#@$@%@&@",
"*@=@i+  k -@;@>@  ,@W+'@)@!@2 ~@,@{@]@^@",
"  /@(@_@  :@<@[@}@|@1@2@3@(@4@5@S.3@6@  "};
