/* XPM */
static char * ion20_unittest_xpm[] = {
"20 20 294 2",
"  	c None",
". 	c #FFFFFF",
"+ 	c #000000",
"@ 	c #585858",
"# 	c #E2E2E2",
"$ 	c #B4B4B8",
"% 	c #E6E6EA",
"& 	c #7E7E82",
"* 	c #C2C2D6",
"= 	c #CECEE0",
"- 	c #88889C",
"; 	c #8C8CA0",
"> 	c #A2A2AA",
", 	c #9696A0",
"' 	c #B8B8C4",
") 	c #000008",
"! 	c #E0E0EC",
"~ 	c #545872",
"{ 	c #52526A",
"] 	c #9C9CB4",
"^ 	c #D2D2F0",
"/ 	c #4E5670",
"( 	c #AAAABE",
"_ 	c #565A74",
": 	c #0A0A1F",
"< 	c #000019",
"[ 	c #000012",
"} 	c #7C7C8C",
"| 	c #4C506A",
"1 	c #666676",
"2 	c #000007",
"3 	c #BABAD8",
"4 	c #8888A0",
"5 	c #565660",
"6 	c #12162E",
"7 	c #00001C",
"8 	c #404862",
"9 	c #1E2648",
"0 	c #1A1A38",
"a 	c #6A6A70",
"b 	c #161C32",
"c 	c #000027",
"d 	c #E6E6F6",
"e 	c #C4C4D4",
"f 	c #000028",
"g 	c #4C4C4C",
"h 	c #DEDEE2",
"i 	c #8C8CA8",
"j 	c #3A425E",
"k 	c #00001A",
"l 	c #343642",
"m 	c #000025",
"n 	c #9292A4",
"o 	c #00000D",
"p 	c #404056",
"q 	c #62667C",
"r 	c #5E627C",
"s 	c #C2C2C2",
"t 	c #868A9A",
"u 	c #464E68",
"v 	c #2C304C",
"w 	c #38385A",
"x 	c #E4E4E0",
"y 	c #000036",
"z 	c #AEB6DE",
"A 	c #00113D",
"B 	c #F3F3ED",
"C 	c #000010",
"D 	c #C6CADE",
"E 	c #000014",
"F 	c #2C3044",
"G 	c #B0B0BA",
"H 	c #767A8E",
"I 	c #4C506C",
"J 	c #727290",
"K 	c #808CB2",
"L 	c #000034",
"M 	c #4C5C84",
"N 	c #00003C",
"O 	c #00103E",
"P 	c #F3ECE8",
"Q 	c #ACACCE",
"R 	c #80889E",
"S 	c #8E8EA6",
"T 	c #3C445A",
"U 	c #747474",
"V 	c #C4C4D8",
"W 	c #8084A2",
"X 	c #7E7E9C",
"Y 	c #F2F8FF",
"Z 	c #B0B8CE",
"` 	c #7E8EBA",
" .	c #7882A2",
"..	c #000B40",
"+.	c #000029",
"@.	c #C4D0F8",
"#.	c #00001E",
"$.	c #36425C",
"%.	c #262E46",
"&.	c #12162A",
"*.	c #5E5E66",
"=.	c #3C3C56",
"-.	c #3C405E",
";.	c #222C42",
">.	c #5A6488",
",.	c #8896BA",
"'.	c #7A8AB4",
").	c #5C6C98",
"!.	c #8696BC",
"~.	c #6A82AA",
"{.	c #828EBE",
"].	c #3C4E78",
"^.	c #00003D",
"/.	c #DEE8FF",
"(.	c #909EBC",
"_.	c #AEAEC6",
":.	c #16162E",
"<.	c #181824",
"[.	c #1E2642",
"}.	c #041032",
"|.	c #1C2C4E",
"1.	c #7084AC",
"2.	c #7488B2",
"3.	c #4A6090",
"4.	c #34A4E4",
"5.	c #2C9AD8",
"6.	c #126094",
"7.	c #00074A",
"8.	c #343462",
"9.	c #C8D4FC",
"0.	c #505C7E",
"a.	c #AAAED0",
"b.	c #363A58",
"c.	c #14142C",
"d.	c #000006",
"e.	c #54546C",
"f.	c #00001F",
"g.	c #FAFAF2",
"h.	c #30305A",
"i.	c #A2AAD8",
"j.	c #3E5480",
"k.	c #245C98",
"l.	c #0C7CB9",
"m.	c #0071BD",
"n.	c #50AAE4",
"o.	c #A6AAD8",
"p.	c #4C5078",
"q.	c #E8E8E1",
"r.	c #4E5678",
"s.	c #000017",
"t.	c #C6D0F4",
"u.	c #E4E4E4",
"v.	c #54608C",
"w.	c #243250",
"x.	c #084490",
"y.	c #3296CC",
"z.	c #B0BCE8",
"A.	c #80869C",
"B.	c #787CA6",
"C.	c #4A4A72",
"D.	c #32324A",
"E.	c #5E6682",
"F.	c #464A64",
"G.	c #2A2A3A",
"H.	c #6E7CA4",
"I.	c #000847",
"J.	c #506494",
"K.	c #0075D7",
"L.	c #7AE8FF",
"M.	c #6CD4FF",
"N.	c #6A7AA8",
"O.	c #5E6278",
"P.	c #5E6C8E",
"Q.	c #444E62",
"R.	c #9698A4",
"S.	c #222222",
"T.	c #7A7A98",
"U.	c #586082",
"V.	c #2E365C",
"W.	c #243052",
"X.	c #868ABA",
"Y.	c #5E6C92",
"Z.	c #051841",
"`.	c #00004E",
" +	c #6278A6",
".+	c #182854",
"++	c #303E62",
"@+	c #506082",
"#+	c #2A365A",
"$+	c #323E62",
"%+	c #505872",
"&+	c #3A4258",
"*+	c #07071D",
"=+	c #303040",
"-+	c #383850",
";+	c #F4EEE8",
">+	c #464662",
",+	c #8A98C0",
"'+	c #26365C",
")+	c #000032",
"!+	c #6E72A6",
"~+	c #000031",
"{+	c #0C0C33",
"]+	c #243458",
"^+	c #162244",
"/+	c #FAFAFA",
"(+	c #222A48",
"_+	c #1A2240",
":+	c #000023",
"<+	c #303048",
"[+	c #E8E8F0",
"}+	c #F2F2FF",
"|+	c #9CA4C0",
"1+	c #C6C6E8",
"2+	c #94A0C4",
"3+	c #AAAEDA",
"4+	c #AEB2CE",
"5+	c #000015",
"6+	c #B2B2C0",
"7+	c #4E5A76",
"8+	c #F2F2E8",
"9+	c #CDCDC8",
"0+	c #A4A8C2",
"a+	c #7C8098",
"b+	c #ACACB8",
"c+	c #3A3A4E",
"d+	c #4C4C50",
"e+	c #828294",
"f+	c #626674",
"g+	c #7C849E",
"h+	c #AEB6CA",
"i+	c #424256",
"j+	c #3C4050",
"k+	c #222E54",
"l+	c #FFFFFC",
"m+	c #FFFFF4",
"n+	c #7A829E",
"o+	c #0C1428",
"p+	c #000018",
"q+	c #60606C",
"r+	c #1E2232",
"s+	c #0A0A0E",
"t+	c #2C2C40",
"u+	c #AAAAC2",
"v+	c #B0B0CA",
"w+	c #A8ACC2",
"x+	c #929EBA",
"y+	c #34385A",
"z+	c #F8F8F8",
"A+	c #F8F8F2",
"B+	c #00001D",
"C+	c #0F0F20",
"D+	c #6E6E82",
"E+	c #070B23",
"F+	c #8C8C92",
"G+	c #4A4A64",
"H+	c #262E44",
"I+	c #181C3A",
"J+	c #1A223C",
"K+	c #4C5470",
"L+	c #7A7A96",
"M+	c #3E4260",
"N+	c #363E5E",
"O+	c #9AA2BC",
"P+	c #FCFCFF",
"Q+	c #8E8EA8",
"R+	c #6A6E84",
"S+	c #080C21",
"T+	c #161626",
"U+	c #282C4A",
"V+	c #10102C",
"W+	c #62626E",
"X+	c #60647E",
"Y+	c #787890",
"Z+	c #747488",
"`+	c #40405A",
" @	c #101028",
".@	c #060B1C",
"+@	c #282838",
"@@	c #2E324C",
"#@	c #00002A",
"$@	c #484C66",
"%@	c #181C30",
"&@	c #22263A",
"*@	c #0C0C24",
"=@	c #12122A",
"-@	c #666A7E",
";@	c #363652",
">@	c #00051A",
",@	c #161A34",
"'@	c #121630",
")@	c #0E122C",
"!@	c #34384E",
"~@	c #00051E",
"  . + @ + # $ % &   *   @ + + = - ;     ",
"  > , ' ) ! ~ { ] ^ / + . ( _ : < [ } | ",
"  1 2 3 4 5 6 7 8 9 0   a b c   d e   f ",
"  g h i j k l m .   . . . . . n o p q r ",
"  s t u v w . x . y z A . . B C D < E F ",
"+ G H I J . . . K L M N O . P . Q R S T ",
"U V W X Y . . Z `  ...+.@.#.. . $.%.  &.",
"*.=.-.;.. >.,.'.).!.~.{.].^./.(.. k _.:.",
"<.< [.}.. |.1.2.3.4.5.6.7.8.9.0.. a.b.c.",
"d.e.f.. g.h.i.j.k.l.m.n.. . o.p.q.r.s.s.",
"+ ) t.u.  . v.w.x.y.. . z.A.B.C.. D.E.F.",
"+ . G.. . y H.I.J.K.L.M.N.O.P.Q.. R.  m ",
"S.T.U.V.. W.X.Y.Z.`. +.+++@+#+$+. %+&+*+",
"  =+-+#.  ;+>+,+'+)+!+~+{+]+^+/+(+_+:+<+",
"[++ }+|+1+. . 2+3+4+5+6+7+. 8+9+0+a+b+c+",
"d+e+f+%+  g+. . h+i+j+k+l+. m+n+o+p+q+r+",
"s+t+E u+v+w+x+y+. . . z+A+. . B+C++ D+E+",
"2 + F+G+H+I+J+K+L+M+N+k . . O++ P+Q+<+f.",
"  + R+S+T+:.< k U+V+7 + W+X+Y+Z+`+5+ @.@",
"  +@@@#@$@%@&@s.*@=@-@;@>@,@'@)@p+!@~@  "};
