/* XPM */
static char * ion20_testnet_xpm[] = {
"20 20 50 1",
" 	c None",
".	c #27367B",
"+	c #2A3C84",
"@	c #2A3F8A",
"#	c #2D428D",
"$	c #2D4290",
"%	c #304899",
"&	c #304BA2",
"*	c #304EA5",
"=	c #2A3C87",
"-	c #2D4596",
";	c #3354AE",
">	c #000C2D",
",	c #FFFFFF",
"'	c #3351A8",
")	c #B7D2E1",
"!	c #E7CC84",
"~	c #3C69D2",
"{	c #3C66CC",
"]	c #5D7ED5",
"^	c #3F6CD5",
"/	c #4272E1",
"(	c #4275E7",
"_	c #3960C6",
":	c #334EA5",
"<	c #457EF6",
"[	c #4884FF",
"}	c #A2C3E7",
"|	c #EAEDF0",
"1	c #3357B4",
"2	c #E7E7ED",
"3	c #4B8AF6",
"4	c #51ABCC",
"5	c #667227",
"6	c #4E90EA",
"7	c #695A45",
"8	c #695D3F",
"9	c #2D4B9F",
"0	c #C9B478",
"a	c #ABAEBD",
"b	c #5AEA5D",
"c	c #3F6CD8",
"d	c #486FCF",
"e	c #E1FCBD",
"f	c #3C63C9",
"g	c #3F3006",
"h	c #426CD2",
"i	c #334EA8",
"j	c #2D4896",
"k	c #F3F3F6",
"                    ",
"                    ",
"  .....+@##@+.....  ",
"  ...+$%&**&%$+...  ",
"  ..=-*;>,,,,,-=..  ",
"  .+-'),!~~{,,'-+.  ",
"  .$*],^/((/^_,:$.  ",
"  +%;,^(<[[<(^}|%+  ",
"  @&12/<3453</{,&@  ",
"  #*,,([6778[(~,:#  ",
"  #9,,([6778[(~,:#  ",
"  @&0a/<3b83</{,&@  ",
"  +%;,^(<[[<(cd,%+  ",
"  .$*e,^/((/cf,:$.  ",
"  .+-'g,h~~{,,ij+.  ",
"  ..=-:;k,,,,,j=..  ",
"  ...+$%&::&%$+...  ",
"  .....+@##@+.....  ",
"                    ",
"                    "};
