/* XPM */
static char * ion32_regtest_xpm[] = {
"32 32 690 2",
"  	c None",
". 	c #0F3C52",
"+ 	c #145266",
"@ 	c #146186",
"# 	c #1A474B",
"$ 	c #2DC8FD",
"% 	c #172E38",
"& 	c #244A5A",
"* 	c #0B2F40",
"= 	c #3DF9FF",
"- 	c #16597E",
"; 	c #092230",
"> 	c #1A494D",
", 	c #1C7BA0",
"' 	c #1B3F4D",
") 	c #235B63",
"! 	c #3C8BA2",
"~ 	c #37FDFF",
"{ 	c #1C7FB7",
"] 	c #0A233C",
"^ 	c #0E384C",
"/ 	c #17364A",
"( 	c #2388C1",
"_ 	c #0A2D47",
": 	c #06151F",
"< 	c #061A23",
"[ 	c #145C8F",
"} 	c #1B7B9D",
"| 	c #0B2843",
"1 	c #060B12",
"2 	c #0E1F2D",
"3 	c #0E3858",
"4 	c #092038",
"5 	c #010307",
"6 	c #101723",
"7 	c #051020",
"8 	c #051122",
"9 	c #0E2B30",
"0 	c #0A2331",
"a 	c #10405C",
"b 	c #155E8E",
"c 	c #0D2F4D",
"d 	c #010507",
"e 	c #000004",
"f 	c #000002",
"g 	c #0A2A44",
"h 	c #1C7CA0",
"i 	c #092039",
"j 	c #224251",
"k 	c #092843",
"l 	c #0C3649",
"m 	c #0B2E45",
"n 	c #06121F",
"o 	c #01040B",
"p 	c #000001",
"q 	c #010103",
"r 	c #010106",
"s 	c #000206",
"t 	c #04080F",
"u 	c #030C1A",
"v 	c #020814",
"w 	c #01030C",
"x 	c #01040D",
"y 	c #01030B",
"z 	c #05122B",
"A 	c #06182F",
"B 	c #02050F",
"C 	c #030A14",
"D 	c #02050B",
"E 	c #020B12",
"F 	c #020915",
"G 	c #02040C",
"H 	c #02060B",
"I 	c #06162A",
"J 	c #070C17",
"K 	c #285771",
"L 	c #0A293C",
"M 	c #020810",
"N 	c #030713",
"O 	c #131F2B",
"P 	c #09131D",
"Q 	c #04131D",
"R 	c #0E2832",
"S 	c #020613",
"T 	c #020B1E",
"U 	c #175F97",
"V 	c #030912",
"W 	c #010615",
"X 	c #131B2A",
"Y 	c #020714",
"Z 	c #03050A",
"` 	c #030712",
" .	c #0B2A46",
"..	c #265767",
"+.	c #0D3450",
"@.	c #040B13",
"#.	c #02040E",
"$.	c #020307",
"%.	c #05151F",
"&.	c #030C13",
"*.	c #000203",
"=.	c #020510",
"-.	c #010206",
";.	c #040E1F",
">.	c #166380",
",.	c #124F79",
"'.	c #103043",
").	c #05152B",
"!.	c #07121D",
"~.	c #040C16",
"{.	c #061824",
"].	c #031128",
"^.	c #040F1A",
"/.	c #060F1C",
"(.	c #0A1724",
"_.	c #103655",
":.	c #6B7C80",
"<.	c #1C2444",
"[.	c #050F17",
"}.	c #041323",
"|.	c #030F18",
"1.	c #020309",
"2.	c #051A26",
"3.	c #03080E",
"4.	c #082121",
"5.	c #060A12",
"6.	c #000102",
"7.	c #082024",
"8.	c #030A10",
"9.	c #020513",
"0.	c #030A17",
"a.	c #020917",
"b.	c #1D3544",
"c.	c #040C14",
"d.	c #59868E",
"e.	c #FFFFFF",
"f.	c #96B5B6",
"g.	c #4D787F",
"h.	c #010108",
"i.	c #010609",
"j.	c #0F1220",
"k.	c #12373A",
"l.	c #0F1E27",
"m.	c #02030E",
"n.	c #111A24",
"o.	c #030E16",
"p.	c #06131D",
"q.	c #061A31",
"r.	c #040D1C",
"s.	c #7E9EBC",
"t.	c #8AB1B4",
"u.	c #D1FFFF",
"v.	c #95B0B1",
"w.	c #B9CECF",
"x.	c #6E9CA3",
"y.	c #030E1F",
"z.	c #11192F",
"A.	c #02060E",
"B.	c #000205",
"C.	c #030A11",
"D.	c #000107",
"E.	c #071733",
"F.	c #101B25",
"G.	c #1F3947",
"H.	c #1A303E",
"I.	c #1C3545",
"J.	c #072540",
"K.	c #020B22",
"L.	c #2B4070",
"M.	c #8DA1A2",
"N.	c #A7B5B8",
"O.	c #051022",
"P.	c #051126",
"Q.	c #041331",
"R.	c #02071A",
"S.	c #051032",
"T.	c #030D26",
"U.	c #4B6F72",
"V.	c #A3B5B5",
"W.	c #EFFDFF",
"X.	c #020615",
"Y.	c #061B26",
"Z.	c #051121",
"`.	c #13383C",
" +	c #02050E",
".+	c #080A1A",
"++	c #0C2332",
"@+	c #0A121A",
"#+	c #1D3442",
"$+	c #11445C",
"%+	c #0B3444",
"&+	c #06172A",
"*+	c #092A3A",
"=+	c #050E1C",
"-+	c #071025",
";+	c #121A3E",
">+	c #010410",
",+	c #0A1A2A",
"'+	c #020827",
")+	c #0A1528",
"!+	c #142936",
"~+	c #07111A",
"{+	c #16303F",
"]+	c #9EB0B4",
"^+	c #BCE2E8",
"/+	c #6DA5AD",
"(+	c #0D3454",
"_+	c #0B2F4C",
":+	c #040F1B",
"<+	c #0B101A",
"[+	c #080A1C",
"}+	c #030B15",
"|+	c #071726",
"1+	c #02080E",
"2+	c #182836",
"3+	c #030B1E",
"4+	c #051127",
"5+	c #8CAEB3",
"6+	c #80979A",
"7+	c #122235",
"8+	c #0A1928",
"9+	c #0F2136",
"0+	c #274556",
"a+	c #0B2D68",
"b+	c #020A14",
"c+	c #060C12",
"d+	c #0D1E31",
"e+	c #213D4D",
"f+	c #0D3251",
"g+	c #555B62",
"h+	c #010209",
"i+	c #071D2A",
"j+	c #204860",
"k+	c #030C20",
"l+	c #04122A",
"m+	c #01040C",
"n+	c #A1B5BB",
"o+	c #E4FFFF",
"p+	c #162C43",
"q+	c #1D404F",
"r+	c #183F55",
"s+	c #2A6C81",
"t+	c #185CB7",
"u+	c #091E56",
"v+	c #0B2F5D",
"w+	c #061D4A",
"x+	c #192645",
"y+	c #0D2632",
"z+	c #182847",
"A+	c #051224",
"B+	c #020711",
"C+	c #020516",
"D+	c #10192B",
"E+	c #040F1F",
"F+	c #030915",
"G+	c #0A1420",
"H+	c #34E9FF",
"I+	c #1D78AD",
"J+	c #020A1C",
"K+	c #0F162C",
"L+	c #01030E",
"M+	c #3A3E4D",
"N+	c #040F30",
"O+	c #0B1924",
"P+	c #0C2F4E",
"Q+	c #166BB5",
"R+	c #1663A6",
"S+	c #071D4B",
"T+	c #030E2F",
"U+	c #0E2836",
"V+	c #020B1A",
"W+	c #030F1A",
"X+	c #071F30",
"Y+	c #07121B",
"Z+	c #124E77",
"`+	c #082541",
" @	c #041018",
".@	c #040B12",
"+@	c #104757",
"@@	c #071F2C",
"#@	c #040D1E",
"$@	c #051528",
"%@	c #87ADB3",
"&@	c #05132A",
"*@	c #030B28",
"=@	c #09286B",
"-@	c #051A44",
";@	c #071B4A",
">@	c #040F38",
",@	c #010826",
"'@	c #03103A",
")@	c #020B28",
"!@	c #1C2A40",
"~@	c #071C3F",
"{@	c #0D2535",
"]@	c #1358A6",
"^@	c #0A2B57",
"/@	c #122737",
"(@	c #030B23",
"_@	c #8FA1A2",
":@	c #72ADB8",
"<@	c #082343",
"[@	c #031825",
"}@	c #030916",
"|@	c #010208",
"1@	c #01020B",
"2@	c #214352",
"3@	c #135185",
"4@	c #01061F",
"5@	c #0A101A",
"6@	c #061E4C",
"7@	c #03091A",
"8@	c #041745",
"9@	c #051834",
"0@	c #030F24",
"a@	c #07C7FF",
"b@	c #05336F",
"c@	c #010613",
"d@	c #020A2B",
"e@	c #020828",
"f@	c #01071A",
"g@	c #030E27",
"h@	c #3886DC",
"i@	c #4374AB",
"j@	c #02070B",
"k@	c #172336",
"l@	c #02070A",
"m@	c #01060B",
"n@	c #0C2A2A",
"o@	c #152832",
"p@	c #082542",
"q@	c #030B26",
"r@	c #081322",
"s@	c #030816",
"t@	c #09B0FF",
"u@	c #13FFFF",
"v@	c #04ADFF",
"w@	c #1B667C",
"x@	c #26768C",
"y@	c #0A2238",
"z@	c #07174A",
"A@	c #030B2F",
"B@	c #031026",
"C@	c #020C24",
"D@	c #040E1E",
"E@	c #020E14",
"F@	c #0C1923",
"G@	c #051520",
"H@	c #0F1E2D",
"I@	c #9BA8A9",
"J@	c #84999D",
"K@	c #0B3149",
"L@	c #061B4A",
"M@	c #102D3E",
"N@	c #06338F",
"O@	c #135798",
"P@	c #06A5FF",
"Q@	c #05508F",
"R@	c #12E8FF",
"S@	c #15CAFF",
"T@	c #0FFFFF",
"U@	c #092B58",
"V@	c #082645",
"W@	c #05153C",
"X@	c #040F2A",
"Y@	c #040D23",
"Z@	c #020509",
"`@	c #070D17",
" #	c #0B292C",
".#	c #020713",
"+#	c #0C377C",
"@#	c #061934",
"##	c #15384C",
"$#	c #073DB5",
"%#	c #0AD5FF",
"&#	c #1F6897",
"*#	c #043169",
"=#	c #0188FF",
"-#	c #0394FF",
";#	c #0044FF",
">#	c #121F36",
",#	c #06183F",
"'#	c #061940",
")#	c #0A2742",
"!#	c #041020",
"~#	c #030921",
"{#	c #87A6AB",
"]#	c #05162A",
"^#	c #030E20",
"/#	c #1D3744",
"(#	c #0F3447",
"_#	c #000204",
":#	c #97A8AC",
"<#	c #0F4083",
"[#	c #0B3274",
"}#	c #081E55",
"|#	c #051E51",
"1#	c #1D3F4E",
"2#	c #054583",
"3#	c #0780FF",
"4#	c #0677F1",
"5#	c #07D1FF",
"6#	c #081831",
"7#	c #061B43",
"8#	c #051541",
"9#	c #041230",
"0#	c #0A172D",
"a#	c #EFFFFF",
"b#	c #A6FFFF",
"c#	c #071A38",
"d#	c #030B20",
"e#	c #01040E",
"f#	c #080A1D",
"g#	c #152531",
"h#	c #0C1523",
"i#	c #070F1B",
"j#	c #143F57",
"k#	c #648589",
"l#	c #A8B8BC",
"m#	c #7BA2A6",
"n#	c #051432",
"o#	c #020614",
"p#	c #040C1E",
"q#	c #030D1C",
"r#	c #082762",
"s#	c #082A7E",
"t#	c #236390",
"u#	c #0EA5FF",
"v#	c #10C8FF",
"w#	c #0875FF",
"x#	c #183748",
"y#	c #04122F",
"z#	c #020921",
"A#	c #01061E",
"B#	c #02081C",
"C#	c #07193B",
"D#	c #1E61B7",
"E#	c #2F435D",
"F#	c #030B1C",
"G#	c #02070D",
"H#	c #040B1C",
"I#	c #0B325B",
"J#	c #87C2CA",
"K#	c #050C14",
"L#	c #0A121D",
"M#	c #0B1A2D",
"N#	c #081223",
"O#	c #0D1A26",
"P#	c #04121F",
"Q#	c #0A2241",
"R#	c #08286B",
"S#	c #030F1E",
"T#	c #071A47",
"U#	c #0D1A25",
"V#	c #14243F",
"W#	c #0A1E2A",
"X#	c #071B40",
"Y#	c #070F1E",
"Z#	c #070915",
"`#	c #0A263A",
" $	c #081E3B",
".$	c #417CA3",
"+$	c #373C51",
"@$	c #04101C",
"#$	c #03102C",
"$$	c #0D1A24",
"%$	c #041034",
"&$	c #050F23",
"*$	c #071A44",
"=$	c #05123B",
"-$	c #020D26",
";$	c #010512",
">$	c #132937",
",$	c #0C212F",
"'$	c #071B27",
")$	c #155E98",
"!$	c #0A2D54",
"~$	c #ACB9B9",
"{$	c #061835",
"]$	c #041A1A",
"^$	c #1F5467",
"/$	c #1A748C",
"($	c #0B2F4F",
"_$	c #0D345E",
":$	c #145989",
"<$	c #010614",
"[$	c #061A35",
"}$	c #040F2F",
"|$	c #183A48",
"1$	c #082358",
"2$	c #051744",
"3$	c #04133A",
"4$	c #0C2331",
"5$	c #040F31",
"6$	c #183344",
"7$	c #060D13",
"8$	c #102F58",
"9$	c #0B2A51",
"0$	c #030917",
"a$	c #030910",
"b$	c #050A13",
"c$	c #092737",
"d$	c #0C1C29",
"e$	c #02080C",
"f$	c #030A0F",
"g$	c #020718",
"h$	c #0E182C",
"i$	c #0E1324",
"j$	c #ADB7B8",
"k$	c #2C5566",
"l$	c #06173C",
"m$	c #020822",
"n$	c #051338",
"o$	c #071D4A",
"p$	c #050E1A",
"q$	c #030D28",
"r$	c #071F47",
"s$	c #040D2C",
"t$	c #08203E",
"u$	c #246180",
"v$	c #658183",
"w$	c #05111E",
"x$	c #020616",
"y$	c #1B293B",
"z$	c #050F26",
"A$	c #020812",
"B$	c #111726",
"C$	c #071524",
"D$	c #01050B",
"E$	c #0C1623",
"F$	c #06152D",
"G$	c #0B2E3E",
"H$	c #020C14",
"I$	c #81ADB1",
"J$	c #050E26",
"K$	c #122738",
"L$	c #061A36",
"M$	c #020715",
"N$	c #041026",
"O$	c #02061D",
"P$	c #02051B",
"Q$	c #0B2C59",
"R$	c #040D15",
"S$	c #030913",
"T$	c #081E36",
"U$	c #030918",
"V$	c #020411",
"W$	c #000208",
"X$	c #101922",
"Y$	c #01020C",
"Z$	c #03091B",
"`$	c #051218",
" %	c #020913",
".%	c #030B12",
"+%	c #2C4988",
"@%	c #79A3AB",
"#%	c #1866AB",
"$%	c #05172F",
"%%	c #04142D",
"&%	c #09294B",
"*%	c #9EC5CA",
"=%	c #000105",
"-%	c #141726",
";%	c #030A19",
">%	c #01030A",
",%	c #162A34",
"'%	c #0B2327",
")%	c #050D1C",
"!%	c #020610",
"~%	c #141D2A",
"{%	c #010610",
"]%	c #091524",
"^%	c #07173A",
"/%	c #B5BCBC",
"(%	c #7995B2",
"_%	c #D9FFFF",
":%	c #82A4AB",
"<%	c #8B9E9E",
"[%	c #13232E",
"}%	c #040C1D",
"|%	c #000103",
"1%	c #000106",
"2%	c #1C4756",
"3%	c #081A37",
"4%	c #183D40",
"5%	c #0D3B50",
"6%	c #02080D",
"7%	c #122435",
"8%	c #134E86",
"9%	c #09212F",
"0%	c #030B21",
"a%	c #0A121C",
"b%	c #8897A4",
"c%	c #9EB5B6",
"d%	c #7BA3A9",
"e%	c #71979C",
"f%	c #051321",
"g%	c #020A11",
"h%	c #02040D",
"i%	c #172735",
"j%	c #0A0F19",
"k%	c #0A2B3C",
"l%	c #061526",
"m%	c #08111B",
"n%	c #091F37",
"o%	c #051621",
"p%	c #07152A",
"q%	c #1C3947",
"r%	c #04121B",
"s%	c #02050A",
"t%	c #070E17",
"u%	c #030B1D",
"v%	c #0D3962",
"w%	c #114258",
"x%	c #050A0B",
"y%	c #0A1827",
"z%	c #020D1C",
"A%	c #05182E",
"B%	c #113756",
"C%	c #3D4E82",
"D%	c #01040A",
"E%	c #010409",
"F%	c #07152B",
"G%	c #081D2F",
"H%	c #0A0D1D",
"I%	c #03070B",
"J%	c #040C1B",
"K%	c #020914",
"L%	c #02090F",
"M%	c #020409",
"N%	c #030B18",
"O%	c #131A2B",
"P%	c #07151E",
"Q%	c #041022",
"R%	c #131829",
"S%	c #123C3C",
"T%	c #152C3F",
"U%	c #082424",
"V%	c #0A151E",
"W%	c #0A2337",
"X%	c #071A2F",
"Y%	c #010107",
"Z%	c #001325",
"`%	c #050B12",
" &	c #080F1C",
".&	c #040B11",
"+&	c #040A17",
"@&	c #0D2A3C",
"#&	c #0A121E",
"$&	c #082038",
"%&	c #040B15",
"&&	c #040E1D",
"*&	c #05101C",
"=&	c #17394D",
"-&	c #071936",
";&	c #0A0F1E",
">&	c #0F121D",
",&	c #070D19",
"'&	c #172E39",
")&	c #1A313E",
"!&	c #081E2E",
"~&	c #01050E",
"{&	c #000209",
"]&	c #000307",
"^&	c #11111D",
"/&	c #070918",
"(&	c #02050C",
"_&	c #0B0E1B",
":&	c #020407",
"<&	c #111C25",
"[&	c #010308",
"}&	c #000207",
"|&	c #01030D",
"1&	c #0B2424",
"2&	c #030810",
"3&	c #111B24",
"4&	c #03090E",
"5&	c #040910",
"6&	c #16212F",
"7&	c #0E0E1D",
"8&	c #070715",
"9&	c #080819",
"0&	c #041328",
"a&	c #111524",
"b&	c #04040F",
"c&	c #020506",
"d&	c #0B0E18",
"e&	c #0D0D1C",
"f&	c #000104",
"g&	c #040412",
"    . + @ #     $ % & *   = - ; >   , ' )   ! ~ { ]     ^ /     ",
"  (   _ : < [ } | 1   2 3 4 5 6 7 8 9 0 a b c d e f g h i j k   ",
"  l m n o p q r s t u   v w x y   z   A B C D       E F G H I J ",
"K L M N O P         Q R S   T   U 4 V W X Y Z `  ...+.@.#.  V $.",
"%.&.*.=.H -.;.>.,.'.).!.~.  {.].^./.(.  _.:.<.  [.}.|.w 1.2.3.  ",
"4.5.6.7.8.    9.0.a.b.c.  d.e.  e.e.e.e.e.e.f.g.  0.3.h.  d i.j.",
"k.l.  m.n.o.p.  q.T r.s.e.e.t.u.e.v.e.  e.w.x.e.y.z.A.B.  C.A.D.",
"  E.F.  G.H.I.J.K.L.M.N.e.O.P.Q.R.S.T.U.e.V.e.W.X.  Y.Z.n `. +.+",
"++@+#+$+%+&+*+=+  e.e.-+;+>+,+'+)+!+~+{+e.]+^+  /+(+_+r.:+A.<+[+",
"    }+|+1+2+3+4+5+6+7+  8+  : 9+0+a+b+c+d+e+f+e.e.g+=. +3.h+  i+",
"    j+k+9.l+m+n+o+p+q+r+  s+t+u+v+w+x+y+z+A+B+C+    =.D+E+F+G+  ",
"  H+I+J+K+L+M+e.e.N+O+P+Q+R+S+T+U+V+W+X+Y+  v   Z+e.  `+ @.@-.  ",
"+@@@#@6.  $@  %@&@*@  =@-@;@>@,@'@)@!@~@{@]@^@/@(@_@:@<@C.1.Y [@",
"}@|@1@x 2@3@e.e.4@5@6@7@8@9@0@  a@  b@c@d@e@f@g@  h@e.i@j@k@$.l@",
"m@  n@o@p@e.e.e.    q@  r@s@t@u@v@w@x@y@  z@  A@B@C@e.e.D@E@F.  ",
"F@2+G@H@e.I@e.e.J@K@L@  M@N@O@P@Q@R@S@T@U@V@W@  X@  e.e.` Y@Z@`@",
" #.#  1+  e.  e.e.  +#@###$#%#&#*#=#-#;#>#,#'#)#!#~#  {#]#^#5   ",
"/#  (#_#  :#e.e.e.<#[#}#|#1#2#3#4#  5#  6#7#8#9#0#  a#b#c#d#e#f#",
"g#7 h#i#j#k#l#m#n#T+o#p#q#r#s#t#u#v#w#x#y#z#A#B#C#D#e.E#F#0.G#  ",
"     +  H#I#J#e.K#L#M#u N#O#P#Q#R#S#T#U#V#W#    X#e.e.Y#1+x Z#  ",
"    `#     $.$e.+$    @$#$$$%$&$*$=$-$;$>$,$'$)$!$e.~$  {$5   ]$",
"^$/$($_$:$A.<$e.e.>$  [$}$|$1$8#2$3$4$5$  6$  7$e.e.8$9$0$a$b$  ",
"c$d$e$f$g$h$  i$j$e.k$l$m$n$o$p$R.q$r$s$l+t$u$e.  v$w$x$y$z$A$B$",
"C$}+D$E$A+F$G$H$  e.I$J$  K$L$M$  N$O$P$  e.e.e.e.Q$R$S$T$U$V$W$",
"e#9.X$Y$w Z$`$ %.%+%e.e.@%#%$%%%&%W+    e.  *%e.B =%-%;%0$>%,%W$",
"'%)%!%~%  m+{%H ]%  ^%e.e./%e.e.(%e.e._%e.:%e.<%[%6.  }%_#1.|%1%",
"2%3%B 4%5%  x 6%7%8%9%0%a%    e.e.e.e.b%c%d%e%e.f%5   g%h%i%j%  ",
"k%l%m%n%o%p%q%r%s%t%x c@u%v%w%x%  y%z%A%B%e.C%9.D%E%o./ F%G%g%H%",
"I%M J%K%L%M%o N%y   L+O%P%Q%B R%S%T%s%h+y w U%-.  0$V%W%X%D Y%Z%",
"  `%3. &.&3.  +&m.@&#&  $&%&&&*&=&-&;&  >&,&'&< )&!&~&=.{&]&^&  ",
"  /&1.1%E%(&K%w _&:&  <&[&}&1@h.|&e#1&2&  3&4&>%h+D.5&6&{&      ",
"        7&8&  9&  0&  a&    b&    c&0&d&        e&    f&g&      "};
