/* XPM */
static char * ion32_testnet_xpm[] = {
"32 32 163 2",
"  	c None",
". 	c #27367B",
"+ 	c #27397E",
"@ 	c #2A3981",
"# 	c #2A3C84",
"$ 	c #2A3C87",
"% 	c #2A3F8A",
"& 	c #2D428D",
"* 	c #2D4290",
"= 	c #2D4593",
"- 	c #273981",
"; 	c #2A3F8D",
"> 	c #2D4293",
", 	c #2D4596",
"' 	c #304899",
") 	c #304B9C",
"! 	c #304B9F",
"~ 	c #2D3F8D",
"{ 	c #233778",
"] 	c #2D4896",
"^ 	c #304EA2",
"/ 	c #334EA5",
"( 	c #3351A8",
"_ 	c #3351AB",
": 	c #3354AB",
"< 	c #304BA2",
"[ 	c #F0FCBD",
"} 	c #485DAB",
"| 	c #30489C",
"1 	c #3354AE",
"2 	c #3657B1",
"3 	c #F9E4A2",
"4 	c #787E90",
"5 	c #FFFFFF",
"6 	c #D8DBDE",
"7 	c #5A4B1E",
"8 	c #423915",
"9 	c #030F30",
"0 	c #607ED5",
"a 	c #C0A563",
"b 	c #3966CC",
"c 	c #3C69CF",
"d 	c #3C66CF",
"e 	c #3C66CC",
"f 	c #7B8496",
"g 	c #819FF3",
"h 	c #9C8448",
"i 	c #3C69D2",
"j 	c #3F6CD8",
"k 	c #3F6FDB",
"l 	c #4E7BE1",
"m 	c #454E63",
"n 	c #27367E",
"o 	c #365AB7",
"p 	c #7EA5F9",
"q 	c #3F6FDE",
"r 	c #4272E4",
"s 	c #4275E7",
"t 	c #4275EA",
"u 	c #D2F3B7",
"v 	c #456CCF",
"w 	c #D8D8DE",
"x 	c #726336",
"y 	c #2D4899",
"z 	c #DBDEE4",
"A 	c #BDE1C9",
"B 	c #4272E1",
"C 	c #4578ED",
"D 	c #457BF3",
"E 	c #457EF6",
"F 	c #457BF0",
"G 	c #3963C6",
"H 	c #3C57AE",
"I 	c #8DABFF",
"J 	c #757E90",
"K 	c #4278EA",
"L 	c #4881F9",
"M 	c #4884FC",
"N 	c #4884FF",
"O 	c #6F93F0",
"P 	c #AEB1BD",
"Q 	c #C6C9D2",
"R 	c #4881FC",
"S 	c #4887FC",
"T 	c #4B8AF6",
"U 	c #4B8AF3",
"V 	c #4B87FC",
"W 	c #457EF3",
"X 	c #3F72DE",
"Y 	c #3F69D5",
"Z 	c #3C63C9",
"` 	c #E1E4E7",
" .	c #3657B4",
"..	c #F9F9F9",
"+.	c #4E90EA",
"@.	c #666F2A",
"#.	c #695D3F",
"$.	c #54D89F",
"%.	c #4B87F9",
"&.	c #FCE199",
"*.	c #EDDB9C",
"=.	c #151E3F",
"-.	c #999FAE",
";.	c #695D42",
">.	c #51C0BA",
",.	c #365DC3",
"'.	c #363F57",
").	c #2A3F87",
"!.	c #2D334E",
"~.	c #7B8499",
"{.	c #54CCA8",
"].	c #695A45",
"^.	c #696339",
"/.	c #D2D2D8",
"(.	c #233878",
"_.	c #57ED84",
":.	c #E1E1E4",
"<.	c #818796",
"[.	c #C0C6CF",
"}.	c #5DD848",
"|.	c #7E8193",
"1.	c #B7BAC3",
"2.	c #FCFCFC",
"3.	c #4B8DF0",
"4.	c #57E490",
"5.	c #667E1E",
"6.	c #4275E4",
"7.	c #7EA2F9",
"8.	c #7B6C3F",
"9.	c #4E9FDB",
"0.	c #3F6CD5",
"a.	c #4E576F",
"b.	c #A28D57",
"c.	c #937B3F",
"d.	c #3960C3",
"e.	c #304EA5",
"f.	c #9096A5",
"g.	c #D2E7D2",
"h.	c #C6E1D2",
"i.	c #F3F6F6",
"j.	c #665424",
"k.	c #BABDC6",
"l.	c #180C1B",
"m.	c #3F69CF",
"n.	c #BABDC9",
"o.	c #FCFCFF",
"p.	c #2D2106",
"q.	c #332109",
"r.	c #1B0C1E",
"s.	c #334EA8",
"t.	c #9CB7F9",
"u.	c #3C4563",
"v.	c #301E0C",
"w.	c #030C30",
"x.	c #C9CCD2",
"y.	c #EAFCB7",
"z.	c #DEDEE4",
"A.	c #D2D5D8",
"B.	c #2D4EA8",
"C.	c #D8C690",
"D.	c #DEE1E4",
"E.	c #121833",
"F.	c #273680",
"                                                                ",
"  . . . . . . . . . . + @ # $ $ $ $ # # + . . . . . . . . . .   ",
"  . . . . . . . . @ $ % & * = = = = * & % $ @ . . . . . . . .   ",
"  . . . . . . - $ ; > , ' ) ! ! ! ! ) ' , > ~ $ @ . . . . . . { ",
"  . . . . . @ % * ] ) ^ / ( _ : : _ ( / < [ } * % # . . . . . { ",
"  . . . . # % = | ^ ( 1 2 3 4 5 5 5 6 7 5 5 5 8 = ~ # . . . . { ",
"  . . . @ % = ) / : 2 9 5 5 5 5 5 5 5 5 5 5 5 5 ! , ~ # . . . { ",
"  . . - % = ) / 1 0 5 5 5 a b c c d e f 5 5 5 5 / ! = % @ . . { ",
"  . . $ * | / 1 g 5 5 h i j k k k k j l 5 5 5 5 m / | > $ n . { ",
"  . @ ~ ] ^ : o 5 5 p j q r s s t s r q j u v w 5 x ^ y & # . { ",
"  . $ > ) ( 2 z 5 A j B s C D E E D F t B k i G 5 5 H ! = $ . { ",
"  + % , ^ 1 I 5 J j B K D L M N N N L D K B j d O 5 P ^ y ; @ { ",
"  @ & ' / 2 Q 5 i q s D R S T U U T V R W K X Y Z ` 5 / | * # { ",
"  # * ) (  .5 ..j r C L S U +.@.#.#.$.%.L F r j e &.5 *.! = $ { ",
"  $ = ! _ =.5 -.k s D M T +.;.;.;.;.#.>.N W s k c ,.5 '.! = ).{ ",
"  $ = ! !.5 5 5 ~.t E N U {.;.].].;.#.^.M E K q i G 5 /.< , % (.",
"  $ = ! 5 5 5 5 5 t E N U _.;.].].;.#.#.M E K q i G 5 :.< , % (.",
"  $ = ! <.5 5 5 [.s D N U +.;.;.;.;.#.}.N W s k c G 5 |.! = ).{ ",
"  # * ) ( 1.5 2.j r F L %.3.4.#.#.#.5.%.L F 6.j e 7.5 8.! = $ { ",
"  # * | / 2 5 5 Y q t W R %.U 3.9.U %.M W K B 0.Z a.5 H | * # { ",
"  - % ] ^ 1 b.5 c.j B K W L N M M N R W C r j d d.5 5 e.y ~ @ { ",
"  . $ = ! (  .5 5 c k B K F W E E W F K r k i Z f.5 g.! = ).n { ",
"  . @ & y ^ 1 h.5 i.i j X 6.s K K s 6.B j i Z j.5 k.e.' & # . { ",
"  . n $ > | / 1 l.5 ..m.Y j k q q k j 0.n.5 5 5 o.( ) = ).+ . { ",
"  . . @ % , ! ( 1 p.5 5 q.e c i i c d r.5 5 5 5 s.! , ; @ . . { ",
"  . . . # ~ , ! / 1 t.5 5 5 2.u.v.w.x.5 5 5 5 5 ! , & # . . . { ",
"  . . . . # ~ , ) ^ ( 1 y.z.5 5 5 5 5 5 5 5 5 A., & # . . . . { ",
"  . . . . . # % > ' ! ^ ( _ 1 _ B.B._ ( C.D.E.= ; # . . . . . { ",
"  . . . . . . @ ).& = y | ! < ^ ^ < ! ) ' = & ).@ . . . . . . { ",
"  . . . . . . . n # ).~ * = = , , = = * ~ ).# + . . . . . . .   ",
"  . . . . . . . . . n @ # $ ).% % ).$ # @ n . . . . . . . . .   ",
"      . . . . . . . . . . . F.F.F.F.. . . . . . . . . . .       "};
