/* XPM */
static char * ion32_xpm[] = {
"32 32 167 2",
"  	c None",
". 	c #0C132A",
"+ 	c #0D1229",
"@ 	c #0D122A",
"# 	c #0E132B",
"$ 	c #0E142C",
"% 	c #0E142D",
"& 	c #0E152D",
"* 	c #0E152E",
"= 	c #0E122A",
"- 	c #0D132A",
"; 	c #0F152F",
"> 	c #0F1630",
", 	c #0F1731",
"' 	c #0F1732",
") 	c #0C112A",
"! 	c #0F162F",
"~ 	c #0F1833",
"{ 	c #101834",
"] 	c #101935",
"^ 	c #101936",
"/ 	c #101A36",
"( 	c #101833",
"_ 	c #111B38",
": 	c #111B39",
"< 	c #111C3A",
"[ 	c #1F2742",
"} 	c #999DA8",
"| 	c #4C5266",
"1 	c #0E152F",
"2 	c #101934",
"3 	c #141F3E",
"4 	c #A3A7B3",
"5 	c #FEFEFE",
"6 	c #FFFFFF",
"7 	c #D2D4DA",
"8 	c #BCBEC5",
"9 	c #111A37",
"0 	c #131E3D",
"a 	c #ECEDF0",
"b 	c #FEFFFF",
"c 	c #F4F5F6",
"d 	c #FDFDFD",
"e 	c #111C3B",
"f 	c #50586F",
"g 	c #E6E7EB",
"h 	c #243151",
"i 	c #142345",
"j 	c #142346",
"k 	c #142245",
"l 	c #CED1D8",
"m 	c #0F1631",
"n 	c #60677C",
"o 	c #313D5C",
"p 	c #152447",
"q 	c #152448",
"r 	c #152549",
"s 	c #15254A",
"t 	c #E4E5E8",
"u 	c #111B37",
"v 	c #232E4B",
"w 	c #152346",
"x 	c #15264A",
"y 	c #16274C",
"z 	c #16274D",
"A 	c #16284E",
"B 	c #16264B",
"C 	c #132245",
"D 	c #142143",
"E 	c #D8DAE0",
"F 	c #ABAEB9",
"G 	c #121D3C",
"H 	c #1D2B4C",
"I 	c #16264C",
"J 	c #172950",
"K 	c #172A51",
"L 	c #172A52",
"M 	c #FBFCFC",
"N 	c #1C2541",
"O 	c #0D132B",
"P 	c #0F1832",
"Q 	c #596177",
"R 	c #9DA3B2",
"S 	c #17284F",
"T 	c #182B53",
"U 	c #182C55",
"V 	c #182C56",
"W 	c #1A2647",
"X 	c #F0F1F3",
"Y 	c #121D3B",
"Z 	c #152347",
"` 	c #182B54",
" .	c #192D57",
"..	c #192E59",
"+.	c #192F5A",
"@.	c #EEEFF1",
"#.	c #101A37",
"$.	c #121D3D",
"%.	c #EFF0F2",
"&.	c #1B3966",
"*.	c #238BBF",
"=.	c #1E5F8F",
"-.	c #142244",
";.	c #4F5971",
">.	c #5E6578",
",.	c #F1F1F3",
"'.	c #F2F2F4",
").	c #1A305C",
"!.	c #238BC0",
"~.	c #1C4A77",
"{.	c #121F40",
"].	c #B8BBC4",
"^.	c #E4E6EA",
"/.	c #16274E",
"(.	c #1D4F7E",
"_.	c #238CC1",
":.	c #2389BD",
"<.	c #132142",
"[.	c #E7E8EB",
"}.	c #1D5080",
"|.	c #238ABE",
"1.	c #C1C3CB",
"2.	c #C1C6CF",
"3.	c #172951",
"4.	c #192E58",
"5.	c #1C4E7C",
"6.	c #BBBEC6",
"7.	c #ADB1BB",
"8.	c #FAFAFB",
"9.	c #192D56",
"0.	c #1B3C6A",
"a.	c #1F6798",
"b.	c #4A536C",
"c.	c #63697C",
"d.	c #E8EAED",
"e.	c #626A7F",
"f.	c #9298A9",
"g.	c #182C54",
"h.	c #162344",
"i.	c #182749",
"j.	c #152548",
"k.	c #F8F8F9",
"l.	c #212A45",
"m.	c #111C39",
"n.	c #2A3450",
"o.	c #132144",
"p.	c #CCCFD6",
"q.	c #B9BCC5",
"r.	c #71778A",
"s.	c #263353",
"t.	c #ECEDEF",
"u.	c #61687D",
"v.	c #D7D9DF",
"w.	c #1A2749",
"x.	c #C8CBD3",
"y.	c #17213F",
"z.	c #F6F6F7",
"A.	c #E4E6E9",
"B.	c #F2F3F5",
"C.	c #1B2543",
"D.	c #E6E7EA",
"E.	c #C8CAD0",
"F.	c #2A324C",
"G.	c #ADB0B9",
"H.	c #616678",
"I.	c #0E1129",
"J.	c #0E1329",
"    . + + + + + + + + + + + + + + + + + + + + + + + + + + @     ",
"  + + + + + + + + + @ # $ % & * * & % $ # @ + + + + + + + + +   ",
"= + + + + + + + - $ & ; > , ' ' ' ' , > ; & $ - + + + + + + + ) ",
"+ + + + + + + # & ! , ~ { ] ^ / / ^ ] { ~ , ! & # + + + + + + + ",
"+ + + + + + $ * , ( ] / _ : < < < < : _ [ } | , 1 $ + + + + + + ",
"+ + + + + $ ! ' 2 / _ < 3 4 5 6 6 6 6 7 6 6 6 8 ' ! $ + + + + + ",
"+ + + + $ ; ' ] 9 < 0 a 6 6 6 b c d 6 6 6 6 6 6 ] ' ! $ + + + + ",
"+ + + # * ' ] _ e f 6 6 g h i j j i k l 6 6 6 6 _ ] ' 1 # + + + ",
"+ + @ % m 2 9 < n 6 6 o p q r s s r q p 6 6 6 6 t u 2 , & - + + ",
"+ + $ ! ( / < v 6 6 w q x y z A A z y B q C D E 6 F / ( ! $ + + ",
"+ + % , ] _ G 6 6 H r I A J K L L K J A I r j D M 6 N ] , & @ + ",
"+ O 1 P / < Q 6 R q B S K T U V V U T K S I q k W 6 X / ~ ; # + ",
"+ $ > { _ Y d 6 Z x A K `  ...+.+... .` K A x p D @.6 #.{ > $ + ",
"+ % m ] : $.6 %.q I J T  .+.&.*.*.*.=. .T J y q -.;.6 >.] m % + ",
"+ % , ] : ,.6 '.r z K U ..).!.!.!.!.*.~.U K z r i {.6 ].] , & @ ",
"@ & , ] t 6 6 6 ^./.L V +.(.!._._.!.*.:.V L A s j <.6 [.^ ' & - ",
"@ & , ] 6 6 6 6 6 /.L U +.}.!._._.!.*.|.V L A s j <.6 [.^ ' & - ",
"+ % , ] 1.6 6 6 2.z 3.U 4.).!.!.!.!.*.5.U K z r i {.6 6.] , % @ ",
"+ $ > 2 _ 7.6 8.q I S T 9...0.*.*.*.a.9.T J I q -.b.6 c.] m % + ",
"+ $ > ( 9 Y 5 6 j s /.3.` 9.4.....4.9.` 3./.s Z D d.6 #.{ > $ + ",
"+ - * ' / < e.6 f.q B A 3.T g.U U g.T 3.A B q k h.6 c / P 1 O + ",
"+ + % m 2 _ G 6 6 i.q B z S 3.L L 3.S /.B j.i <.k.6 l.] , % + + ",
"+ + # ; P / m.n.6 6 k q s I z z z z I s q o.D p.6 q./ ~ ! # + + ",
"+ + + % > { 9 < r.6 6 s.j q r r r r q j b 6 6 6 t.9 { > % @ + + ",
"+ + + O * , 2 9 < u.6 6 v.w.k i i k -.x.6 6 6 6 9 2 , * # + + + ",
"+ + + + # 1 ' 2 9 m.y.z.6 6 6 M A.B.6 6 6 6 6 6 2 ' 1 $ + + + + ",
"+ + + + + $ 1 , { / _ < C.].6 6 6 6 6 D.6 6 6 E., 1 $ + + + + + ",
"+ + + + + + # * > P 2 / 9 _ : m.m.: _ 9 F.G.H.> * $ + + + + + + ",
"+ + + + + + + O % ; m ' ( 2 ] ] ] ] 2 ( ' m ; % O + + + + + + + ",
"  + + + + + + + + # % * ! > , , , , > ! * % # + + + + + + + +   ",
"  + + + + + + + + + + - # $ % % % % $ # - + + + + + + + + + +   ",
"      I.I.I.I.I.I.I.I.I.I.I.I.J.J.I.I.I.I.I.I.I.I.I.I.I.I.      "};
