/* XPM */
static char * ion32_unittest_xpm[] = {
"32 32 697 2",
"  	c None",
". 	c #262626",
"+ 	c #171717",
"@ 	c #000000",
"# 	c #BCBCC4",
"$ 	c #00000B",
"% 	c #303030",
"& 	c #AEAEAE",
"* 	c #4C4C4C",
"= 	c #FFFFFF",
"- 	c #F6F6F6",
"; 	c #7A7A7A",
"> 	c #DEDEDE",
", 	c #B0B0BC",
"' 	c #E0E0E4",
") 	c #EEF2FF",
"! 	c #C6CADE",
"~ 	c #5C5C74",
"{ 	c #02021A",
"] 	c #E8E8EC",
"^ 	c #FEFEFF",
"/ 	c #D0D8F0",
"( 	c #000009",
"_ 	c #D6D6EA",
": 	c #9292AA",
"< 	c #B8B8C0",
"[ 	c #EAEAFF",
"} 	c #C4C4E2",
"| 	c #CECEE6",
"1 	c #C6C6D8",
"2 	c #3C4056",
"3 	c #09091E",
"4 	c #A8A8B8",
"5 	c #7A7A92",
"6 	c #60647E",
"7 	c #000010",
"8 	c #84849C",
"9 	c #888888",
"0 	c #181820",
"a 	c #80849A",
"b 	c #24283C",
"c 	c #98A0B6",
"d 	c #000015",
"e 	c #4C4C58",
"f 	c #00000C",
"g 	c #B2B2D0",
"h 	c #98A0B8",
"i 	c #6A728C",
"j 	c #868AA6",
"k 	c #9494B2",
"l 	c #02021B",
"m 	c #B2B6D2",
"n 	c #6A6A6E",
"o 	c #A0A0B4",
"p 	c #2E3250",
"q 	c #0E122A",
"r 	c #4C4C66",
"s 	c #1E2236",
"t 	c #9E9EAE",
"u 	c #4A4E66",
"v 	c #4E4E4E",
"w 	c #BCBCCE",
"x 	c #000005",
"y 	c #A8A8B6",
"z 	c #9A9AAE",
"A 	c #6E6E82",
"B 	c #8A8A9E",
"C 	c #D6D6E8",
"D 	c #DEDEFC",
"E 	c #AEAEC6",
"F 	c #626680",
"G 	c #58607A",
"H 	c #444C6A",
"I 	c #000022",
"J 	c #8C90AC",
"K 	c #BCBCDA",
"L 	c #F6F6FF",
"M 	c #CCCCEA",
"N 	c #868692",
"O 	c #808086",
"P 	c #000B24",
"Q 	c #202030",
"R 	c #444458",
"S 	c #00000D",
"T 	c #CCCCDC",
"U 	c #BEBED6",
"V 	c #ACACBC",
"W 	c #2A3248",
"X 	c #000E35",
"Y 	c #BEBEBE",
"Z 	c #C2C2C8",
"` 	c #40404C",
" .	c #8C8C9A",
"..	c #26263E",
"+.	c #0C0C28",
"@.	c #42425A",
"#.	c #666A82",
"$.	c #000024",
"%.	c #1C1C38",
"&.	c #4C5072",
"*.	c #222A48",
"=.	c #2A2E50",
"-.	c #202C4C",
";.	c #26264C",
">.	c #4C4C5A",
",.	c #5A5A7C",
"'.	c #485072",
").	c #000A27",
"!.	c #AEB2BC",
"~.	c #646A84",
"{.	c #3E3E52",
"].	c #92929E",
"^.	c #A6A6AA",
"/.	c #565662",
"(.	c #181C32",
"_.	c #0D0D0D",
":.	c #78787E",
"<.	c #74788E",
"[.	c #8686A0",
"}.	c #50586C",
"|.	c #000A24",
"1.	c #9494A8",
"2.	c #58627C",
"3.	c #222242",
"4.	c #28284A",
"5.	c #D0D0DA",
"6.	c #E9E9E9",
"7.	c #BEBEC4",
"8.	c #B6BAD2",
"9.	c #000021",
"0.	c #DADADA",
"a.	c #AEAEB2",
"b.	c #444C62",
"c.	c #0A0E26",
"d.	c #000025",
"e.	c #747474",
"f.	c #A2A2A2",
"g.	c #444450",
"h.	c #181C30",
"i.	c #5A5E7C",
"j.	c #78809E",
"k.	c #6E7694",
"l.	c #323E5A",
"m.	c #E4E4EA",
"n.	c #F3F3F3",
"o.	c #EEEEEA",
"p.	c #EDEBEB",
"q.	c #98A0BE",
"r.	c #E2E2E8",
"s.	c #767A94",
"t.	c #282C42",
"u.	c #000031",
"v.	c #000026",
"w.	c #A4A4A4",
"x.	c #BCBCC0",
"y.	c #46464E",
"z.	c #090F27",
"A.	c #545876",
"B.	c #707492",
"C.	c #404866",
"D.	c #646E88",
"E.	c #CED3D3",
"F.	c #D8E2FF",
"G.	c #8C9EC2",
"H.	c #C6D0F0",
"I.	c #E0E0FF",
"J.	c #7C8CAE",
"K.	c #E5DFDB",
"L.	c #090917",
"M.	c #DEDEE4",
"N.	c #8E92AC",
"O.	c #3A3E56",
"P.	c #242842",
"Q.	c #18182C",
"R.	c #60606E",
"S.	c #8286A0",
"T.	c #727288",
"U.	c #5C647E",
"V.	c #94949C",
"W.	c #30304E",
"X.	c #3D4E70",
"Y.	c #ECECE7",
"Z.	c #F2FFFF",
"`.	c #000034",
" +	c #E6EEFF",
".+	c #00002E",
"++	c #ACB8E0",
"@+	c #586890",
"#+	c #203054",
"$+	c #00173D",
"%+	c #545474",
"&+	c #828EA8",
"*+	c #4C546E",
"=+	c #262A46",
"-+	c #303036",
";+	c #00152A",
">+	c #40405A",
",+	c #484860",
"'+	c #9A9AB8",
")+	c #B6BAD8",
"!+	c #DADAE8",
"~+	c #6E6E7E",
"{+	c #262A38",
"]+	c #E4E4DE",
"^+	c #EEF8FF",
"/+	c #E4F4FF",
"(+	c #B2B2DC",
"_+	c #A2A2B0",
":+	c #BCC6E8",
"<+	c #6676A0",
"[+	c #223258",
"}+	c #444872",
"|+	c #00000E",
"1+	c #4C4C68",
"2+	c #E8EEF0",
"3+	c #2C3052",
"4+	c #2C344E",
"5+	c #363646",
"6+	c #050509",
"7+	c #A0A0A4",
"8+	c #8C8C9C",
"9+	c #747896",
"0+	c #666684",
"a+	c #30344C",
"b+	c #FAFAFA",
"c+	c #8A8AB0",
"d+	c #B0B4C8",
"e+	c #8C9CC0",
"f+	c #6A72A2",
"g+	c #282C56",
"h+	c #566890",
"i+	c #3E5074",
"j+	c #000046",
"k+	c #8A8EC0",
"l+	c #DEE6FF",
"m+	c #AEBEE4",
"n+	c #384466",
"o+	c #5E7090",
"p+	c #505C80",
"q+	c #EBEBEB",
"r+	c #242C4C",
"s+	c #121A34",
"t+	c #16162A",
"u+	c #6A6A88",
"v+	c #12162A",
"w+	c #0A0A1E",
"x+	c #C2C2CA",
"y+	c #565E74",
"z+	c #1A1A24",
"A+	c #505674",
"B+	c #C0CCF2",
"C+	c #C6D2FE",
"D+	c #A0B4D8",
"E+	c #889AC4",
"F+	c #5E6290",
"G+	c #626886",
"H+	c #203058",
"I+	c #00003B",
"J+	c #6878A6",
"K+	c #00003C",
"L+	c #768AB4",
"M+	c #44547C",
"N+	c #00103B",
"O+	c #12122E",
"P+	c #686E84",
"Q+	c #424C6C",
"R+	c #101024",
"S+	c #B8B8C8",
"T+	c #000721",
"U+	c #787880",
"V+	c #8888A6",
"W+	c #4C5470",
"X+	c #141A34",
"Y+	c #8892BC",
"Z+	c #98A0CA",
"`+	c #9498B2",
" @	c #8698BE",
".@	c #7C88B8",
"+@	c #7682B2",
"@@	c #485C8A",
"#@	c #3A4E7E",
"$@	c #364A7C",
"%@	c #54688E",
"&@	c #000A3E",
"*@	c #62729E",
"=@	c #445A80",
"-@	c #30305A",
";@	c #AEAEC2",
">@	c #B2C0E2",
",@	c #060D31",
"'@	c #9898A8",
")@	c #5C6078",
"!@	c #34344C",
"~@	c #363A58",
"{@	c #424664",
"]@	c #262E4C",
"^@	c #F8F8F2",
"/@	c #646892",
"(@	c #8C98C0",
"_@	c #6A748E",
":@	c #566488",
"<@	c #54668C",
"[@	c #58608E",
"}@	c #3C5888",
"|@	c #1598F0",
"1@	c #1478B0",
"2@	c #0084D8",
"3@	c #ACECFF",
"4@	c #3A4A76",
"5@	c #000D47",
"6@	c #C6C6F0",
"7@	c #DADEFC",
"8@	c #AAB6DE",
"9@	c #6A729A",
"0@	c #727E9E",
"a@	c #495E8C",
"b@	c #7E7E8E",
"c@	c #707490",
"d@	c #0C1028",
"e@	c #1A1A32",
"f@	c #06061B",
"g@	c #20203E",
"h@	c #182042",
"i@	c #FAFCF4",
"j@	c #8E98B8",
"k@	c #64749C",
"l@	c #40527E",
"m@	c #2C3E68",
"n@	c #283A6E",
"o@	c #2E3C5E",
"p@	c #4EC6FF",
"q@	c #6ADAFF",
"r@	c #0069AF",
"s@	c #0038D4",
"t@	c #B6FFFF",
"u@	c #6492C6",
"v@	c #0D0D3F",
"w@	c #949CC6",
"x@	c #60729A",
"y@	c #6A789A",
"z@	c #5A688A",
"A@	c #101C3A",
"B@	c #F6F6F4",
"C@	c #9A9EAB",
"D@	c #7A7A86",
"E@	c #808498",
"F@	c #1C203A",
"G@	c #000624",
"H@	c #42425E",
"I@	c #0C0C20",
"J@	c #32426E",
"K@	c #364274",
"L@	c #001847",
"M@	c #00184B",
"N@	c #4278AE",
"O@	c #2488C0",
"P@	c #84FEFF",
"Q@	c #E2FFFF",
"R@	c #E6FFFF",
"S@	c #8AFAFF",
"T@	c #0679C0",
"U@	c #A0ACDC",
"V@	c #889CC8",
"W@	c #001246",
"X@	c #6C789E",
"Y@	c #525A80",
"Z@	c #181842",
"`@	c #EBEBE7",
" #	c #F8F4EC",
".#	c #747492",
"+#	c #182036",
"@#	c #091426",
"##	c #A0A0B0",
"$#	c #F6F6EE",
"%#	c #FEFEF2",
"&#	c #1E2E56",
"*#	c #303860",
"=#	c #506086",
"-#	c #566A96",
";#	c #001899",
">#	c #88F4FF",
",#	c #0072BA",
"'#	c #9CFAFF",
")#	c #90E2FF",
"!#	c #1878AE",
"~#	c #BCFFFF",
"{#	c #C2CCEA",
"]#	c #7888B0",
"^#	c #40405E",
"/#	c #202A42",
"(#	c #D0D0D4",
"_#	c #ACACC6",
":#	c #4E526E",
"<#	c #181C36",
"[#	c #1C1C20",
"}#	c #D8D8F2",
"|#	c #D5DEFF",
"1#	c #B0B6BC",
"2#	c #001245",
"3#	c #000A3B",
"4#	c #7488B2",
"5#	c #00124E",
"6#	c #D8E4FF",
"7#	c #B0FFFF",
"8#	c #0B5B9E",
"9#	c #A4FFFF",
"0#	c #CCFEFF",
"a#	c #DEE0F2",
"b#	c #B6C2EA",
"c#	c #64729A",
"d#	c #363656",
"e#	c #4C4E60",
"f#	c #071538",
"g#	c #7A82A2",
"h#	c #343C56",
"i#	c #12162C",
"j#	c #AEAEC8",
"k#	c #BEC2E0",
"l#	c #6E6E90",
"m#	c #FCFFFF",
"n#	c #586486",
"o#	c #000033",
"p#	c #D8D8FF",
"q#	c #00002A",
"r#	c #A0B4E2",
"s#	c #546894",
"t#	c #6C8EBE",
"u#	c #92FFFF",
"v#	c #88FEFF",
"w#	c #4CBCFC",
"x#	c #4E94D0",
"y#	c #7690BA",
"z#	c #8E9CC8",
"A#	c #7A829E",
"B#	c #4C5C80",
"C#	c #000C34",
"D#	c #6A7696",
"E#	c #BAC2E0",
"F#	c #ECF4FF",
"G#	c #14182C",
"H#	c #32324A",
"I#	c #1E2640",
"J#	c #202020",
"K#	c #A0A0AC",
"L#	c #8282A0",
"M#	c #4E4E6C",
"N#	c #00001C",
"O#	c #3A4264",
"P#	c #B0B0D6",
"Q#	c #9A9CB0",
"R#	c #687EA8",
"S#	c #000043",
"T#	c #4C507E",
"U#	c #262658",
"V#	c #768CBC",
"W#	c #1E3256",
"X#	c #747E9E",
"Y#	c #62769E",
"Z#	c #7482AC",
"`#	c #485A82",
" $	c #48547C",
".$	c #0E0E2B",
"+$	c #8C94B4",
"@$	c #8A92AC",
"#$	c #9E9EB2",
"$$	c #3A3A56",
"%$	c #000029",
"&$	c #606060",
"*$	c #C6C6DE",
"=$	c #52526E",
"-$	c #545462",
";$	c #AAACB8",
">$	c #F4FCFF",
",$	c #C4D0E2",
"'$	c #647098",
")$	c #8C9AB8",
"!$	c #1A2A4C",
"~$	c #667298",
"{$	c #A4B2D8",
"]$	c #B6BEEE",
"^$	c #8096C2",
"/$	c #707CA8",
"($	c #8C92AE",
"_$	c #7484AC",
":$	c #5A6C96",
"<$	c #485882",
"[$	c #344068",
"}$	c #000030",
"|$	c #3E466A",
"1$	c #8E96B4",
"2$	c #20243C",
"3$	c #585870",
"4$	c #262640",
"5$	c #0E162A",
"6$	c #9696A2",
"7$	c #727282",
"8$	c #5A5A78",
"9$	c #868AA8",
"0$	c #54607E",
"a$	c #5C5C5C",
"b$	c #CECEEC",
"c$	c #828CA8",
"d$	c #00003A",
"e$	c #3A3A52",
"f$	c #929AC4",
"g$	c #7080AE",
"h$	c #0D0D2F",
"i$	c #96A8CA",
"j$	c #303C62",
"k$	c #1A2C50",
"l$	c #162246",
"m$	c #1E2A4C",
"n$	c #7A86A6",
"o$	c #8488A6",
"p$	c #727A94",
"q$	c #090912",
"r$	c #22263A",
"s$	c #050B22",
"t$	c #64646E",
"u$	c #5A5E72",
"v$	c #62627C",
"w$	c #464850",
"x$	c #343C52",
"y$	c #52586C",
"z$	c #8A8EA0",
"A$	c #7884A8",
"B$	c #667290",
"C$	c #8A98BA",
"D$	c #9296AC",
"E$	c #6C7690",
"F$	c #8492B4",
"G$	c #AAAEDA",
"H$	c #9CA2B4",
"I$	c #5A628E",
"J$	c #E5E5E5",
"K$	c #98A0C9",
"L$	c #6E6E76",
"M$	c #3C4464",
"N$	c #5C5C7A",
"O$	c #090925",
"P$	c #484856",
"Q$	c #262636",
"R$	c #484C60",
"S$	c #1E2240",
"T$	c #0C1530",
"U$	c #364262",
"V$	c #595E75",
"W$	c #2E3A60",
"X$	c #202C52",
"Y$	c #162248",
"Z$	c #42506E",
"`$	c #5C688E",
" %	c #54648A",
".%	c #324466",
"+%	c #162448",
"@%	c #ECE6E6",
"#%	c #AAAAC8",
"$%	c #050E26",
"%%	c #2A2E48",
"&%	c #404058",
"*%	c #060616",
"=%	c #020211",
"-%	c #4A4A54",
";%	c #4C506A",
">%	c #242846",
",%	c #AAAEC8",
"'%	c #ECF2FF",
")%	c #E9E9E3",
"!%	c #FFFFFA",
"~%	c #000532",
"{%	c #303858",
"]%	c #242836",
"^%	c #161C2C",
"/%	c #16284C",
"(%	c #0E1A3E",
"_%	c #BABEC0",
":%	c #F1ECEC",
"<%	c #B0B8D4",
"[%	c #000020",
"}%	c #2E2E46",
"|%	c #5E5E66",
"1%	c #1C2034",
"2%	c #050B20",
"3%	c #484C5C",
"4%	c #5A5E78",
"5%	c #000036",
"6%	c #202842",
"7%	c #000827",
"8%	c #9696AA",
"9%	c #6A6A86",
"0%	c #7E82A6",
"a%	c #ECECE8",
"b%	c #CFCBCF",
"c%	c #EEEEE8",
"d%	c #EAE4DA",
"e%	c #5A6280",
"f%	c #00001B",
"g%	c #AAAABA",
"h%	c #DEDEEC",
"i%	c #141424",
"j%	c #000014",
"k%	c #747484",
"l%	c #22223A",
"m%	c #00001D",
"n%	c #747480",
"o%	c #343852",
"p%	c #4E5A76",
"q%	c #A4ACCA",
"r%	c #7C80A2",
"s%	c #E8E8E8",
"t%	c #000B20",
"u%	c #C4C4DC",
"v%	c #BABABE",
"w%	c #686878",
"x%	c #1E223C",
"y%	c #001020",
"z%	c #5E5E6E",
"A%	c #262A3E",
"B%	c #60606C",
"C%	c #E0E0F2",
"D%	c #0A1329",
"E%	c #08102E",
"F%	c #424E66",
"G%	c #5A6284",
"H%	c #2A3654",
"I%	c #0B1532",
"J%	c #001432",
"K%	c #C6CEEC",
"L%	c #C8D4F4",
"M%	c #A8B0CE",
"N%	c #111A3F",
"O%	c #9C9CB2",
"P%	c #383840",
"Q%	c #00001E",
"R%	c #4A4A4E",
"S%	c #848494",
"T%	c #0C0C21",
"U%	c #707080",
"V%	c #9C9CA2",
"W%	c #70748C",
"X%	c #0A0A1F",
"Y%	c #686C8A",
"Z%	c #1C1C30",
"`%	c #36364E",
" &	c #808CA8",
".&	c #606886",
"+&	c #F0F0F4",
"@&	c #787882",
"#&	c #545874",
"$&	c #787888",
"%&	c #545458",
"&&	c #32364A",
"*&	c #060A1E",
"=&	c #2E3248",
"-&	c #464E64",
";&	c #3C405A",
">&	c #606476",
",&	c #404456",
"'&	c #12162E",
")&	c #000008",
"!&	c #404054",
"~&	c #444862",
"{&	c #6E6E86",
"]&	c #545468",
"^&	c #62627A",
"/&	c #6E6E8C",
"(&	c #707082",
"_&	c #9696A8",
":&	c #7A7A94",
"<&	c #444860",
"[&	c #32364C",
"}&	c #0C0C24",
"|&	c #000018",
"1&	c #080820",
"2&	c #1A1E34",
"3&	c #2A2A3A",
"4&	c #464A64",
"5&	c #48485C",
"6&	c #2C2C3E",
"7&	c #0A0A24",
"8&	c #0E0E26",
"9&	c #000017",
"0&	c #060620",
"a&	c #10142E",
"b&	c #121630",
"c&	c #2E324C",
"d&	c #222A40",
"e&	c #0E122C",
"f&	c #262E40",
"g&	c #2A2E44",
"h&	c #0C1024",
"i&	c #000E2A",
"j&	c #090924",
"k&	c #060D26",
"l&	c #000D33",
"m&	c #000D31",
"n&	c #070D27",
"        . + @ # $ %   &   * = @ -   @ ; @ @ = > , @ ' @         ",
"    = = = ) ! ~ { @ ] = ^ / ( _ : < [ } | @ 1 2 3 4 5 6 7 = 8   ",
"  9 0 a b c d e f @ 7 g h i j k l d m 7 n o p q 7 r s f t @ u   ",
"  v w x y z A B C D E F G H I J K L M N O u P I Q R S T U V W X ",
"  @ Y Z `  ...+.@.#.$.%.&.*.=.-.;.>.,.'.).!.~.  @ {.].^.@ /.(.  ",
"  _.& :.<.[.}.|.@ 1.2.3.4.5.= 6.= = = = = = = 7.8.9.@ 0.a.b.c.d.",
"  e.f.g.h.i.j.k.@ 4 l.m.= n.= = = o.= = = = = p.q.@ = r.s.t.u.v.",
"  w.x.y.z.A.B.C.&.D.= = E.F.G.H.= I.J.= = = = K.L.T M.N.O.P.Q.  ",
"  R.S.T.U.  V.W.X.Y.= Z.`. +  .+++@+#+$+=   = = = %+&+*+=+  -+;+",
"  >+,+'+)+!+~+{+= ]+L ^+/+(+_+:+<+[+}+|+1+= = = = 2+3+*.4+@ 5+  ",
"@ 6+7+8+9+0+a+= b+= c+d+e+f+g+h+i+j+k+l+m+n+o+p+q+= r+s+t+u+v+w+",
"@ 9 x+y+=.z+A+= = B+C+D+E+F+G+H+I+J+K+L+M+N+O+P+Q+= = R+S+6 9.T+",
"  U+V+W+$.X+= = Y+Z+`+ @.@+@@@#@$@%@&@*@=@-@;@>@,@= =   '@)@q   ",
"@ !@~@{@]@  ^@m./@(@_@:@<@[@}@|@1@2@3@4@5@6@7@8@9@0@= a@b@c@d@$.",
"@ e@f@g@h@i@= = j@k@l@m@n@o@p@q@r@s@t@u@v@w@x@y@z@A@B@C@D@E@F@G@",
"  f H@I@= = = = = J@K@L@M@N@O@P@Q@R@S@T@U@V@W@X@Y@Z@`@ #[..#+#@#",
"  ##7 S = $#%#= = &#*#=#-#;#>#,#'#)#!#~#I {#]#1+^#/#= (#_#:#<#  ",
"  [#= }#|#= = = 1#2#3#4#5#6#7#8#t@S@9#0#a#b#c#d#e#f#  = g#h#i#  ",
"@ @ j#k#l#m#=   n#o#p#q#r#s#t#u#v#w#x#y#z#A#B#C#D#E#= F#G#H#I#  ",
"  J#K#L#M#N#= = O#  P#Q#R#S#T#U#V#W#  X#Y#Z#`# $.$= = +$@$#$$$%$",
"&$' *$=$-$;$>$= ,$'$  )$!$~${$]$^$/$($_$:$<$[$}$|$= = 1$2$3$4$5$",
"  6$7$8$7 9$0$  =   a$b$c$d$e$f$g$h$i$  j$k$l$m$= = n$o$p$q$r$s$",
". n t$u$v$w$x$y$= = z$A$B$C$D$E$F$G$H$I$h@S#v.= J$K$L$M$G N$F@O$",
"  P$Q$R$r$S$T$U$V$= = W$X$Y$Z$%$`$ %.%+%= = @%= = #%C.$%%%&%*%$.",
"  -$=%-%;%>%$.d ,%'%)%= !%~%{%]%^%/%(%_%= = :%= <%[%}%S @ |%1%2%",
"  3%3 4%5%6%7%$ 8%9%0%= = = ]+a%b%0.c%= = = d%= e%f%b$g%h%i%<#  ",
"  r$j%k%Q l%m%  n%o%p%q%r%= = = = = = s%b+  = = t%u%j%v%w%x%y%  ",
"      z%A%B%  C%>%D%E%F%G%H%I%J%K%L%%$M%N%= = v.@ 0.O%|%P%Q%m%  ",
"  R%S%T%Q%U%V%W%[%m%  X%Y%q#Z%m%`% &.&S @ +&@&#&$&%&&&*&=&-&;&  ",
"      >&  @ @ ,&'&j%)&!&~&{&]&^&  /&  (&_&:&<&d@$ l [&}&|&1&2&  ",
"  3&Z%N#4&5&6&h.7&8&9&0&d.a&b&Q%c&d&s+m%q i#e&(.f&P.  t.g&h&i&  ",
"      |&  j&  k&                          l&j&  m&  $.  n&      "};
