/* XPM */
static char * ion48_testnet_xpm[] = {
"48 48 222 2",
"  	c None",
". 	c #27367B",
"+ 	c #27397E",
"@ 	c #2A3981",
"# 	c #2A3C84",
"$ 	c #2A3C87",
"% 	c #2A3F87",
"& 	c #2A3F8A",
"* 	c #273981",
"= 	c #2D3F8D",
"- 	c #2D4290",
"; 	c #2D4293",
"> 	c #2D428D",
", 	c #2D4593",
"' 	c #2D4596",
") 	c #304899",
"! 	c #30489C",
"~ 	c #2A3F8D",
"{ 	c #304B9C",
"] 	c #304B9F",
"^ 	c #304EA2",
"/ 	c #304EA5",
"( 	c #334EA5",
"_ 	c #3351A8",
": 	c #3351AB",
"< 	c #3354AE",
"[ 	c #5A72C6",
"} 	c #030624",
"| 	c #4B4E63",
"1 	c #F6E4AE",
"2 	c #27367E",
"3 	c #304BA2",
"4 	c #3654B1",
"5 	c #CFE7CF",
"6 	c #0F1B39",
"7 	c #E7E7EA",
"8 	c #FFFFFF",
"9 	c #B4B7C0",
"0 	c #4E3F15",
"a 	c #060C2A",
"b 	c #2D4896",
"c 	c #635424",
"d 	c #B7D2E1",
"e 	c #F9F9F9",
"f 	c #848D9C",
"g 	c #90783F",
"h 	c #BDE1CC",
"i 	c #7296F6",
"j 	c #81A5FC",
"k 	c #EDF3A5",
"l 	c #423000",
"m 	c #FCFFFF",
"n 	c #728DDB",
"o 	c #3657B1",
"p 	c #7B6939",
"q 	c #6F5A24",
"r 	c #3966CC",
"s 	c #3C69D2",
"t 	c #3F69D5",
"u 	c #3F6CD5",
"v 	c #3C69CF",
"w 	c #333F5D",
"x 	c #7E96E7",
"y 	c #5D4E21",
"z 	c #969CAB",
"A 	c #426CD5",
"B 	c #3F6CD8",
"C 	c #3F6FDB",
"D 	c #3F6FDE",
"E 	c #456FD8",
"F 	c #EAEAED",
"G 	c #7B96E7",
"H 	c #FCE7A5",
"I 	c #273354",
"J 	c #4272E1",
"K 	c #4275E4",
"L 	c #4275E7",
"M 	c #EAF3A2",
"N 	c #C9AE6C",
"O 	c #577EDE",
"P 	c #E7EAED",
"Q 	c #FCFCFC",
"R 	c #3957AE",
"S 	c #3C60BD",
"T 	c #666F87",
"U 	c #4278EA",
"V 	c #4578ED",
"W 	c #457BF0",
"X 	c #3C66CC",
"Y 	c #486FCF",
"Z 	c #878A99",
"` 	c #3657B4",
" .	c #424E66",
"..	c #F6F6F9",
"+.	c #457BF3",
"@.	c #457EF6",
"#.	c #4881F9",
"$.	c #B7D8D5",
"%.	c #C6DBDB",
"&.	c #4263C0",
"*.	c #EDF0A2",
"=.	c #4578F0",
"-.	c #4884FF",
";.	c #4884FC",
">.	c #4B87FC",
",.	c #3C63C9",
"'.	c #666F84",
").	c #CCCFD5",
"!.	c #4E3F12",
"~.	c #F0F0F3",
"{.	c #4881FC",
"].	c #4B87F6",
"^.	c #4B8AF3",
"/.	c #4B8DF0",
"(.	c #668AE7",
"_.	c #516CC0",
":.	c #EDEDF0",
"<.	c #6C5421",
"[.	c #4B8AF6",
"}.	c #4E8DF0",
"|.	c #4E9CDE",
"1.	c #63A50F",
"2.	c #695A42",
"3.	c #696339",
"4.	c #5AE454",
"5.	c #3963C6",
"6.	c #EAEDF0",
"7.	c #726336",
"8.	c #3F60BD",
"9.	c #6993F6",
"0.	c #51AEC9",
"a.	c #695D42",
"b.	c #695D3F",
"c.	c #667527",
"d.	c #211215",
"e.	c #9699A8",
"f.	c #4575E1",
"g.	c #4E90EA",
"h.	c #696636",
"i.	c #695A45",
"j.	c #5AED60",
"k.	c #3C66C9",
"l.	c #EDD290",
"m.	c #3C4B69",
"n.	c #696C30",
"o.	c #4B87F9",
"p.	c #A5C6E7",
"q.	c #6681CF",
"r.	c #4E90E7",
"s.	c #99BAF0",
"t.	c #A8AEBD",
"u.	c #60BD2D",
"v.	c #EAF6AE",
"w.	c #030F2D",
"x.	c #96C0DE",
"y.	c #57ED84",
"z.	c #69603F",
"A.	c #4B8DF3",
"B.	c #634E1E",
"C.	c #C6C9D2",
"D.	c #E4CF90",
"E.	c #FCFCFF",
"F.	c #BA9F5D",
"G.	c #57EA8A",
"H.	c #667824",
"I.	c #4E99E4",
"J.	c #B4B7C3",
"K.	c #241B0C",
"L.	c #182442",
"M.	c #B1B7C3",
"N.	c #3C63C3",
"O.	c #99B1FC",
"P.	c #819FF3",
"Q.	c #7299F9",
"R.	c #362706",
"S.	c #F9F9FC",
"T.	c #C0C3CC",
"U.	c #AEB4C0",
"V.	c #4E75D5",
"W.	c #9F905D",
"X.	c #87A2F6",
"Y.	c #75602A",
"Z.	c #BDC0C9",
"`.	c #EAEDED",
" +	c #211512",
".+	c #E7CC84",
"++	c #3966CF",
"@+	c #3963CC",
"#+	c #5D667E",
"$+	c #87A2F0",
"%+	c #878D9C",
"&+	c #6C5721",
"*+	c #364260",
"=+	c #C9B77E",
"-+	c #3354AB",
";+	c #878A9C",
">+	c #B7BAC6",
",+	c #7EA2FF",
"'+	c #574512",
")+	c #A89963",
"!+	c #302106",
"~+	c #C3C6CF",
"{+	c #AB9354",
"]+	c #547BDE",
"^+	c #3660C6",
"/+	c #90B4F0",
"(+	c #F3F3F6",
"_+	c #6078C9",
":+	c #2D4899",
"<+	c #7B99ED",
"[+	c #B7BAC3",
"}+	c #455DAE",
"|+	c #7290E4",
"1+	c #000C2D",
"2+	c #D8D8DE",
"3+	c #3051AB",
"4+	c #4E6CC3",
"5+	c #84A2F3",
"6+	c #7893E7",
"7+	c #3957B1",
"8+	c #C9B781",
"9+	c #3F455A",
"                                                                                                ",
"                                                                                                ",
"                                                                                                ",
"                                                                                                ",
"            . . . . . . . . . . . . . . . + + + + + + . . . . . . . . . . . . . . .             ",
"          . . . . . . . . . . . . + @ # $ $ % & & % $ $ # @ + . . . . . . . . . . . .           ",
"        . . . . . . . . . . . * # $ & = - - ; ; ; ; - - > & $ # * . . . . . . . . . . .         ",
"        . . . . . . . . . + # % = - , ' ) ) ! ! ! ! ) ) ' , - = % # + . . . . . . . . .         ",
"        . . . . . . . . @ $ ~ - ' ) { ] ^ / ( ( ( ( / ^ ] { ) ' - ~ $ @ . . . . . . . .         ",
"        . . . . . . . # & - , ) ] ^ ( _ : < < < < < < : _ [ } | 1 , - & # 2 . . . . . .         ",
"        . . . . . . # & - ' ! 3 ( : < 4 5 6 7 8 8 8 8 9 0 8 8 8 8 a ' - & # 2 . . . . .         ",
"        . . . . . # & - b ] / _ < 4 c 8 8 8 8 8 8 8 8 8 8 8 8 8 8 8 ] b - & # . . . . .         ",
"        . . . . @ & - b ] ( : 4 d e 8 8 8 f g h i j k l m 8 8 8 8 8 n ] b - & @ . . . .         ",
"        . . . + $ - ' ] ( : o p 8 8 8 q r s t u u t s v w 8 8 8 8 8 x ( ] ' - $ + . . .         ",
"        . . . # ~ , ! / : o y 8 8 z A u B C D D D D C B E F 8 8 8 8 8 G / ! , ~ # . . .         ",
"        . . * % - ) 3 _ 4 H 8 8 I s B D J K L L L L K J D B M N O P 8 Q R ^ ) - % * . .         ",
"        . . # = ' ] ( < S 8 8 T t C J K U V W W W W V U K J C t X Y Q 8 Z ( ] ' = # . .         ",
"        . + $ - ) ^ : `  .8 ..s C J L V +.@.#.#.#.#.@.+.V L J C s X $.8 8 %.^ ) - $ + .         ",
"        . @ & , { ( < &.8 8 *.B J L =.@.#.-.;.>.>.;.-.#.@.W L J B v ,.'.8 ).( { , & @ .         ",
"        . # = ' ] _ o !.8 ~.u D K V @.{.;.].^././.^.].;.{.@.V K D u X (.8 8 _.] ' > # .         ",
"        . $ - ) ^ : ` :.8 <.B J U +.#.;.[.}.|.1.2.3.4.[.;.#.+.U J B v 5.6.8 7.^ ) - $ 2         ",
"        + $ - ) / < 8.8 8 9.C K V @.-.].}.0.a.a.a.a.b.c.].-.@.V K C s ,.d.8 e./ ) - $ +         ",
"        + % ; ! ( H 8 8 8 P f.L W #.;.^.g.h.a.i.i.a.a.b.j.;.#.W L D t k.l.8 Q ( ! ; & +         ",
"        + & ; ! / 8 8 8 8 8 m.L W #.>./.g.a.i.i.i.i.a.b.n.o.#.W L D u X p.8 8 ( ! ; & +         ",
"        + & ; ! q.8 8 8 8 8 8 L W #.>./.r.a.i.i.i.i.a.b.3.o.#.W L D u X s.8 8 ( ! ; & +         ",
"        + % ; ! / 8 8 8 8 8 t.L W #.;.^.g.a.a.i.i.a.a.b.u.;.#.W L D t k.v.8 8 ( ! ; & +         ",
"        + $ - ) / w.8 8 8 8 x.K V @.-.].}.y.a.a.a.a.b.z.A.-.@.V K C s ,.B.8 C./ ) - $ +         ",
"        . $ - ) ^ : D.E.8 F.B J U +.#.;.[.}.G.b.b.b.H.I.;.#.+.U J B v 5.J.8 K.^ ) - $ 2         ",
"        . # > ' ] _ o L.8 M.u D K V @.{.;.].^./.^.[.].;.{.@.V L D u X N.8 8 O.] ' > # .         ",
"        . @ & , { ( < P.8 8 Q.B J L W @.#.-.;.o.o.;.-.#.@.W L J B v ,.R.8 S.( { , & @ .         ",
"        . + $ - ) ^ : ` T.8 U.s C J L V +.@.#.#.#.#.@.+.V L J C s X V.8 8 W.^ ) - $ + .         ",
"        . . # = ' ] ( < X.8 8 Y.t C J K U V W W W W V U L J C t X 5.Z.8 `.( ] ' = # . .         ",
"        . . * % - ) 3 _ o  +8 8 .+s B D J K L L L L K J D B ++@+5.#+8 8 $+^ ) - % * . .         ",
"        . . . # ~ , ! / : ` %+8 8 &+v u B C D D D D C B u *+8 8 8 8 8 =+/ { , ~ # . . .         ",
"        . . . + $ - ' ] ( -+o ;+8 8 >+,+v s t u u t s v '+8 8 8 8 8 )+( ] ' - $ + . . .         ",
"        . . . . @ & - b ] ( : o !+8 8 8 ~+{+]+,.X X ^+/+(+8 8 8 8 8 _+] :+- & @ . . . .         ",
"        . . . . . # & - b ] / _ < <+[+8 8 8 8 8 8 8 8 8 8 8 8 8 8 8 }+:+- & # . . . . .         ",
"        . . . . . 2 # & - ' ! ^ ( : < |+1+S.8 8 8 8 8 8 2+8 8 8 8 9 ' - & # 2 . . . . .         ",
"        . . . . . . 2 # & - , ) ] ^ ( _ : < 3+4+5+6+7+: _ 8+..8 9+, - & # 2 . . . . . .         ",
"        . . . . . . . . @ $ ~ - ' ) { ] ^ / ( ( ( ( / ^ ] { ) ' - ~ $ @ . . . . . . . .         ",
"        . . . . . . . . . + # % = - , ' ) ) ! ! ! ! ) ) ' , - = % # + . . . . . . . . .         ",
"        . . . . . . . . . . . * # $ & > - - ; ; ; ; - - > & $ # * . . . . . . . . . . .         ",
"          . . . . . . . . . . . . + @ # $ $ & & & & $ $ # @ + . . . . . . . . . . . .           ",
"            . . . . . . . . . . . . . . 2 + + + + + + 2 . . . . . . . . . . . . . .             ",
"                                                                                                ",
"                                                                                                ",
"                                                                                                ",
"                                                                                                "};
