/* XPM */
static char * ion48_xpm[] = {
"48 48 283 2",
"  	c None",
". 	c #0C1228",
"+ 	c #0D1229",
"@ 	c #0D132A",
"# 	c #0D122A",
"$ 	c #0E132B",
"% 	c #0E142C",
"& 	c #0E142D",
"* 	c #0E152E",
"= 	c #0F152F",
"- 	c #0F162F",
"; 	c #0E152F",
"> 	c #0F1630",
", 	c #0F1731",
"' 	c #0F1732",
") 	c #101833",
"! 	c #101834",
"~ 	c #101934",
"{ 	c #101935",
"] 	c #0E152D",
"^ 	c #0F1833",
"/ 	c #101A36",
"( 	c #101A37",
"_ 	c #111A37",
": 	c #0F1832",
"< 	c #111B38",
"[ 	c #111B39",
"} 	c #111C3A",
"| 	c #6E7385",
"1 	c #A8AAB5",
"2 	c #888B99",
"3 	c #1C243D",
"4 	c #0D132B",
"5 	c #111C39",
"6 	c #111C3B",
"7 	c #2A334F",
"8 	c #757B8D",
"9 	c #ADB0BB",
"0 	c #D3D5DB",
"a 	c #E7E8EB",
"b 	c #E6E8EB",
"c 	c #D3D5DA",
"d 	c #ACB0BB",
"e 	c #747A8C",
"f 	c #313A54",
"g 	c #EEEFF1",
"h 	c #FFFFFF",
"i 	c #FEFEFF",
"j 	c #454B60",
"k 	c #121C3B",
"l 	c #172240",
"m 	c #8B909F",
"n 	c #F6F6F8",
"o 	c #F9FAFA",
"p 	c #101936",
"q 	c #121D3C",
"r 	c #8E93A2",
"s 	c #FEFEFE",
"t 	c #FAFBFB",
"u 	c #FBFBFB",
"v 	c #3A4158",
"w 	c #121D3B",
"x 	c #2F3954",
"y 	c #EDEEF0",
"z 	c #FDFDFD",
"A 	c #A8ADB9",
"B 	c #4C5771",
"C 	c #152345",
"D 	c #142244",
"E 	c #142345",
"F 	c #142144",
"G 	c #162345",
"H 	c #4C5670",
"I 	c #3F465E",
"J 	c #515970",
"K 	c #FBFBFC",
"L 	c #757D91",
"M 	c #142245",
"N 	c #142346",
"O 	c #152347",
"P 	c #152447",
"Q 	c #CDD0D7",
"R 	c #51586E",
"S 	c #545C72",
"T 	c #BFC3CC",
"U 	c #182648",
"V 	c #152448",
"W 	c #152549",
"X 	c #15254A",
"Y 	c #263454",
"Z 	c #F9F9FA",
"` 	c #52596F",
" .	c #363F5A",
"..	c #878EA0",
"+.	c #16264B",
"@.	c #16264C",
"#.	c #16274C",
"$.	c #1B2A4C",
"%.	c #9198A8",
"&.	c #C9CCD4",
"*.	c #AAAFBB",
"=.	c #9096A5",
"-.	c #343C55",
";.	c #141F3E",
">.	c #F3F4F5",
",.	c #828A9C",
"'.	c #152346",
").	c #16274D",
"!.	c #16284E",
"~.	c #17284F",
"{.	c #142143",
"].	c #848A9C",
"^.	c #F3F3F5",
"/.	c #121C39",
"(.	c #A3A8B4",
"_.	c #B4B8C3",
":.	c #172950",
"<.	c #172951",
"[.	c #172A51",
"}.	c #172A52",
"|.	c #132142",
"1.	c #B5B9C3",
"2.	c #A1A5B1",
"3.	c #222D4A",
"4.	c #F5F6F7",
"5.	c #182B53",
"6.	c #182B54",
"7.	c #142242",
"8.	c #212A45",
"9.	c #A8ACB8",
"0.	c #5D677F",
"a.	c #182C54",
"b.	c #182C56",
"c.	c #192D56",
"d.	c #192D57",
"e.	c #182C55",
"f.	c #5D667C",
"g.	c #A7AAB5",
"h.	c #192E58",
"i.	c #192E59",
"j.	c #132041",
"k.	c #F3F4F6",
"l.	c #4D556D",
"m.	c #868D9F",
"n.	c #1A2F5A",
"o.	c #1A305C",
"p.	c #1D5382",
"q.	c #206D9E",
"r.	c #206C9E",
"s.	c #1D5281",
"t.	c #878E9E",
"u.	c #4A5168",
"v.	c #9CA1AE",
"w.	c #293756",
"x.	c #1A2F5B",
"y.	c #1B3D6A",
"z.	c #2388BC",
"A.	c #238BC0",
"B.	c #238BBF",
"C.	c #2387BB",
"D.	c #1A3A66",
"E.	c #16274E",
"F.	c #142243",
"G.	c #2A3553",
"H.	c #9A9EAB",
"I.	c #60677C",
"J.	c #384462",
"K.	c #1A325E",
"L.	c #2389BE",
"M.	c #2389BD",
"N.	c #192F5A",
"O.	c #122041",
"P.	c #D7D9DE",
"Q.	c #848999",
"R.	c #424F6C",
"S.	c #1F6091",
"T.	c #238CC0",
"U.	c #238CC1",
"V.	c #1E5E8D",
"W.	c #ECEDF0",
"X.	c #111B37",
"Y.	c #131D39",
"Z.	c #E6E8EC",
"`.	c #227FB2",
" +	c #227DAF",
".+	c #3F475E",
"++	c #14254B",
"@+	c #2283B7",
"#+	c #2281B4",
"$+	c #D0D2D9",
"%+	c #2B344D",
"&+	c #15264C",
"*+	c #206A9B",
"=+	c #E3E4E8",
"-+	c #E9EAEC",
";+	c #A7ADBA",
">+	c #1B3C69",
",+	c #238ABF",
"'+	c #1A3965",
")+	c #FCFCFD",
"!+	c #E6E7EA",
"~+	c #262F4A",
"{+	c #F1F2F3",
"]+	c #CFD2D9",
"^+	c #162549",
"/+	c #1E5988",
"(+	c #1D5785",
"_+	c #182545",
":+	c #AFB3BC",
"<+	c #828898",
"[+	c #656E85",
"}+	c #1C426F",
"|+	c #217AAC",
"1+	c #2179AB",
"2+	c #1B406D",
"3+	c #666E83",
"4+	c #666C7F",
"5+	c #182442",
"6+	c #D6D8DE",
"7+	c #142347",
"8+	c #D7D9DF",
"9+	c #17203D",
"0+	c #D2D4DA",
"a+	c #2F3C5B",
"b+	c #2F3A57",
"c+	c #D1D3D9",
"d+	c #475068",
"e+	c #D2D4DB",
"f+	c #15264A",
"g+	c #D2D5DB",
"h+	c #464D64",
"i+	c #D9DBE0",
"j+	c #6A7389",
"k+	c #152548",
"l+	c #6B7387",
"m+	c #D8D9DE",
"n+	c #2B3551",
"o+	c #394462",
"p+	c #39445F",
"q+	c #29324C",
"r+	c #777D8F",
"s+	c #36425F",
"t+	c #656F85",
"u+	c #46506B",
"v+	c #35405C",
"w+	c #747A8B",
"x+	c #A9ADB9",
"y+	c #5E677F",
"z+	c #C4C7D0",
"A+	c #A8ACB6",
"B+	c #AEB1BC",
"C+	c #C1C5CE",
"D+	c #222F4F",
"E+	c #9BA1B0",
"F+	c #ACAFBA",
"G+	c #828798",
"H+	c #B9BDC7",
"I+	c #444E69",
"J+	c #132143",
"K+	c #2E3750",
"L+	c #363E59",
"M+	c #E1E2E7",
"N+	c #B3B7C2",
"O+	c #9EA3B1",
"P+	c #B3B8C2",
"Q+	c #E1E3E7",
"R+	c #444B62",
"S+	c #60687C",
"T+	c #EAEBEE",
"U+	c #151D38",
"V+	c #2E3752",
"W+	c #8D92A1",
"X+	c #DBDCE1",
"Y+	c #DADCE1",
"Z+	c #969AA8",
"`+	c #9295A1",
" @	c #0F1A39",
".@	c #141E3C",
"+@	c #0F1A38",
"@@	c #3A4159",
"#@	c #D5D6DB",
"$@	c #ECEDEF",
"%@	c #6C7080",
"    . + + + + + + + + + + + + + + + + + + @ @ @ @ @ @ # + + + + + + + + + + + + + + + + + .     ",
"  + + + + + + + + + + + + + + + # @ $ % % % & & & & % % % $ @ # + + + + + + + + + + + + + + +   ",
". + + + + + + + + + + + + + @ $ % & * * = - - - - - - = * * & % $ @ + + + + + + + + + + + + + . ",
"+ + + + + + + + + + + + @ $ & * ; - > , , ' ' ' ' ' ' , , > - ; * & $ @ + + + + + + + + + + + + ",
"+ + + + + + + + + + # $ % * = > , ' ) ) ! ~ { { { { ~ ! ) ) ' , > = * % $ # + + + + + + + + + + ",
"+ + + + + + + + + @ % ] ; > , ^ ! { { / ( _ _ _ _ _ _ ( / { { ! ^ , > = ] % @ + + + + + + + + + ",
"+ + + + + + + + @ % * - , : ! { / _ < [ [ } } } } } } [ [ < _ | 1 2 3 , - * % 4 + + + + + + + + ",
"+ + + + + + + 4 % * > ' ) { / _ < 5 } 6 7 8 9 0 a b c d e f g h h h i j ' > * & 4 + + + + + + + ",
"+ + + + + + @ % * > ' ! { _ < } k l m n h h h h h h h h h h h h h h h o ^ ' > * & 4 + + + + + + ",
"+ + + + + @ % * > ' ! p _ [ 6 q r s h h h h h h t u h h h h h h h h h h v ! ' > * % @ + + + + + ",
"+ + + + # % * > ' ! / < 5 w x y h h h z A B C D E D F G H h h h h h h h I / ! ' > * % # + + + + ",
"+ + + + $ ] - ' ! p < } w J h h h K L M N O P P P P O N E Q h h h h h h R < / ! ' > ] $ + + + + ",
"+ + + @ % ; , ) { _ 5 w S h h h T U N V V W X X X X W V V Y Z h h h h h h ` _ { ) , = % @ + + + ",
"+ + + $ * > : { _ [ w  .h h h ..N V W X +.@.#.#.#.#.@.+.X W $.%.&.*.=.h h h -._ { : > * $ + + + ",
"+ + @ & = , ! / < 6 ;.>.h h ,.'.V X +.#.).!.~.~.~.~.!.).#.+.X V O M {.].h h ^././ ! , = & @ + + ",
"+ + $ * > ^ { _ } q (.h h _.O V X @.).~.:.<.[.}.}.[.<.:.~.).@.X V O D |.1.h h 2._ { ^ > * $ + + ",
"+ # % ; , ! / < k 3.h h 4.P V X #.!.:.[.}.5.6.6.6.6.5.}.[.:.!.#.X V N D 7.4.h h 8./ ! , ; % # + ",
"+ @ & - ' { _ 5 q 9.h h 0.V X @.!.:.}.5.a.b.c.d.d.c.b.e.5.}.:.!.@.X V E {.f.h h g._ { ' > & @ + ",
"+ $ * > ) { < } q s h ^.N W +.).:.}.5.e.d.h.i.i.i.i.h.d.e.6.}.:.).+.W N D j.k.h s ( { ) > * $ + ",
"+ % * , ) / [ w l.h h m.V X #.~.[.5.e.d.i.n.o.p.q.r.s.i.d.e.5.[.~.#.X V E {.t.h h u./ ) , * % + ",
"+ % = , ! ( [ q v.h h w.V +.).:.}.a.d.i.x.y.z.A.A.B.B.C.D.d.e.}.:.E.+.V N F.G.h h H.( ! , = % # ",
"@ % - ' ~ _ } I.>.h h J.W @.!.<.5.b.h.n.K.L.A.A.A.A.A.B.M.N.b.5.<.!.@.W O D O.i h P._ ~ ' - & @ ",
"@ & - ' { _ Q.h h h h h R.#.~.[.6.c.i.o.S.A.T.U.U.T.A.B.B.V.c.6.[.~.#.X P D |.W.h Z X.{ ' - & @ ",
"@ & - ' { Y.h h h h h h Z.).~.}.6.d.i.o.`.A.U.U.U.U.A.A.B. +d.6.}.~.).X P M |.0 h s ( { ' - & @ ",
"@ & - ' { .+h h h h h h h ++~.}.6.d.i.o.@+A.U.U.U.U.A.A.B.#+d.6.}.~.).X P M |.$+h h ( { ' - & @ ",
"@ & - ' { %+h h h h h h s &+~.[.6.c.i.o.q.A.T.U.U.U.A.B.B.*+c.6.[.~.#.X P D |.=+h z _ { ' - & @ ",
"@ % - ' ~ ( -+h h h h h ;+@.!.<.5.b.h.n.>+A.A.A.A.A.A.B.,+'+b.5.<.!.@.W O D j.)+h !+_ ~ ' - & @ ",
"# % = , ! ( ~+{+h h h ]+^++.).:.}.e.d.i.x./+B.A.A.B.B.,+(+d.e.}.:.E.+.V N F._+h h :+( ~ , = % # ",
"+ % * , ) / [ 6 <+h h [+V X #.~.[.5.e.d.i.n.}+|+T.A.1+2+d.e.5.[.~.#.X V E {.3+h h 4+/ ) , * % + ",
"+ $ * > ) { < } 5+h h 6+O W +.).:.}.6.e.d.h.i.i.i.i.h.d.e.6.}.:.E.+.W 7+D |.8+h h 9+{ ) > * $ + ",
"+ @ & - ' { _ } q 0+h h a+V X @.!.:.}.5.e.b.c.d.d.c.b.e.5.}.:.!.@.X V E {.b+h h c+_ { ' > & @ + ",
"+ # % ; , ! / < k d+h h e+N V X #.!.:.[.}.5.6.6.6.6.5.}.[.:.!.#.f+V N D |.g+h h h+/ ! , ; % # + ",
"+ + $ * > ^ { _ } q i+h h j+O V X @.).~.:.<.[.}.}.[.<.:.~.E.@.f+k+O M |.l+h h m+_ { ^ > * $ + + ",
"+ + @ & = , ! / < 6 n+h h h o+O V X +.#.E.!.~.~.~.~.!.E.#.+.X V O M {.p+h h h q+/ ! , - & @ + + ",
"+ + + $ * > : { _ [ w r+h h )+s+N V W X +.@.#.).).#.@.+.X W V a+t+u+v+)+h h w+_ { : > * $ + + + ",
"+ + + @ % = , ) { _ } q x+h h i y+E N V V W X X X X W V V N z+h h h h h h A+< { ) , = & @ + + + ",
"+ + + + $ ] - ' ! / < } w B+h h h C+D+E N O P P P P O N E E+h h h h h h F+< / ! ' > ] $ + + + + ",
"+ + + + # % * > ' ! / < } w G+h h h h H+I+J+D M M D D F.O.z h h h h h h K+/ ! ' > * % # + + + + ",
"+ + + + + @ % * > ' ! / _ [ 6 L+a h h h h h M+N+O+O+P+Q+h h h h h h h h R+! ' > * % @ + + + + + ",
"+ + + + + + 4 & * > ' ! { _ < } 6 S+T+h h h h h h h h h h h h h h h h h U+' > * & 4 + + + + + + ",
"+ + + + + + + 4 & * > ' ) { / _ [ } } V+W+X+s h h h h s Y+Z+h h h h h `+' > * & 4 + + + + + + + ",
"+ + + + + + + + 4 % * > , : ! { / _ < [ [ } }  @.@.@+@[ [ < @@#@s $@%@, > * % 4 + + + + + + + + ",
"+ + + + + + + + + @ % ] = > , ^ ! { { / ( _ _ _ _ _ _ ( / { { ! ^ , > = ] % @ + + + + + + + + + ",
"+ + + + + + + + + + # $ % * = > , ' ) ) ! ~ { { { { ~ ~ ) ) ' , > - * & $ # + + + + + + + + + + ",
"+ + + + + + + + + + + + @ $ & * ; > > , , ' ' ' ' ' ' , , > > ; * & $ @ + + + + + + + + + + + + ",
". + + + + + + + + + + + + + @ $ % & * * = - - - - - - = * * & % $ @ + + + + + + + + + + + + + . ",
"  + + + + + + + + + + + + + + + # @ $ % % & & & & & & % % $ @ # + + + + + + + + + + + + + + +   ",
"    . + + + + + + + + + + + + + + + + + # @ @ @ @ @ @ # + + + + + + + + + + + + + + + + + .     "};
