/* XPM */
static char * ion64_xpm[] = {
"64 64 425 2",
"  	c None",
". 	c #0D1229",
"+ 	c #0D122A",
"@ 	c #0D132A",
"# 	c #0D132B",
"$ 	c #0E132B",
"% 	c #0E142C",
"& 	c #0E142D",
"* 	c #0D1228",
"= 	c #0E152D",
"- 	c #0E152E",
"; 	c #0E152F",
"> 	c #0F162F",
", 	c #0F1630",
"' 	c #0F1631",
") 	c #0F1731",
"! 	c #0F152F",
"~ 	c #0F1732",
"{ 	c #0F1832",
"] 	c #0F1833",
"^ 	c #101833",
"/ 	c #101834",
"( 	c #101934",
"_ 	c #101935",
": 	c #101936",
"< 	c #101A36",
"[ 	c #101A37",
"} 	c #111A37",
"| 	c #111B38",
"1 	c #111B39",
"2 	c #0F1935",
"3 	c #171F3A",
"4 	c #212842",
"5 	c #111C3A",
"6 	c #121D3B",
"7 	c #101B3A",
"8 	c #111C3B",
"9 	c #17223F",
"0 	c #192441",
"a 	c #15203E",
"b 	c #101B39",
"c 	c #41485F",
"d 	c #C2C4CC",
"e 	c #FBFCFC",
"f 	c #FFFFFF",
"g 	c #EEEEF0",
"h 	c #9093A0",
"i 	c #181F39",
"j 	c #16203F",
"k 	c #4D556C",
"l 	c #898E9D",
"m 	c #B9BCC5",
"n 	c #E0E1E5",
"o 	c #F5F6F7",
"p 	c #FDFDFD",
"q 	c #FCFCFC",
"r 	c #F0F1F3",
"s 	c #D4D6DC",
"t 	c #AAAEB9",
"u 	c #767C8E",
"v 	c #686F82",
"w 	c #F9FAFA",
"x 	c #CCCDD3",
"y 	c #171F39",
"z 	c #121C3B",
"A 	c #3F4761",
"B 	c #A1A5B2",
"C 	c #8B8F9C",
"D 	c #404962",
"E 	c #BFC2CB",
"F 	c #FEFEFF",
"G 	c #E8E9EB",
"H 	c #1D2845",
"I 	c #9FA4B0",
"J 	c #FDFDFE",
"K 	c #DDDFE4",
"L 	c #B0B5C0",
"M 	c #9299A8",
"N 	c #81889A",
"O 	c #7C8497",
"P 	c #858C9E",
"Q 	c #9BA0AF",
"R 	c #BDC1CA",
"S 	c #ECEEF0",
"T 	c #FEFEFE",
"U 	c #1A233E",
"V 	c #121D3C",
"W 	c #3F4861",
"X 	c #E1E2E6",
"Y 	c #C4C7D0",
"Z 	c #6C758A",
"` 	c #273453",
" .	c #132144",
"..	c #142345",
"+.	c #142245",
"@.	c #142244",
"#.	c #132143",
"$.	c #7E8597",
"%.	c #F6F7F8",
"&.	c #131D3A",
"*.	c #5C6479",
"=.	c #F7F7F8",
"-.	c #B4B9C4",
";.	c #3C4864",
">.	c #132245",
",.	c #142346",
"'.	c #152347",
").	c #152447",
"!.	c #2F3C5A",
"~.	c #ECECEF",
"{.	c #2C344F",
"].	c #656C81",
"^.	c #FCFCFD",
"/.	c #E2E4E8",
"(.	c #505B74",
"_.	c #152448",
":.	c #152549",
"<.	c #9399A9",
"[.	c #E4E5E8",
"}.	c #2E3751",
"|.	c #555D74",
"1.	c #B8BCC6",
"2.	c #202E4F",
"3.	c #15254A",
"4.	c #16264B",
"5.	c #15264A",
"6.	c #162548",
"7.	c #9198A9",
"8.	c #DFE0E4",
"9.	c #232C47",
"0.	c #353E59",
"a.	c #F3F4F5",
"b.	c #9EA4B2",
"c.	c #162447",
"d.	c #16264C",
"e.	c #16274C",
"f.	c #16274D",
"g.	c #2C3A5A",
"h.	c #6B748A",
"i.	c #798194",
"j.	c #545E77",
"k.	c #2E3957",
"l.	c #D8DADF",
"m.	c #C5C7CE",
"n.	c #141D3A",
"o.	c #111C39",
"p.	c #162140",
"q.	c #D4D6DB",
"r.	c #A3A8B6",
"s.	c #16274E",
"t.	c #16284E",
"u.	c #17284F",
"v.	c #142143",
"w.	c #263251",
"x.	c #898D9C",
"y.	c #848A9A",
"z.	c #C3C7D0",
"A.	c #172648",
"B.	c #172950",
"C.	c #172951",
"D.	c #172A51",
"E.	c #343F5C",
"F.	c #F2F3F4",
"G.	c #FBFBFC",
"H.	c #39415A",
"I.	c #293350",
"J.	c #EEEFF1",
"K.	c #293656",
"L.	c #172A52",
"M.	c #182A53",
"N.	c #182B53",
"O.	c #172850",
"P.	c #132142",
"Q.	c #646C82",
"R.	c #C1C3CB",
"S.	c #111A38",
"T.	c #9A9FAC",
"U.	c #182B54",
"V.	c #182C54",
"W.	c #182C55",
"X.	c #132041",
"Y.	c #B9BDC7",
"Z.	c #4A5268",
"`.	c #202B48",
" +	c #F6F6F8",
".+	c #D3D6DC",
"++	c #182C56",
"@+	c #192D56",
"#+	c #192D57",
"$+	c #36415D",
"%+	c #B8BBC4",
"&+	c #747B8D",
"*+	c #616B82",
"=+	c #192E58",
"-+	c #192E59",
";+	c #192D58",
">+	c #132042",
",+	c #B1B5BF",
"'+	c #28304B",
")+	c #111D3C",
"!+	c #C6C9D1",
"~+	c #EAECEF",
"{+	c #192F5A",
"]+	c #1A2F5B",
"^+	c #1A305C",
"/+	c #1B3D6A",
"(+	c #1C426F",
"_+	c #1A3864",
":+	c #4D5770",
"<+	c #757B8C",
"[+	c #1E2947",
"}+	c #9CA2B1",
"|+	c #1A3460",
"1+	c #1F6192",
"2+	c #2286B9",
"3+	c #238BBF",
"4+	c #238BC0",
"5+	c #227CAF",
"6+	c #1D4F7D",
"7+	c #142142",
"8+	c #EAEBEE",
"9+	c #BBBEC6",
"0+	c #515A71",
"a+	c #58637C",
"b+	c #1B3A67",
"c+	c #227EB1",
"d+	c #1F6899",
"e+	c #A8ACB8",
"f+	c #F2F2F4",
"g+	c #121B38",
"h+	c #464F67",
"i+	c #C9CCD3",
"j+	c #555F79",
"k+	c #1A315E",
"l+	c #217AAD",
"m+	c #238ABF",
"n+	c #1E5C8B",
"o+	c #727A8D",
"p+	c #2D354F",
"q+	c #6F7588",
"r+	c #717A90",
"s+	c #182D56",
"t+	c #1D5483",
"u+	c #238CC0",
"v+	c #238CC1",
"w+	c #2388BC",
"x+	c #1A3560",
"y+	c #4B546D",
"z+	c #4E566B",
"A+	c #373F58",
"B+	c #3A4867",
"C+	c #1A2F5A",
"D+	c #2174A6",
"E+	c #1D5381",
"F+	c #303B58",
"G+	c #656B7E",
"H+	c #999DA9",
"I+	c #9AA1B1",
"J+	c #2284B8",
"K+	c #248CC2",
"L+	c #1F6393",
"M+	c #232F4E",
"N+	c #6F7587",
"O+	c #C5C9D3",
"P+	c #248CC1",
"Q+	c #1F6494",
"R+	c #232F4D",
"S+	c #707687",
"T+	c #BCBEC7",
"U+	c #BCC1CC",
"V+	c #2176A8",
"W+	c #238ABE",
"X+	c #1D5584",
"Y+	c #2E3A57",
"Z+	c #666C7F",
"`+	c #7D8292",
" @	c #7F889C",
".@	c #1E5786",
"+@	c #2389BD",
"@@	c #1A3762",
"#@	c #48526B",
"$@	c #50586D",
"%@	c #1D2641",
"&@	c #E4E5EA",
"*@	c #202F52",
"=@	c #1A325F",
"-@	c #1F6191",
";@	c #6E768A",
">@	c #303852",
",@	c #363E57",
"'@	c #DDDFE3",
")@	c #DEE0E5",
"!@	c #384563",
"~@	c #1B3D6B",
"{@	c #2282B6",
"]@	c #206FA0",
"^@	c #192F59",
"/@	c #A3A8B4",
"(@	c #F4F5F6",
"_@	c #131C39",
":@	c #17213F",
"<@	c #666D82",
"[@	c #FCFDFD",
"}@	c #959CAB",
"|@	c #1B3763",
"1@	c #20699A",
"2@	c #238ABD",
"3@	c #2283B6",
"4@	c #1D5786",
"5@	c #E5E6EA",
"6@	c #C0C3CB",
"7@	c #CDCFD6",
"8@	c #1A335F",
"9@	c #1C4573",
"0@	c #1C4A78",
"a@	c #1B3F6C",
"b@	c #465069",
"c@	c #7C8191",
"d@	c #7B8193",
"e@	c #58627B",
"f@	c #142243",
"g@	c #2D364F",
"h@	c #252F4C",
"i@	c #CACDD5",
"j@	c #FAFAFB",
"k@	c #A4A8B4",
"l@	c #5F6880",
"m@	c #ADB2BD",
"n@	c #545B70",
"o@	c #303A55",
"p@	c #E7E8EC",
"q@	c #223050",
"r@	c #565F77",
"s@	c #CBCDD4",
"t@	c #9196A5",
"u@	c #B6BAC5",
"v@	c #152346",
"w@	c #2B3654",
"x@	c #EBECEF",
"y@	c #434A62",
"z@	c #1A2443",
"A@	c #9298A8",
"B@	c #1F2B4B",
"C@	c #D3D5DB",
"D@	c #969AA8",
"E@	c #F8F9F9",
"F@	c #8B92A3",
"G@	c #1F2D4F",
"H@	c #56617A",
"I@	c #656E85",
"J@	c #404B66",
"K@	c #212D4C",
"L@	c #CBCED5",
"M@	c #D1D3D9",
"N@	c #17203D",
"O@	c #656C80",
"P@	c #A5AAB7",
"Q@	c #1A2849",
"R@	c #7D8598",
"S@	c #F4F5F7",
"T@	c #E8E9EC",
"U@	c #2B344E",
"V@	c #777D8F",
"W@	c #D5D7DD",
"X@	c #3F4A66",
"Y@	c #838A9D",
"Z@	c #EDEEF0",
"`@	c #6E7588",
" #	c #A0A5B3",
".#	c #2C3857",
"+#	c #293655",
"@#	c #EFEFF1",
"##	c #373E57",
"$#	c #4E566D",
"%#	c #FBFBFB",
"&#	c #59627A",
"*#	c #1B2849",
"=#	c #142144",
"-#	c #727A8E",
";#	c #F4F4F6",
">#	c #121C38",
",#	c #26304C",
"'#	c #B4B7C1",
")#	c #F8F8F9",
"!#	c #C8CBD3",
"~#	c #9CA1B0",
"{#	c #7E8598",
"]#	c #6D758A",
"^#	c #697187",
"/#	c #71798D",
"(#	c #868D9E",
"_#	c #A9AEBA",
":#	c #DADCE1",
"<#	c #535B71",
"[#	c #D2D4DA",
"}#	c #ECEDEF",
"|#	c #525A70",
"1#	c #B6B9C3",
"2#	c #9699A5",
"3#	c #1F2946",
"4#	c #61687C",
"5#	c #9DA2AE",
"6#	c #CED1D7",
"7#	c #E9EAED",
"8#	c #BFC2CA",
"9#	c #8A8F9E",
"0#	c #7D8293",
"a#	c #D9DADE",
"b#	c #1C243D",
"c#	c #111B3A",
"d#	c #1B2542",
"e#	c #27304C",
"f#	c #2A344F",
"g#	c #232D49",
"h#	c #16213E",
"i#	c #0F1A38",
"j#	c #50576C",
"k#	c #D5D7DC",
"l#	c #A4A6B1",
"m#	c #1F263F",
"n#	c #111B37",
"o#	c #272E47",
"p#	c #343B52",
"q#	c #0E1229",
"r#	c #0D1129",
"                                                                                                                                ",
"        . . . . . . . . . . . . . . . . . . . . . . + @ @ @ # # # # # @ @ + . . . . . . . . . . . . . . . . . . . . . .         ",
"    . . . . . . . . . . . . . . . . . . . . + @ $ $ % % % & & & & & & % % % $ $ @ + . . . . . . . . . . . . . . . . . . . *     ",
"    . . . . . . . . . . . . . . . . . . @ $ % % & = - - - ; ; ; ; ; ; - - - = & % % $ @ . . . . . . . . . . . . . . . . . .     ",
"  + . . . . . . . . . . . . . . . . @ $ % & - - ; > , , , ' ) ) ) ) ' , , , > ! - - & % $ @ + . . . . . . . . . . . . . . . .   ",
"  . . . . . . . . . . . . . . . @ $ % & - ; > , ' ) ~ ~ { ] ^ ^ ^ ^ ] { ~ ~ ) ' , > ! - & % $ @ . . . . . . . . . . . . . . .   ",
"  . . . . . . . . . . . . . + $ % & - ! , ' ) ~ ] ^ / ( ( _ _ _ _ _ _ ( ( / ^ ] ~ ) ' , ! - & % $ @ . . . . . . . . . . . . .   ",
"  . . . . . . . . . . . . @ $ & - ; , ' ~ { ^ / _ _ : < < [ } } } } [ < < : _ _ / ^ ] ~ ) , ! - & $ @ . . . . . . . . . . . .   ",
"  . . . . . . . . . . . @ % & - > , ~ ] / ( _ < [ } | | | 1 1 1 1 1 1 | | | } [ < 2 3 4 ^ ~ ' > - & % # . . . . . . . . . . .   ",
"  . . . . . . . . . . # % = ; , ) ~ ^ ( _ < } | 1 1 5 5 5 6 7 8 9 0 a b b 5 1 1 c d e f g h i ) , ! = % $ . . . . . . . . . .   ",
"  . . . . . . . . . $ % - ! , ~ ] / _ < } | 1 5 5 6 j k l m n o p p q r s t u v w f f f f f x y ~ , > - % $ . . . . . . . . .   ",
"  . . . . . . . . # % - > , ~ ^ ( : [ | 1 5 z 8 A B r f f f f f f f f f f f f f f f f f f f f C ^ ~ ' > - % $ . . . . . . . .   ",
"  . . . . . . . @ % - > , ~ ^ _ < } | 5 8 6 D E F f f f f f f f f f f f f f f f f f f f f f f G / ^ ~ ' > - % # . . . . . . .   ",
"  . . . . . . @ % = ! , ~ ^ _ < | 1 5 6 H I J f f f f f J K L M N O P Q R S f f f f f f f f f T U _ / ~ ' > = % @ . . . . . .   ",
"  . . . . . + $ & ; , ~ ^ _ < | 1 5 V W X f f f f T Y Z `  ...+.+.+.+.@.@.#.$.f f f f f f f f %.&.< _ ^ ~ , ! & $ @ . . . . .   ",
"  . . . . . # % - , ) ^ _ < | 1 8 V *.=.f f f T -.;.>.,.,.'.).).).).'.,.,...!.q f f f f f f f ~.{.| < _ ^ ~ , - & $ . . . . .   ",
"  . . . . @ % - > ) ] ( < | 1 8 V ].^.f f f /.(.+.,.)._._.:.:.:.:.:.:._._.).,.<.f f f f f f f f [.}.| < ( ^ ) > - % @ . . . .   ",
"  . . . . $ & ; , ~ / _ } 1 5 V |.q f f f 1.2.,.)._.:.3.3.4.4.4.4.4.4.5.3.:._.6.7.e f f f p f f f 8.9.} : / { ' ! & $ . . . .   ",
"  . . . @ % - , ) ^ _ [ | 5 V 0.a.f f f b.c.)._.:.3.4.d.e.f.f.f.f.f.f.e.d.4.3.:._.g.h.i.j.k.l.f f f m.n.} _ ^ ~ , - % @ . . .   ",
"  . . . $ & ; ' { ( < | o.6 p.q.f f f r.,.).:.3.4.d.f.s.t.u.u.u.u.u.u.t.s.f.d.4.3.:.).,.+.v.w.K f f f x.| < ( ] ) ! & $ . . .   ",
"  . . @ % - , ) ^ _ } 1 8 V y.f f f z.A.).:.3.4.f.s.u.u.B.C.C.D.D.D.C.B.B.u.t.f.4.3.:.).,.@.v.E.F.f f G.H.} _ ^ ~ , - % @ . .   ",
"  . . # & - , { ( < | 5 V I.%.f f J.K.).:.3.d.f.t.u.B.D.L.M.N.N.N.N.M.L.D.B.O.t.f.d.5.:.).,.@.P.Q.f f f R.S.< ( { ' ; & $ . .   ",
"  . . $ = > ) ^ _ } 1 8 V T.f f f h.)._.3.d.f.u.B.D.L.N.U.V.W.W.W.W.V.U.N.L.D.B.u.f.d.3.:.)...@.X.Y.f f f Z.} _ ^ ) > = % + .   ",
"  . @ % - , ~ / : | o.6 `. +f f .+)._.3.4.f.t.B.D.M.U.W.++@+#+#+#+#+@+++W.U.N.L.B.u.f.4.3._.,.+.v.$+^.f f %+} < / ~ , - % @ .   ",
"  . # % - , { ( < | 5 V &+f f f *+).:.4.e.t.B.D.N.U.W.@+#+=+-+-+-+-+=+;+#+W.U.N.L.B.t.f.4.:.)...@.>+,+f f q '+< _ ] ' ; & # .   ",
"  . $ & ! ) ^ _ } 1 z )+!+f f ~+A._.3.d.f.u.C.M.U.++#+=+-+{+]+^+/+(+_+-+=+#+++U.N.D.u.s.d.3._.,.@.P.:+f f f <+} _ ^ ) > & $ .   ",
"  . $ = > ) ^ _ } o.6 [+G.f f }+).:.4.f.t.B.L.U.W.#+=+{+]+|+1+2+3+3+4+5+6+=+#+W.U.L.B.u.f.4.:.)...v.7+8+f f 9+} : / ~ , - % +   ",
"  + % - , ~ / : | 5 V 0+f f f a+).:.4.f.u.D.N.W.@+=+{+]+b+c+4+4+4+4+3+3+3+d+-+#+W.N.D.u.f.d.3._.,.@.P.e+f f f+g+< / ~ , - % @   ",
"  @ % - , ~ ( < | 5 h+i+f f f j+_.3.d.t.B.L.U.W.#+-+]+k+l+4+4+4+4+4+4+3+3+m+n+#+++U.L.B.t.e.3._.,.@.P.o+f f f p+< ( ~ , - % @   ",
"  @ % - , ~ ( < | q+p f f f f p r+3.e.t.B.L.U.s+=+{+^+t+4+4+u+v+v+u+4+4+3+3+w+x+s+U.L.C.u.e.5._.,.@.P.y+f f f z+< ( { , - % @   ",
"  @ % - , { ( < A+G.f f f f f f G.B+f.u.C.M.V.@+=+C+^+D+4+u+v+v+v+v+u+4+4+3+m+E+#+W.N.C.u.f.4.:.'.+.v.F+f f f G+[ _ ] , - % @   ",
"  @ % - , { ( [ H+f f f f f f f f I+f.u.C.N.W.#+-+]+^+J+4+v+v+K+K+v+v+4+4+3+m+L+#+W.N.D.u.f.4.:.).+.v.M+f f f N+[ _ ] , ; & #   ",
"  @ % - , { ( [ m.f f f f f f f f O+f.u.C.N.W.#+-+]+^+J+4+v+v+v+P+v+v+4+4+3+m+Q+#+W.N.D.u.f.4.:.).+.v.R+f f f S+[ _ ] , - % @   ",
"  @ % - , { ( [ T+f f f f f f f f U+f.u.C.M.V.@+=+C+^+V+4+4+v+v+v+v+u+4+3+3+W+X+#+W.N.C.u.f.4.:.'.+.v.Y+f f f Z+[ _ ] , - % @   ",
"  @ % - , ~ ( < `+f f f f f f f f  @e.t.B.L.U.++=+{+^+.@4+4+4+v+v+4+4+4+3+3++@@@s+U.L.B.t.e.5._.,.@.P.#@f f f $@< ( { , - % @   ",
"  @ % - , ~ / < %@[.f f f f f f &@*@d.s.B.L.N.W.#+-+]+=@c+4+4+4+4+4+4+3+3+m+-@#+W.N.L.B.t.d.3._.,.@.P.;@f f f >@< ( ~ , - % @   ",
"  + % - , ~ / : | ,@'@f f f f )@!@:.4.f.u.C.M.U.++;+-+]+~@{@3+4+4+3+3+3+m+]@^@s+V.N.D.u.f.4.:.)...@.P./@f f (@_@< / ~ , - % +   ",
"  . $ & > ) ^ _ } 1 :@<@[@f f }@'.:.5.e.t.B.L.N.W.@+=+-+C+|@1@2@3+3+3+3@4@-+#+W.N.L.B.t.e.4.:.).+.v.X.5@f f 6@} _ ^ ) > = $ .   ",
"  . $ & ! ' ] _ [ 1 8 )+7@f f 5@)._.3.4.f.u.C.L.U.W.@+;+-+{+{+8@9@0@a@^@=+#+W.U.L.C.u.f.d.3._.,.@.P.b@f f f c@} _ ^ ) ! & $ .   ",
"  . @ % - , ~ ( < | 5 V d@f f f e@).:.5.e.t.u.C.L.U.W.++#+;+=+=+-+=+;+#+s+W.U.M.D.B.t.e.4.:.)...f@X.e+f f J g@< ( { , - % # .   ",
"  . @ % - , ~ / _ } o.6 h@w f f i@,._.:.4.f.t.B.C.L.N.U.W.++s+@+@+s+++W.V.N.L.D.B.t.f.4.:._.,.@.P.Y+j@f f 6@[ : / ~ , - % @ .   ",
"  . . $ & ! ) ^ _ [ | 5 V k@f f f l@,._.3.4.f.t.u.C.L.M.N.U.U.V.V.U.U.N.M.L.C.u.t.f.4.3._.'.+.v.X.m@f f f n@} _ ^ ) > & $ . .   ",
"  . . @ % - , ~ / < | o.6 o@j@f f p@q@)._.3.4.e.s.u.B.C.D.L.L.M.M.L.L.L.C.B.u.t.f.4.3._.)...@.P.r@F f f s@| < ( ~ , - & # . .   ",
"  . . + % = > ) ^ _ [ | 5 V t@f f f u@v@)._.3.4.e.f.t.u.B.B.B.C.C.B.B.B.u.t.f.e.4.3._.).,.@.P.w@x@f f J y@} _ ^ ) , - % @ . .   ",
"  . . . # & - , ~ / : } 1 z z@'@f f f A@+.'._.:.5.4.e.f.s.t.t.u.u.t.t.s.f.e.4.5.:._.).,.@.v.B@C@f f f D@} < ( { , ; & $ . . .   ",
"  . . . @ % - > ) ^ _ < | 5 6 W E@f f f F@+.,.).:.:.5.4.d.e.e.f.f.e.e.d.4.5.3.:._.G@H@I@J@K@L@f f f M@N@< _ ^ ) > - % @ . . .   ",
"  . . . . # & - , ~ ^ _ [ | 5 V O@T f f f P@Q@,.'._._.:.3.3.5.5.5.5.3.3.:._._.'.R@S@f f f %.f f f T@U@} _ / ~ , - & $ . . . .   ",
"  . . . . + $ & ! ' { / : } 1 5 6 V@T f f f W@X@+.,.v@)._._._._._._._._.).'.,.Y@f f f f f f f f Z@H.} : ( { ) > = % @ . . . .   ",
"  . . . . . @ % - > ) ] ( < } 1 5 z `@q f f f ^. #.#@...,.,.,.,.,.,.,.,...+.+#w f f f f f f f @###} < ( ^ ) , - % # . . . . .   ",
"  . . . . . . $ & - , ) ^ ( < } 1 5 6 $#x@f f f f %#L &#*#=#@.@.@.@.@.@.f@>+-#f f f f f f f f ;#>#< _ ^ ) , - & $ . . . . . .   ",
"  . . . . . . + $ & - , ) ^ ( : } | 5 8 ,#'#f f f f f f )#!#~#{#]#^#/#(#_#:#T f f f f f f f f T U _ ^ ~ , ; & $ @ . . . . . .   ",
"  . . . . . . . @ % & ; , ) ^ ( _ } | 1 5 8 <#[#f f f f f f f f f f f f f f f f f f f f f f f }#/ ^ ~ , ; = % @ . . . . . . .   ",
"  . . . . . . . . @ % & ; , ) ] / _ < } | o.5 6 |#1#j@f f f f f f f f f f f f f f f f f f f f 2#^ ) , ; = % @ . . . . . . . .   ",
"  . . . . . . . . . @ % & - , ) ~ ^ _ : [ } | 1 5 5 3#4#5#6#F.T f f f ^.7#8#9#0#p f f f f f a#b#) , ; = % @ . . . . . . . . .   ",
"  . . . . . . . . . . @ % & - > ' ~ ^ / _ : < } | 1 1 o.5 c#c#d#e#f#g#h#i#1 1 | j#k#T f )#l#m#' > - & % @ . . . . . . . . . .   ",
"  . . . . . . . . . . . @ $ & - ! , ) ~ ^ / _ _ < [ } } | | | | | | | | n#} [ < _ / o#p#y ) , ! - & $ @ . . . . . . . . . . .   ",
"  . . . . . . . . . . . . + $ % & - > , ) ~ ] ^ ( _ _ _ < < < < < < < < : _ _ ( ^ ] ~ ) , > - = % $ @ . . . . . . . . . . . .   ",
"  . . . . . . . . . . . . . . @ $ % = - > , ) ) ~ ] ^ ^ / ( ( ( ( ( ( / / ^ ] ~ ) ) , > - - & % @ . . . . . . . . . . . . . .   ",
"  . . . . . . . . . . . . . . . + # % & = - ! , , ' ) ) ~ ~ ~ ~ { ~ ~ ~ ~ ) ' , , ! - = & % $ + . . . . . . . . . . . . . . .   ",
"  . . . . . . . . . . . . . . . . . @ # $ % & - - ; > > , , , , , , , , > > ; - - & % % # @ . . . . . . . . . . . . . . . . .   ",
"    . . . . . . . . . . . . . . . . . . + @ $ % % & & = - - - - - - - - = & & % % $ @ + . . . . . . . . . . . . . . . . . .     ",
"      q#. . . . . . . . . . . . . . . . . . . + @ # $ $ % % % % % % % % $ $ # @ + . . . . . . . . . . . . . . . . . . . .       ",
"        r#. . . . . . . . . . . . . . . . . . . . . . . + @ @ @ @ @ @ + . . . . . . . . . . . . . . . . . . . . . . . q#        ",
"                                                                                                                                "};
