/* XPM */
static char * ion64_testnet_xpm[] = {
"64 64 429 2",
"  	c None",
". 	c #24397F",
"+ 	c #27367B",
"@ 	c #27367E",
"# 	c #27397E",
"$ 	c #27337B",
"% 	c #24367E",
"& 	c #273981",
"* 	c #2A3981",
"= 	c #2A3C84",
"- 	c #2A367B",
"; 	c #2A3C87",
"> 	c #2A3F87",
", 	c #2A3F8A",
"' 	c #273677",
") 	c #2A3F8D",
"! 	c #2D428D",
"~ 	c #2D4290",
"{ 	c #2D3F8D",
"] 	c #2D4293",
"^ 	c #2D4593",
"/ 	c #2D4596",
"( 	c #2D4899",
"_ 	c #304899",
": 	c #30489C",
"< 	c #304B9C",
"[ 	c #304B9F",
"} 	c #304EA2",
"| 	c #304BA2",
"1 	c #304EA5",
"2 	c #334EA5",
"3 	c #3351A8",
"4 	c #2D4599",
"5 	c #3351AB",
"6 	c #3354AB",
"7 	c #3354AE",
"8 	c #425DB4",
"9 	c #A59663",
"0 	c #333954",
"a 	c #6C7281",
"b 	c #000927",
"c 	c #EDFCC6",
"d 	c #3657B1",
"e 	c #3C5AB7",
"f 	c #BAD2E1",
"g 	c #B19F66",
"h 	c #423309",
"i 	c #0C1536",
"j 	c #3C455D",
"k 	c #454E66",
"l 	c #333C57",
"m 	c #03092A",
"n 	c #57481B",
"o 	c #CFBD81",
"p 	c #93B1FF",
"q 	c #6C8ADB",
"r 	c #7B8190",
"s 	c #FFFFFF",
"t 	c #2D2703",
"u 	c #395AB7",
"v 	c #FCEDA8",
"w 	c #00092D",
"x 	c #D2D2D8",
"y 	c #E7EAED",
"z 	c #AEA26F",
"A 	c #4260BD",
"B 	c #AB9960",
"C 	c #A2A5B1",
"D 	c #A5A8B4",
"E 	c #3354B1",
"F 	c #F0F6B1",
"G 	c #969CA8",
"H 	c #E4E4EA",
"I 	c #969CAB",
"J 	c #5D667E",
"K 	c #4B546F",
"L 	c #666F84",
"M 	c #A8ABBA",
"N 	c #F0F0F3",
"O 	c #FCFCFC",
"P 	c #637ECC",
"Q 	c #4869C3",
"R 	c #271B0C",
"S 	c #F0F3F3",
"T 	c #2D3957",
"U 	c #AE9657",
"V 	c #9FC3E1",
"W 	c #3F69CF",
"X 	c #3963C9",
"Y 	c #3C66CC",
"Z 	c #3660C6",
"` 	c #4B72D5",
" .	c #C3E1C9",
"..	c #120324",
"+.	c #637ECF",
"@.	c #7293E7",
"#.	c #697284",
"$.	c #D5D8DE",
"%.	c #66511B",
"&.	c #759CF9",
"*.	c #3C66CF",
"=.	c #3C69D2",
"-.	c #3C69CF",
";.	c #ABCFD8",
">.	c #FCFCFF",
",.	c #D2D5DB",
"'.	c #425DB7",
").	c #3657B4",
"!.	c #87A5F9",
"~.	c #9FA5B1",
"{.	c #1E0C1B",
"].	c #6993F3",
"^.	c #3F6CD5",
"/.	c #3F6CD8",
"(.	c #3F69D5",
"_.	c #273354",
":.	c #424860",
"<.	c #4B66BD",
"[.	c #7290E7",
"}.	c #C9CCD2",
"|.	c #F9E79C",
"1.	c #3F6FDB",
"2.	c #3F6FDE",
"3.	c #3F72DE",
"4.	c #4272E1",
"5.	c #6993F6",
"6.	c #606981",
"7.	c #363F57",
"8.	c #3F5AB1",
"9.	c #4566C3",
"0.	c #666C81",
"a.	c #90B7ED",
"b.	c #4272E4",
"c.	c #4275E4",
"d.	c #4275E7",
"e.	c #4572DB",
"f.	c #C6AB66",
"g.	c #0F1E42",
"h.	c #424E69",
"i.	c #241218",
"j.	c #B79F60",
"k.	c #D8DBE1",
"l.	c #24180C",
"m.	c #334EA8",
"n.	c #332406",
"o.	c #999FAE",
"p.	c #789FFF",
"q.	c #4275EA",
"r.	c #4278EA",
"s.	c #4578ED",
"t.	c #3C63C9",
"u.	c #C9EAC6",
"v.	c #DEDEE4",
"w.	c #D2C087",
"x.	c #2D4896",
"y.	c #E1FCBA",
"z.	c #CCCFD8",
"A.	c #96BDE7",
"B.	c #4578F0",
"C.	c #457BF0",
"D.	c #457BF3",
"E.	c #3F6CDB",
"F.	c #FCE49C",
"G.	c #F9F9F9",
"H.	c #728DDE",
"I.	c #3C60BD",
"J.	c #878D9C",
"K.	c #F9DB90",
"L.	c #457EF3",
"M.	c #457EF6",
"N.	c #487EF9",
"O.	c #3963C6",
"P.	c #665121",
"Q.	c #090021",
"R.	c #C3AB6F",
"S.	c #120027",
"T.	c #4881F9",
"U.	c #4881FC",
"V.	c #4884FC",
"W.	c #3C66C9",
"X.	c #4269CC",
"Y.	c #7E8496",
"Z.	c #A8C0F6",
"`.	c #365AB7",
" +	c #9093A2",
".+	c #DBDEE4",
"++	c #7299FC",
"@+	c #4884FF",
"#+	c #4887FC",
"$+	c #4B87FC",
"%+	c #E4FFB4",
"&+	c #513C0C",
"*+	c #4B87F9",
"=+	c #4B87F6",
"-+	c #4B8AF6",
";+	c #4B8AF3",
">+	c #3660C3",
",+	c #4E576F",
"'+	c #EAEAED",
")+	c #5D78CC",
"!+	c #1B0F18",
"~+	c #F6F6F9",
"{+	c #84ABF6",
"]+	c #4B8DF0",
"^+	c #4E8DF0",
"/+	c #487EF6",
"(+	c #EDD28D",
"_+	c #BDAB72",
":+	c #BDC0C9",
"<+	c #45516C",
"[+	c #4E8DED",
"}+	c #54C9AB",
"|+	c #60C02D",
"1+	c #667E1B",
"2+	c #666F2D",
"3+	c #668A0F",
"4+	c #5DD848",
"5+	c #4EABCF",
"6+	c #456CCC",
"7+	c #D2D2DB",
"8+	c #212745",
"9+	c #9CBAF3",
"0+	c #967B3F",
"a+	c #4E90EA",
"b+	c #5DD542",
"c+	c #695D3F",
"d+	c #695D42",
"e+	c #696636",
"f+	c #57F37E",
"g+	c #061536",
"h+	c #CFD2D8",
"i+	c #3651A8",
"j+	c #513F15",
"k+	c #D2F3B7",
"l+	c #5DD545",
"m+	c #69603F",
"n+	c #54E78D",
"o+	c #A59054",
"p+	c #8DA5F3",
"q+	c #9CB4FC",
"r+	c #9C9FAE",
"s+	c #BDC0CC",
"t+	c #D2F6B4",
"u+	c #4E90ED",
"v+	c #54C3B1",
"w+	c #695A45",
"x+	c #66722A",
"y+	c #4B93EA",
"z+	c #3F69D2",
"A+	c #D5F3C0",
"B+	c #F9F0AE",
"C+	c #4E69BD",
"D+	c #CCD2D8",
"E+	c #7BA8F0",
"F+	c #5DC936",
"G+	c #695A42",
"H+	c #57F084",
"I+	c #7B9FF9",
"J+	c #B7A56F",
"K+	c #A59660",
"L+	c #4E3603",
"M+	c #638D0F",
"N+	c #6C5A45",
"O+	c #5DCF3F",
"P+	c #4E75D5",
"Q+	c #F9F9FC",
"R+	c #8D7E4B",
"S+	c #0F1836",
"T+	c #66728A",
"U+	c #667B1E",
"V+	c #6C5A48",
"W+	c #5DC030",
"X+	c #486CCF",
"Y+	c #817242",
"Z+	c #242D48",
"`+	c #7B8499",
" @	c #3F72E4",
".@	c #639C03",
"+@	c #5ADE4E",
"@@	c #5A7EDB",
"#@	c #968754",
"$@	c #665A2D",
"%@	c #0F032D",
"&@	c #5AEA57",
"*@	c #54D2A5",
"=@	c #93B4F3",
"-@	c #CCBA81",
";@	c #7E96E4",
">@	c #E1E4E7",
",@	c #C0E7BD",
"'@	c #51A2D5",
")@	c #666C30",
"!@	c #639600",
"~@	c #FCE79F",
"{@	c #DBF0C9",
"]@	c #EDD899",
"^@	c #EDEDF0",
"/@	c #9F8748",
"(@	c #57DE93",
"_@	c #69603C",
":@	c #667527",
"<@	c #4EB1CC",
"[@	c #72602D",
"}@	c #6681D2",
"|@	c #A5C0F0",
"1@	c #090324",
"2@	c #2A1812",
"3@	c #3C69D5",
"4@	c #54D2A2",
"5@	c #639C06",
"6@	c #4EAECC",
"7@	c #3960C3",
"8@	c #4B546C",
"9@	c #3357B4",
"0@	c #9399AB",
"a@	c #57E193",
"b@	c #5DDE4E",
"c@	c #5DCC39",
"d@	c #5AE75A",
"e@	c #51C9AE",
"f@	c #6C90EA",
"g@	c #F3F3F6",
"h@	c #6C5A2A",
"i@	c #D8F9B4",
"j@	c #8D7842",
"k@	c #F3F6B4",
"l@	c #90ABFF",
"m@	c #1E2D4E",
"n@	c #ABAEBA",
"o@	c #B7BAC3",
"p@	c #3957AE",
"q@	c #2A3651",
"r@	c #CCF0BD",
"s@	c #9C844B",
"t@	c #756636",
"u@	c #C6E1D2",
"v@	c #787E93",
"w@	c #4572D8",
"x@	c #7B9CF6",
"y@	c #5A75C9",
"z@	c #0C1836",
"A@	c #513F0C",
"B@	c #3F66C6",
"C@	c #3F4B63",
"D@	c #938451",
"E@	c #7896EA",
"F@	c #D8BD78",
"G@	c #423306",
"H@	c #75788A",
"I@	c #3C57AE",
"J@	c #DEC687",
"K@	c #EDF0F3",
"L@	c #FCDE93",
"M@	c #456FD8",
"N@	c #5D87E7",
"O@	c #9FB7FC",
"P@	c #45360C",
"Q@	c #C0A566",
"R@	c #A8CCD8",
"S@	c #243051",
"T@	c #C3C6CF",
"U@	c #363F5D",
"V@	c #E1CF93",
"W@	c #030C30",
"X@	c #577EE1",
"Y@	c #E1E1E7",
"Z@	c #3C5DBA",
"`@	c #DEC07B",
" #	c #426FD2",
".#	c #9FA5B4",
"+#	c #F9FCFC",
"@#	c #695A2A",
"##	c #818A9C",
"$#	c #B49C5D",
"%#	c #5D84E4",
"&#	c #EDF3A8",
"*#	c #3954AB",
"=#	c #3654B1",
"-#	c #B4B7C0",
";#	c #EAEDF0",
">#	c #3C4563",
",#	c #75602A",
"'#	c #FCDE96",
")#	c #A8C9DE",
"!#	c #7296F3",
"~#	c #638AEA",
"{#	c #789FF9",
"]#	c #B7D8D2",
"^#	c #E1C684",
"/#	c #544212",
"(#	c #8A909F",
"_#	c #6F8AD8",
":#	c #5775CC",
"<#	c #48390F",
"[#	c #EAEDED",
"}#	c #F6F6F6",
"|#	c #4E66B7",
"1#	c #7B99ED",
"2#	c #515469",
"3#	c #4566C0",
"4#	c #EDD596",
"5#	c #12061E",
"6#	c #A8AEB7",
"7#	c #848A99",
"8#	c #39425A",
"9#	c #C3D5EA",
"0#	c #3051AB",
"a#	c #6681D8",
"b#	c #CFE7CF",
"c#	c #DEC98D",
"d#	c #B4A269",
"e#	c #A8935D",
"f#	c #BDA86F",
"g#	c #516FC6",
"h#	c #304EA8",
"i#	c #3654AB",
"j#	c #5A4E24",
"k#	c #F3F3F3",
"l#	c #C0C0C9",
"m#	c #F3FCC0",
"n#	c #7B93DE",
"o#	c #BAAB78",
"p#	c #877B4E",
"q#	c #EDDEA5",
"r#	c #455AA8",
"s#	c #273678",
"t#	c #27367C",
"u#	c #2B377B",
"v#	c #27337A",
"                                                                                                                                ",
"        . + + + + + + + + + + + + + + + + + + + + + + + @ # # # # # # @ + + + + + + + + + + + + + + + + + + + + + + $ %         ",
"      + + + + + + + + + + + + + + + + + + + + @ # & * * = = = = = = = = * * & # # + + + + + + + + + + + + + + + + + + + +       ",
"    - + + + + + + + + + + + + + + + + + @ # * = = ; ; > , , , , , , , , > ; ; = = * # @ + + + + + + + + + + + + + + + + + +     ",
"  ' + + + + + + + + + + + + + + + + @ & * = ; , , ) ! ! ~ ~ ~ ~ ~ ~ ~ ~ ~ ! ) , , ; = = * # + + + + + + + + + + + + + + + + +   ",
"  + + + + + + + + + + + + + + + @ & = = > , { ! ~ ] ^ ^ / / / / / / / / / ^ ] ~ ~ { , , ; = * # + + + + + + + + + + + + + + +   ",
"  + + + + + + + + + + + + + + # * = > , ! ~ ] ^ / ( _ _ : < < < < < < : : _ ( / / ^ ~ ! ) , ; = & + + + + + + + + + + + + + +   ",
"  + + + + + + + + + + + + @ * = ; , ! ~ ^ / ( _ : [ [ [ } } } } } } } } | [ [ < _ _ / ^ ~ ! , > = * # + + + + + + + + + + + +   ",
"  + + + + + + + + + + + # * = , { ~ ^ / _ : [ [ } 1 2 2 3 3 3 3 3 3 3 3 3 2 1 } [ [ : 4 / ^ ~ ! , ; * # + + + + + + + + + + +   ",
"  + + + + + + + + + + # = ; , ! ] / ( : [ | } 2 3 3 5 6 7 7 7 7 7 7 7 7 7 5 5 3 8 9 0 a b c ^ ^ ~ , ; = # + + + + + + + + + +   ",
"  + + + + + + + + + # = ; , ~ ^ / _ < | 1 2 3 5 7 7 d e f g h i j k l m n o p q r s s s s s t _ ^ ~ ) > = # + + + + + + + + +   ",
"  + + + + + + + + # = ; ) ~ ^ ( : [ } 2 3 6 7 d u v w x s s s s s s s s s s s y s s s s s s s z _ / ~ { > = # + + + + + + + +   ",
"  + + + + + + + # = ; ) ~ ^ _ < [ 1 3 5 7 d A B C s s s s s s s s s s s s s s s s s s s s s s D : _ / ~ { > = # + + + + + + +   ",
"  + + + + + + @ * ; , ~ ^ _ < | 2 3 7 E d F G s s s s s s s H I J K L M N s s s s s s s s s s O P [ _ / ~ ) ; = # + + + + + +   ",
"  + + + + + + * = , ~ ^ _ < | 2 5 7 d Q R O s s s s S T U V W X Y Y Y Z `  ...s s s s s s s s O +.} [ _ / ~ , ; * @ + + + + +   ",
"  + + + + + # = , ! ^ ( < | 2 5 7 d @.#.s s s s $.%.&.*.=.=.=.=.=.=.=.=.-.*.;.>.s s s s s s s ,.'.2 } < _ ^ ~ , = & + + + + +   ",
"  + + + + @ * ; { ] / : [ 2 5 7 ).!.~.s s s O {.].=.=.^././././././././.^.(.*._.s s s s s s s s :.<.2 } < ( ^ ! > = # + + + +   ",
"  + + + + & = , ~ / _ [ 1 3 7 d [.~.s s s }.|.-.(././.1.2.2.3.4.4.3.2.2.1.1./.5.6.s s s s s s s s 7.8.2 [ : / ~ ) ; * + + + +   ",
"  + + + # = > ! ^ ( < } 3 7 d 9.0.s s s I a.=.^./.1.3.4.b.c.c.d.d.c.c.b.4.3.2.1.e.f.g.h.i.j.k.s s s l.m.1 [ _ ^ ~ , = # + + +   ",
"  + + + & = , ~ / : | 2 5 E ).n.s s s o.p.(./.1.3.4.c.d.q.r.r.s.s.r.r.q.d.c.4.3.1./.^.=.Y t.u.v.s s s w.3 } < x.] { ; * + + +   ",
"  + + @ * > ! ^ _ [ 1 3 7 ).y.O s s z.A.^./.2.4.b.d.r.s.B.C.C.D.D.C.C.C.s.r.d.c.4.2.E.^.=.Y t.F.G.s s ,.H.2 [ _ ^ ~ , = # + +   ",
"  + + # = , ~ / : | 3 6 d I.J.s s O K.(./.2.4.c.q.s.C.D.L.M.M.N.N.M.M.M.D.C.s.r.d.4.2.1.^.-.Y O.P.s s s Q.m.} < x.~ ) ; & + +   ",
"  + + * ; { ^ ( [ } 3 7 ).R.s s s S.=./.2.4.d.r.s.D.M.N.T.U.U.V.V.U.U.T.N.M.D.C.r.d.4.2./.(.-.W.X.Y.s s G.Z.2 [ _ ^ ! > * @ +   ",
"  + @ = , ~ ^ _ [ 2 5 d `. +s s .+++^.1.4.c.r.s.D.M.T.U.@+V.#+$+$+#+V.@+V.T.M.L.C.r.d.4.2./.=.Y t.%+s s s Q.m.| : / ~ , = # +   ",
"  + # = , ~ / < } 3 7 ).y.s s s &+^.1.3.c.q.s.D.M.U.@+V.*+=+-+-+;+-+=+*+#+@+U.N.L.C.r.c.4.1.^.-.W.>+,+s s '+)+} < ( ] ) ; & +   ",
"  + & ; ) ] ( [ 1 5 E ).!+s s ~+{+/.1.4.d.s.D.M.U.@+$+=+;+]+]+^+^+;+;+;+-+*+@+U./+D.s.d.b.2./.=.Y O.(+s s s _+2 [ _ ^ ! ; * +   ",
"  + * ; ! ^ _ [ 2 5 d `.:+s s <+=./.3.c.r.C.M.T.@+$+-+;+^+[+}+|+1+2+3+4+5+-+*+@+U.M.C.r.d.4.1.^.-.t.6+7+s s 8+2 | : / ~ , = @   ",
"  + * > ~ / : | 3 7 ).9+s s s 0+^.1.4.d.s.D.N.U.V.=+;+[+a+b+c+d+d+c+c+c+e+f+-+$+@+T.L.s.d.4.2./.=.Y O.g+s s h+i+} : / ~ , = #   ",
"  @ = , ~ / : } 3 7 Q j+s s s k+/.2.b.q.C.M.T.@+*+;+^+a+l+d+d+d+d+d+d+c+c+m+n+*+@+U.M.C.r.c.2./.=.Y O.o+s s s p+} < / ~ , = #   ",
"  # = , ~ / < } 3 q+r+s s s s s+t+2.c.r.C.M.U.V.=+]+u+v+d+d+d+w+w+d+d+d+c+c+x+y+#+U.M.D.s.c.4.1.z+Y O.A+s s s B+1 [ x.~ , = #   ",
"  # = , ~ x.< } C+C s s s s s s D+E+c.r.C.M.U.#+-+]+a+F+d+d+w+w+w+w+G+d+d+c+m+H+*+@+T.D.s.d.4.1.^.*.t.I+s s s J+2 [ ( ] ) ; #   ",
"  # = , ~ x.< } K+s s s s s s s s L+d.s.D.N.V.*+;+[+a+M+d+w+w+w+N+w+w+d+d+c+m+O+*+@+T.L.s.d.4.1.^.*.t.P+Q+s s R+2 [ ( ] ) ; &   ",
"  # = , ~ x.< } S+s s s s s s s s T+b.s.D.T.@+*+;+[+a+U+d+w+w+N+V+w+w+d+d+c+m+W+*+@+T.L.s.d.4.1.^.*.t.X+G.s s Y+2 [ ( ] ) ; &   ",
"  # = , ~ x.< } Z+s s s s s s s s `+ @r.D.N.V.$+-+^+a+.@d+G+w+w+w+w+w+d+d+c+m++@*+@+T.D.s.d.4.1.^.*.t.@@O s s #@2 [ ( ] ) ; #   ",
"  # = , ~ / < } $@s s s s s s s s %@c.r.C.M.U.V.-+]+a+&@d+d+G+w+w+w+d+d+c+c+m+*@$+V.N.D.s.d.4.1.(.*.t.=@s s s -@1 [ ( ] ) = #   ",
"  # = , ~ / : } ;@>@s s s s s s ~+,@b.q.C.M.T.@+*+;+[+'@)@d+d+d+d+d+d+c+c+m+!@=+V.U.M.C.r.c.2./.=.Y O.~@s s s {@} < x.~ , = #   ",
"  @ = , ~ / : | 3 ]@^@s s s s G./@1.4.d.s.D.T.V.#+-+]+[+(@_@d+d+d+d+c+c+c+:@<@*+@+T.L.s.q.b.2./.=.Y O.[@s s O }@} < / ~ , = #   ",
"  + * ; ! ^ _ [ 2 6 |@1@O s s 2@3@1.4.c.r.C.M.T.@+*+-+]+[+4@1+c+c+c+c+c+5@6@*+@+U.M.D.s.d.4.1.^.-.t.7@8@s s C 1 | : / ~ , = @   ",
"  + * ; { ^ _ [ 2 5 E 9@Y.s s 0@=./.2.b.d.s.D./+U.@+*+-+;+]+a+a@b@c@d@e@-+*+V.U.T.L.C.q.b.2./.=.Y t.f@g@s s l.2 [ _ ^ ! ; * +   ",
"  + # = , ~ x.< } 3 7 ).h@s s s i@^.1.4.c.r.C.L.N.U.@+$+*+-+;+;+;+;+-+=+*+@+U.T.M.C.r.d.4.1.^.=.Y O.j@s s s k@1 [ ( ] ) ; * +   ",
"  + # = , ~ / : | 2 6 d l@G.s s m@=./.2.4.d.r.C.L.N.U.@+V.$+*+*+*+*+$+V.@+U.T.M.C.s.d.b.2./.=.*.t.6+n@s s o@p@} : / ~ , = # +   ",
"  + + * ; ! ^ _ [ 1 5 7 ).q@s s O r@(./.2.b.d.r.C.D.M.T.U.V.@+@+@+@+V.U.T.M.L.C.s.d.b.3.1.^.-.Y O.s@s s s t@2 [ _ ^ ! , = @ +   ",
"  + + & = , ~ / < } 3 7 d u@O s s v@w@^.1.2.b.d.r.s.C.L.M.N.T.T.T.T.N.M.L.D.C.r.d.b.3.1.^.=.Y t.x@$.s s x y@} < ( ] { ; * + +   ",
"  + + # = , ! ^ _ [ 2 5 7 ).z@s s s A@=.^.1.2.4.c.q.s.s.C.D.D.L.L.L.D.C.C.s.r.d.b.3.1./.=.*.t.B@C@s s s D@2 [ : / ~ , = # + +   ",
"  + + + * ; ) ~ / < } 3 6 d E@,.s s O F@=.^./.2.4.b.d.d.r.s.s.s.s.s.s.r.q.d.b.4.2.1.^.=.*.t.7@G@s s s H@I@} < ( ^ ! ; * + + +   ",
"  + + + # = , ! ^ _ [ 1 3 7 ).J@>.s s K@L@=.^./.1.2.4.b.c.d.d.d.d.d.d.c.b.4.2.1./.3@M@N@t.7@[@s s s >@O@2 [ _ / ~ , = # + + +   ",
"  + + + + * ; , ~ / : [ 2 5 7 ).P@s s s S Q@*.=.^./.1.2.2.4.4.4.4.4.4.3.2.1./.^.R@S@y O T@U@s s s O V@2 | < x.] { ; * @ + + +   ",
"  + + + + # = > ! ^ ( < } 2 5 7 u W@s s s s {.X@-.=.^././.1.1.1.1.1.1././.^.=.k+Y@s s s s s s s s #@m.} [ _ ^ ! , = # + + + +   ",
"  + + + + + & = , ~ ^ _ [ } 3 5 7 Z@1@s s s s n@`@*.-.=.=.(.^.^.^.^.(.=.=.-. #.#s s s s s s s +##@m.} [ _ / ~ , ; * + + + + +   ",
"  + + + + + @ * ; , ~ / _ [ } 3 5 7 ).@#Q+s s s s ##$#%#Y *.*.*.*.*.*.Y Y W.&#s s s s s s s s $.*#} [ : / ~ { ; = # + + + + +   ",
"  + + + + + + # = ; { ~ / _ [ } 2 5 7 =#F -#s s s s s ;#>#,#'#)#!#~#{#]#^#/#(#s s s s s s s s s _#[ : / ] ! , = # + + + + + +   ",
"  + + + + + + + # = > { ~ / _ [ } 2 3 6 E :#<#[#s s s s s s s s s s s s s s s s s s s s s s s }#|#: / ] ! , = & + + + + + + +   ",
"  + + + + + + + + & = > { ~ / _ < [ 1 3 5 7 E 1#P@x s s s s s s s s s s s s s s s s s s s s s 2#4 / ] ! , = * + + + + + + + +   ",
"  + + + + + + + + + & = > { ~ ^ ( : [ } 2 3 5 7 7 3#4#5#6#O s s s s s s s }#7#8#s s s s s s N 9#/ ~ ! , = * + + + + + + + + +   ",
"  + + + + + + + + + + & = > ) ~ ^ / _ < [ } 2 3 3 5 7 7 0#a#b#c#d#e#f#]@f g#h#i#j#k#s s s l#m#^ ~ { , = * @ + + + + + + + + +   ",
"  + + + + + + + + + + + # = ; , ! ~ ^ x._ < [ } } 2 3 3 3 5 5 5 5 5 5 3 3 3 2 1 | n#o#p#q#r#] ~ , ; = & + + + + + + + + + + +   ",
"  + + + + + + + + + + + + # * = , ) ~ ] / x._ : [ [ | } } 1 2 2 2 2 1 } } | [ [ < _ ( / ^ ~ { , ; = # + + + + + + + + + + + +   ",
"  + + + + + + + + + + + + + @ * = ; , { ~ ] ^ / ( _ : : < [ [ [ [ [ [ < < : _ ( / ^ ] ~ ! , ; = * # + + + + + + + + + + + + +   ",
"  s#+ + + + + + + + + + + + + + # * = ; , ) ! ~ ] ^ / / x.( ( ( ( ( ( x./ / ^ ] ~ ~ { , ; = * # + + + + + + + + + + + + + + +   ",
"  t#+ + + + + + + + + + + + + + + + # * = ; > , ) ! ~ ~ ~ ] ] ] ] ] ] ~ ~ ~ ! { , , ; = * # @ + + + + + + + + + + + + + + + +   ",
"    + + + + + + + + + + + + + + + + + + # * = = ; ; , , , ) ) ) ) ) ) , , , > ; = = * # @ + + + + + + + + + + + + + + + + +     ",
"    u#+ + + + + + + + + + + + + + + + + + + @ # & * = = = = ; ; ; ; ; = = = * * # @ + + + + + + + + + + + + + + + + + + + v#    ",
"        @ + + + + + + + + + + + + + + + + + + + + + @ # # # & & & & & # # @ + + + + + + + + + + + + + + + + + + + + + +         ",
"                                                                                                                                "};
