<?xml version="1.0" encoding="utf-8"?>
<!-- Generator: Adobe Illustrator 22.0.1, SVG Export Plug-In . SVG Version: 6.00 Build 0)  -->
<svg version="1.1" id="Layer_1" xmlns="http://www.w3.org/2000/svg" xmlns:xlink="http://www.w3.org/1999/xlink" x="0px" y="0px"
	 viewBox="0 0 512 512" style="enable-background:new 0 0 512 512;" xml:space="preserve">
<style type="text/css">
	.st0{fill:#FFFFFF;}
</style>
<g>
	<path class="st0" d="M497.9,422.3l-57.2-57.5c-2.1-2.1-5.2-3.1-8.3-3.1l-43.9,5c33-37.9,53.2-87.3,53.2-141
		c0-118.2-96.7-214.5-215.3-214.5S11,108.5,11,226.7s96.7,214.5,215.3,214.5c53.2,0,102.3-19.9,140.2-52.7l-5,43.3
		c0,3.1,1,6.3,3.1,8.4l57.2,57.5c6,6.5,16.7,4,17.7-7.3l5.2-46l46.8-5.2C499.8,438.3,504.5,428.8,497.9,422.3L497.9,422.3z
		 M31.8,226.7c0-107.8,87.4-194.6,194.5-194.6s194.5,86.8,194.5,194.6c0,49.6-18.5,94.7-48.9,129l-34.8-34.8
		c21.7-25.5,34.9-58.7,34.9-95.2c0-80.6-65.5-146.5-145.6-146.5S80.7,145.1,80.7,225.7s65.5,146.5,145.6,146.5
		c36.8,0,70.6-13.7,96.3-36.5l34.8,34.8c-34.6,31.6-80.7,50.8-131.1,50.8C119.2,421.3,31.8,334.5,31.8,226.7z M289.5,273.3
		c9.9-13.1,15.9-29.2,15.9-46.6c0-42.9-35.4-78.5-79.1-78.5s-79.1,35.6-79.1,78.5s35.4,78.5,79.1,78.5c18.1,0,35.1-6.5,48.7-17.1
		l33.6,33.6c-22,19-50.8,30.6-82.3,30.6c-69.7,0-125.9-56.5-125.9-125.5s56.2-125.5,125.9-125.5c68.7,0,124.8,56.5,125.9,125.5
		c0,30.4-10.9,58.4-29.1,80.2L289.5,273.3z M248.2,231.9c-4.2-4.2-10.4-4.2-14.6,0c-4.2,4.2-4.2,10.5,0,14.6l27.3,27.3
		c-9.7,7.2-21.6,11.4-34.6,11.4c-32.2,0-58.3-26.2-58.3-58.6s26-58.6,58.3-58.6s58.3,26.2,58.3,58.6c0,11.9-3.5,22.9-9.5,32.1
		L248.2,231.9L248.2,231.9z M382.4,428.6l3-30.2l39.3,39.3l-2.8,29.6L382.4,428.6L382.4,428.6z M440.1,423.9l-38.6-38.6l26.7-2.7
		l39.5,38.7L440.1,423.9z"/>
</g>
</svg>
