<?xml version="1.0" encoding="utf-8"?>
<!-- Generator: Adobe Illustrator 19.2.1, SVG Export Plug-In . SVG Version: 6.00 Build 0)  -->
<svg version="1.1" xmlns="http://www.w3.org/2000/svg" xmlns:xlink="http://www.w3.org/1999/xlink" x="0px" y="0px"
	 viewBox="0 0 1852.2 597.1" style="enable-background:new 0 0 1852.2 597.1;" xml:space="preserve">
<style type="text/css">
	.st0{fill:#FFFFFF;}
	.st1{font-family:'FuturaLT-Book';}
	.st2{font-size:579.1811px;}
	.st3{display:none;fill:none;stroke:#000000;stroke-width:26;stroke-miterlimit:10;}
	.st4{display:none;opacity:0.75;fill:#26A9E0;}
	.st5{display:none;fill:#231F20;}
	.st6{display:none;}
	.st7{display:none;fill:none;stroke:#000000;stroke-width:72;stroke-miterlimit:10;}
	.st8{opacity:0.75;fill:#26A9E0;enable-background:new    ;}
	.st9{fill:#111111;fill-opacity:0;}
</style>
<g id="Layer_1">
	<text transform="matrix(1 0 0 1 465.7966 427.6227)" class="st0 st1 st2">nomy</text>
	<text transform="matrix(1 0 0 1 -26.0872 427.6295)" class="st0 st1 st2">i</text>
	<circle class="st3" cx="296.4" cy="292.8" r="141.5"/>
	<circle class="st4" cx="296.4" cy="292.8" r="43.6"/>
	<circle class="st5" cx="155" cy="298.3" r="33.2"/>
	<circle class="st5" cx="365.6" cy="420.5" r="33.2"/>
	<circle class="st6" cx="365.6" cy="166.2" r="38.7"/>
	<circle class="st6" cx="155" cy="298.3" r="38.7"/>
	<circle class="st6" cx="365.6" cy="420.5" r="38.7"/>
</g>
<g id="Layer_2">
	<g>
		<circle class="st7" cx="291.2" cy="292" r="135.9"/>
		<circle class="st8" cx="291.2" cy="292" r="41.9"/>
		<circle class="st0" cx="155.2" cy="297.3" r="31.9"/>
		<circle class="st0" cx="357.7" cy="410.1" r="31.9"/>
		<circle class="st0" cx="357.7" cy="174" r="31.9"/>
		<circle class="st9" cx="226.1" cy="174" r="31.9"/>
		<circle class="st9" cx="226.1" cy="410.1" r="31.9"/>
		<circle class="st9" cx="427.1" cy="297.3" r="31.9"/>
		<path class="st0" d="M290.9,145.4c-81,0-146.6,65.6-146.6,146.6s65.6,146.6,146.6,146.6S437.5,372.9,437.5,292
			S371.8,145.4,290.9,145.4z M291.2,417.1c-69,0-125-55.9-125-125s55.9-125,125-125s125,55.9,125,125S360.2,417.1,291.2,417.1z"/>
	</g>
</g>
</svg>
