<?xml version="1.0" encoding="utf-8"?>
<!-- Generator: Adobe Illustrator 19.2.1, SVG Export Plug-In . SVG Version: 6.00 Build 0)  -->
<svg version="1.1" id="Layer_1" xmlns="http://www.w3.org/2000/svg" xmlns:xlink="http://www.w3.org/1999/xlink" x="0px" y="0px"
	 viewBox="0 0 1155.4 1064.2" style="enable-background:new 0 0 1155.4 1064.2;" xml:space="preserve">
<style type="text/css">
	.st0{display:none;fill:none;stroke:#000000;stroke-width:72;stroke-miterlimit:10;}
	.st1{opacity:0.75;fill:#26A9E0;}
	.st2{fill:#FFFFFF;}
	.st3{opacity:0;fill:#111111;}
</style>
<g>
	<circle class="st0" cx="579.3" cy="531.3" r="452.7"/>
	<circle class="st1" cx="579.3" cy="531.3" r="139.5"/>
	<circle class="st2" cx="126.6" cy="548.9" r="106.3"/>
	<circle class="st2" cx="800.7" cy="924.5" r="106.3"/>
	<circle class="st2" cx="800.7" cy="138.2" r="106.3"/>
	<circle class="st3" cx="362.7" cy="138.2" r="106.3"/>
	<circle class="st3" cx="362.7" cy="924.5" r="106.3"/>
	<circle class="st3" cx="1031.9" cy="548.9" r="106.3"/>
	<path class="st2" d="M578.4,43C308.8,43,90.3,261.5,90.3,531.1s218.5,488.1,488.1,488.1c269.6,0,488.1-218.5,488.1-488.1
		S847.9,43,578.4,43z M579.4,947.8c-229.9,0-416.2-186.3-416.2-416.2s186.3-416.2,416.2-416.2s416.2,186.3,416.2,416.2
		S809.2,947.8,579.4,947.8z"/>
</g>
</svg>
