<?xml version="1.0" encoding="utf-8"?>
<!-- Generator: Adobe Illustrator 22.0.1, SVG Export Plug-In . SVG Version: 6.00 Build 0)  -->
<svg version="1.1" id="Layer_1" xmlns="http://www.w3.org/2000/svg" xmlns:xlink="http://www.w3.org/1999/xlink" x="0px" y="0px"
	 viewBox="0 0 512 512" style="enable-background:new 0 0 512 512;" xml:space="preserve">
<style type="text/css">
	.st0{fill:#FFFFFF;}
</style>
<g>
	<g>
		<g>
			<g>
				<path class="st0" d="M482.5,409.3H51.3c-4.4,0-7.6-2.1-9.8-5.2s-1.1-7.3,1.1-10.4l111.1-148c3.3-4.2,9.8-5.2,14.2-2.1L219,277
					l71.9-129.2c1.1-3.1,4.4-5.2,7.6-5.2s6.5,1,8.7,3.1l54.4,54.2L473.8,16.5c2.2-4.2,7.6-6.3,12-5.2c4.4,1,7.6,5.2,7.6,9.4v377.2
					C493.4,405.1,487.9,409.3,482.5,409.3z M72,388.5h399.6V59.2l-98,161.5c-2.2,3.1-4.4,4.2-7.6,5.2c-3.3,0-6.5-1-8.7-3.1
					l-53.4-53.1l-70.8,126.1c-1.1,2.1-4.4,4.2-6.5,5.2c-3.3,1-6.5,0-8.7-1l-52.3-34.4L72,388.5L72,388.5z"/>
			</g>
			<g>
				<rect x="11" y="480.2" class="st0" width="490" height="20.8"/>
			</g>
		</g>
	</g>
</g>
</svg>
